<svg xmlns="http://www.w3.org/2000/svg" viewBox="0 0 477.06 458.75"><defs><style>.cls-1{fill:#ebebeb;}.cls-2{opacity:0.1;}.cls-3{fill:#27debf;}.cls-4{opacity:0.15;}.cls-18,.cls-23,.cls-5,.cls-8{fill:#fff;}.cls-6{fill:#37474f;}.cls-7{opacity:0.25;}.cls-15,.cls-8{opacity:0.5;}.cls-21,.cls-9{fill:#e0e0e0;}.cls-10{fill:#f0f0f0;}.cls-11,.cls-18{opacity:0.2;}.cls-12{fill:#455a64;}.cls-13{fill:#fafafa;}.cls-14{fill:#263238;}.cls-16{fill:#ffa8a7;}.cls-17{fill:#f28f8f;}.cls-19,.cls-20,.cls-23{opacity:0.4;}.cls-21{font-size:3.1px;font-family:Rubik-Medium, Rubik Medium;font-weight:500;}.cls-22{opacity:0.3;}</style></defs><g id="Layer_2" data-name="Layer 2"><g id="Floor"><ellipse id="Floor-2" data-name="Floor" class="cls-1" cx="238.53" cy="318.62" rx="238.53" ry="140.13"/></g><g id="Shadows"><path id="Shadow" class="cls-2" d="M205.3,413.6a6.58,6.58,0,0,1-3.32-.8l-16.7-9.65-15.66,9.05a6.64,6.64,0,0,1-3.31.79,6.54,6.54,0,0,1-3.31-.8l-10.53-6.08a2.7,2.7,0,0,1,0-5l14.66-8.47-15.7-9.06a2.71,2.71,0,0,1,0-5L164.56,371a7.27,7.27,0,0,1,6.63,0l16.7,9.64,15.55-9a7.35,7.35,0,0,1,6.63,0l10.53,6.08a2.7,2.7,0,0,1,0,5l-14.55,8.41,15.7,9.06a2.71,2.71,0,0,1,0,5l-13.13,7.58A6.55,6.55,0,0,1,205.3,413.6Z"/><path id="Shadow-2" data-name="Shadow" class="cls-2" d="M244.87,366.76a6.44,6.44,0,0,1-3.31-.81L231,359.88a2.7,2.7,0,0,1,0-5l51-29.43a7.27,7.27,0,0,1,6.63,0l10.53,6.07a2.71,2.71,0,0,1,0,5l-51,29.43A6.52,6.52,0,0,1,244.87,366.76Z"/><path id="Shadow-3" data-name="Shadow" class="cls-2" d="M91,382.71,22.45,343.15c-2.39-1.38-2.39-3.62,0-5L160.06,258.7a9.57,9.57,0,0,1,8.66,0l68.48,39.58c2.39,1.38,2.39,3.62,0,5L99.63,382.71A9.57,9.57,0,0,1,91,382.71Z"/><ellipse id="Shadow-4" data-name="Shadow" class="cls-2" cx="343.28" cy="389.52" rx="61.38" ry="37"/><path id="Shadow-5" data-name="Shadow" class="cls-2" d="M420.51,357.63c6.41,3.7,6.41,9.7,0,13.4s-16.79,3.7-23.2,0-6.41-9.7,0-13.4S414.1,353.93,420.51,357.63Z"/></g><g id="Plants"><g id="Plants-2" data-name="Plants"><path class="cls-3" d="M78.6,315.34c-.16-1.55-2.19-41.62-15-63.65s-31.77-32.32-41.54-23c-8.77,8.39,2,20.57,15.11,33.15C52.72,276.77,63.85,293.31,67,314.14Z"/><path class="cls-4" d="M78.6,315.34c-.16-1.55-2.19-41.62-15-63.65s-31.77-32.32-41.54-23c-8.77,8.39,2,20.57,15.11,33.15C52.72,276.77,63.85,293.31,67,314.14Z"/><path class="cls-5" d="M71.61,312.2a.81.81,0,0,1-.81-.76c-2.43-44-33.16-72.3-41.25-77.47a.81.81,0,1,1,.87-1.36c8.24,5.26,39.53,34.06,42,78.74a.81.81,0,0,1-.77.85Z"/><path class="cls-3" d="M79.85,307.18c-2-5.55-7.68-9.12-13.36-10.94-5.86-1.88-12.11-2.39-17.93-4.41S37.71,286.46,32,284.45s-13.45-2.33-18.51,1.43c-7.83,5.81.92,13.92,5.39,17.79,2.82,2.43,5,6.35,3.6,9.8s-5.38,4.89-6.7,8.2c-1.63,4.09,1.71,8.47,5.28,11.06a35.39,35.39,0,0,0,15.6,6.34c3.27.47,7.15.8,8.83,3.65,1.27,2.14.7,4.84.84,7.33.28,5.11,3.79,9.67,8.21,12.25,4.67,2.74,12.84,5,18.21,3.47l15.65-4.53c3.93-1.11,6.1-8.1,6.64-11.6a21.44,21.44,0,0,0-2.68-14.19c-3.22-5.35-8.82-9.31-10.59-15.3-1.19-4-.46-8.42-1.73-12.42C80,307.55,79.92,307.36,79.85,307.18Z"/><path class="cls-5" d="M83.85,358.43a.57.57,0,0,1-.37-.42c-7.18-32.29-47.14-61.22-62.6-67.84a.58.58,0,0,1,.46-1.07c15.62,6.69,56,36,63.27,68.65a.58.58,0,0,1-.44.7A.69.69,0,0,1,83.85,358.43Z"/><path class="cls-5" d="M32.91,326.71a.71.71,0,0,1-.45-.47.72.72,0,0,1,.47-.9,76.07,76.07,0,0,1,9.66-2.26,73.35,73.35,0,0,1,19.95-1,5.14,5.14,0,0,1,1.95.39c.32.17.63.49.55.84-.2.79-1.21.39-1.72.33q-1.3-.15-2.61-.24c-1.73-.11-3.47-.15-5.2-.12a78.64,78.64,0,0,0-9.7.8,85.51,85.51,0,0,0-12,2.49l-.48.15A.72.72,0,0,1,32.91,326.71Z"/></g></g><g id="Calculator"><g id="Calculator-2" data-name="Calculator"><path class="cls-6" d="M240.16,16.91c0-2.75-1-4.68-2.52-5.59s-14.73-8.59-16.33-9.48-3.7-.72-6.06.64l-131.6,76c-4.78,2.76-8.66,9.48-8.66,15V364.64c0,2.76,1,4.7,2.54,5.6s14.65,8.48,16.18,9.4,3.76.83,6.19-.57l131.6-76c4.78-2.76,8.66-9.48,8.66-15Z"/><path class="cls-6" d="M91.24,374.07V102.89c0-5.52,3.88-12.24,8.67-15l131.6-76c4.78-2.76,8.66-.52,8.66,5V288.09c0,5.52-3.88,12.24-8.66,15l-131.6,76C95.11,381.83,91.24,379.59,91.24,374.07Z"/><path class="cls-3" d="M125.84,324.52a1,1,0,0,0-1.08.06l-19.33,11.17c-1.11.64-2,2.76-2,4.72V359.4a2.8,2.8,0,0,0,.91,2.46c.31.19,3.51,2,4.06,2.34a1,1,0,0,0,1.09-.05L128.83,353c1.1-.64,2-2.76,2-4.73V329.33a2.77,2.77,0,0,0-.94-2.48C129.58,326.68,126.4,324.83,125.84,324.52Z"/><path class="cls-7" d="M108.45,364.23l0,0-4.07-2.34a2.83,2.83,0,0,1-.91-2.46V340.48a7.42,7.42,0,0,1,.65-3l4.06,2.34a7.42,7.42,0,0,0-.65,3v18.92C107.49,363,107.87,363.93,108.45,364.23Z"/><path class="cls-8" d="M129.87,326.84a1.06,1.06,0,0,0-1.05.08l-19.33,11.17a3.67,3.67,0,0,0-1.36,1.74l-4.06-2.34a3.75,3.75,0,0,1,1.36-1.73l19.33-11.17a1.06,1.06,0,0,1,1.08-.07C126.39,324.83,129.47,326.62,129.87,326.84Z"/><path class="cls-3" d="M128.83,353l-19.34,11.17c-1.1.64-2-.44-2-2.41V342.81c0-2,.9-4.08,2-4.72l19.33-11.17c1.11-.64,2,.44,2,2.41v18.92C130.83,350.22,129.93,352.34,128.83,353Z"/><path class="cls-3" d="M194.89,284.66a1,1,0,0,0-1.08.06l-19.34,11.17c-1.1.64-2,2.75-2,4.72v18.93a2.8,2.8,0,0,0,.91,2.46l4.06,2.34a1,1,0,0,0,1.1-.06l19.33-11.17c1.11-.64,2-2.75,2-4.72V289.46c0-1.27-.37-2.17-.93-2.47C198.63,286.82,195.45,285,194.89,284.66Z"/><path class="cls-7" d="M177.5,324.36l-.05,0L173.38,322a2.83,2.83,0,0,1-.91-2.46V300.61a7.42,7.42,0,0,1,.65-3l4.06,2.34a7.42,7.42,0,0,0-.65,3v18.92C176.54,323.16,176.92,324.06,177.5,324.36Z"/><path class="cls-8" d="M198.92,287a1.06,1.06,0,0,0-1,.08l-19.33,11.17a3.67,3.67,0,0,0-1.36,1.74l-4.06-2.34a3.75,3.75,0,0,1,1.36-1.73l19.33-11.17a1.06,1.06,0,0,1,1.08-.07C195.44,285,198.52,286.75,198.92,287Z"/><path class="cls-3" d="M197.87,313.11l-19.33,11.17c-1.11.64-2-.43-2-2.4V303c0-2,.9-4.09,2-4.73l19.33-11.17c1.11-.63,2,.44,2,2.41v18.93C199.88,310.36,199,312.47,197.87,313.11Z"/><path class="cls-3" d="M229.41,264.72a1.06,1.06,0,0,0-1.08.07L209,276c-1.11.63-2,2.75-2,4.72v18.93a2.83,2.83,0,0,0,.91,2.46l4.07,2.34a1.05,1.05,0,0,0,1.09-.06l19.34-11.17c1.1-.64,2-2.75,2-4.72V269.53a2.78,2.78,0,0,0-.94-2.48C233.15,266.89,230,265,229.41,264.72Z"/><path class="cls-7" d="M212,304.43l-.05,0-4.07-2.34a2.83,2.83,0,0,1-.91-2.46V280.68a7.42,7.42,0,0,1,.65-3L211.7,280a7.42,7.42,0,0,0-.65,3v18.92C211.06,303.23,211.44,304.13,212,304.43Z"/><path class="cls-8" d="M233.44,267a1.06,1.06,0,0,0-1.05.08l-19.33,11.17A3.67,3.67,0,0,0,211.7,280l-4.06-2.34A3.75,3.75,0,0,1,209,276l19.33-11.17a1.06,1.06,0,0,1,1.08-.07C230,265,233,266.82,233.44,267Z"/><path class="cls-3" d="M232.4,293.18l-19.34,11.17c-1.11.64-2-.44-2-2.41V283c0-2,.9-4.09,2-4.73l19.33-11.17c1.11-.64,2,.44,2,2.41v18.93C234.4,290.43,233.5,292.54,232.4,293.18Z"/><path class="cls-3" d="M229.41,224.81a1.06,1.06,0,0,0-1.08.07L209,236c-1.11.64-2,2.76-2,4.73V259.7a2.83,2.83,0,0,0,.91,2.46l4.07,2.33a1,1,0,0,0,1.09-.05l19.34-11.17c1.1-.64,2-2.75,2-4.72V229.62a2.78,2.78,0,0,0-.94-2.48Z"/><path class="cls-7" d="M212,264.52l-.05,0-4.07-2.34a2.83,2.83,0,0,1-.91-2.46V240.77a7.42,7.42,0,0,1,.65-3l4.06,2.34a7.42,7.42,0,0,0-.65,3V262C211.06,263.32,211.44,264.22,212,264.52Z"/><path class="cls-8" d="M233.44,227.13a1.06,1.06,0,0,0-1.05.08l-19.33,11.17a3.67,3.67,0,0,0-1.36,1.74l-4.06-2.34a3.75,3.75,0,0,1,1.36-1.73l19.33-11.17a1.06,1.06,0,0,1,1.08-.07C230,225.12,233,226.91,233.44,227.13Z"/><path class="cls-3" d="M232.4,253.27l-19.34,11.17c-1.11.64-2-.44-2-2.41V243.1c0-2,.9-4.08,2-4.72l19.33-11.17c1.11-.64,2,.44,2,2.41v18.93C234.4,250.52,233.5,252.63,232.4,253.27Z"/><path class="cls-3" d="M229.41,184.9a1.06,1.06,0,0,0-1.08.06L209,196.13c-1.11.64-2,2.76-2,4.73v18.93a2.83,2.83,0,0,0,.91,2.46l4.07,2.33a1,1,0,0,0,1.09-.05l19.34-11.17c1.1-.64,2-2.75,2-4.72V189.71a2.78,2.78,0,0,0-.94-2.48Z"/><path class="cls-7" d="M212,224.61l-.05,0-4.07-2.34a2.83,2.83,0,0,1-.91-2.46V200.86a7.42,7.42,0,0,1,.65-3l4.06,2.34a7.42,7.42,0,0,0-.65,3v18.92C211.06,223.41,211.44,224.31,212,224.61Z"/><path class="cls-8" d="M233.44,187.22a1.06,1.06,0,0,0-1.05.08l-19.33,11.17a3.67,3.67,0,0,0-1.36,1.74l-4.06-2.34a3.75,3.75,0,0,1,1.36-1.73L228.33,185a1.06,1.06,0,0,1,1.08-.07C230,185.21,233,187,233.44,187.22Z"/><path class="cls-3" d="M232.4,213.36l-19.34,11.17c-1.11.64-2-.44-2-2.41V203.19c0-2,.9-4.08,2-4.72l19.33-11.17c1.11-.64,2,.44,2,2.41v18.93C234.4,210.61,233.5,212.72,232.4,213.36Z"/><path class="cls-3" d="M229.41,145a1.06,1.06,0,0,0-1.08.06L209,156.22c-1.11.64-2,2.76-2,4.73v18.92a2.85,2.85,0,0,0,.91,2.47l4.07,2.33a1,1,0,0,0,1.09,0l19.34-11.17c1.1-.64,2-2.76,2-4.72V149.8a2.78,2.78,0,0,0-.94-2.48C233.15,147.15,230,145.3,229.41,145Z"/><path class="cls-7" d="M212,184.7l-.05,0-4.07-2.34a2.83,2.83,0,0,1-.91-2.46V161a7.42,7.42,0,0,1,.65-3l4.06,2.34a7.42,7.42,0,0,0-.65,3v18.92C211.06,183.5,211.44,184.4,212,184.7Z"/><path class="cls-8" d="M233.44,147.31a1.06,1.06,0,0,0-1.05.08l-19.33,11.17a3.67,3.67,0,0,0-1.36,1.74L207.64,158a3.75,3.75,0,0,1,1.36-1.73l19.33-11.17a1.06,1.06,0,0,1,1.08-.07C230,145.3,233,147.09,233.44,147.31Z"/><path class="cls-3" d="M232.4,173.45l-19.34,11.17c-1.11.64-2-.44-2-2.41V163.28c0-2,.9-4.08,2-4.72l19.33-11.17c1.11-.64,2,.44,2,2.41v18.93C234.4,170.69,233.5,172.81,232.4,173.45Z"/><path class="cls-3" d="M229.41,105.08a1,1,0,0,0-1.08.06L209,116.31c-1.11.64-2,2.76-2,4.72V140a2.83,2.83,0,0,0,.91,2.46l4.07,2.34a1,1,0,0,0,1.09,0l19.34-11.17c1.1-.64,2-2.76,2-4.73V109.89a2.78,2.78,0,0,0-.94-2.48C233.15,107.24,230,105.39,229.41,105.08Z"/><path class="cls-7" d="M212,144.79l-.05,0-4.07-2.34A2.83,2.83,0,0,1,207,140V121a7.42,7.42,0,0,1,.65-3l4.06,2.34a7.42,7.42,0,0,0-.65,3V142.3C211.06,143.59,211.44,144.49,212,144.79Z"/><path class="cls-8" d="M233.44,107.4a1.06,1.06,0,0,0-1.05.08l-19.33,11.17a3.67,3.67,0,0,0-1.36,1.74l-4.06-2.34a3.75,3.75,0,0,1,1.36-1.73l19.33-11.17a1.06,1.06,0,0,1,1.08-.07C230,105.39,233,107.18,233.44,107.4Z"/><path class="cls-3" d="M232.4,133.54l-19.34,11.17c-1.11.64-2-.44-2-2.41V123.37c0-2,.9-4.08,2-4.72l19.33-11.17c1.11-.64,2,.44,2,2.41v18.92C234.4,130.78,233.5,132.9,232.4,133.54Z"/><path class="cls-3" d="M194.89,125a1.06,1.06,0,0,0-1.08.06l-19.34,11.17c-1.1.64-2,2.76-2,4.73V159.9a2.8,2.8,0,0,0,.91,2.46c.32.18,3.52,2,4.06,2.33a1,1,0,0,0,1.1-.05l19.33-11.17c1.11-.64,2-2.75,2-4.72V129.82a2.78,2.78,0,0,0-.93-2.48Z"/><path class="cls-7" d="M177.5,164.72l-.05,0-4.07-2.34a2.83,2.83,0,0,1-.91-2.46V141a7.42,7.42,0,0,1,.65-3l4.06,2.34a7.42,7.42,0,0,0-.65,3v18.92C176.54,163.52,176.92,164.42,177.5,164.72Z"/><path class="cls-8" d="M198.92,127.33a1.06,1.06,0,0,0-1,.08l-19.33,11.17a3.67,3.67,0,0,0-1.36,1.74L173.12,138a3.75,3.75,0,0,1,1.36-1.73l19.33-11.17a1.06,1.06,0,0,1,1.08-.07C195.44,125.32,198.52,127.11,198.92,127.33Z"/><path class="cls-3" d="M197.87,153.47l-19.33,11.17c-1.11.64-2-.44-2-2.41V143.3c0-2,.9-4.08,2-4.72l19.33-11.17c1.11-.64,2,.44,2,2.41v18.93C199.88,150.72,199,152.83,197.87,153.47Z"/><path class="cls-3" d="M160.37,144.94a1.08,1.08,0,0,0-1.09.07L140,156.18c-1.11.63-2,2.75-2,4.72v18.93a2.8,2.8,0,0,0,.91,2.46l4.06,2.34a1.07,1.07,0,0,0,1.1-.06l19.33-11.17c1.11-.64,2-2.75,2-4.72V149.75a2.76,2.76,0,0,0-.94-2.48C164.11,147.11,160.92,145.26,160.37,144.94Z"/><path class="cls-7" d="M143,184.65l-.05,0-4.07-2.34a2.83,2.83,0,0,1-.91-2.46V160.9a7.42,7.42,0,0,1,.65-3l4.06,2.34a7.42,7.42,0,0,0-.65,3v18.92C142,183.45,142.39,184.35,143,184.65Z"/><path class="cls-8" d="M164.39,147.26a1.06,1.06,0,0,0-1,.08L144,158.51a3.67,3.67,0,0,0-1.36,1.74l-4.06-2.34a3.75,3.75,0,0,1,1.36-1.73L159.28,145a1.06,1.06,0,0,1,1.08-.07C160.91,145.25,164,147,164.39,147.26Z"/><path class="cls-3" d="M163.35,173.4,144,184.57c-1.11.64-2-.44-2-2.41V163.24c0-2,.89-4.09,2-4.73l19.34-11.17c1.1-.64,2,.44,2,2.41v18.93C165.35,170.65,164.46,172.76,163.35,173.4Z"/><path class="cls-3" d="M125.84,164.88a1,1,0,0,0-1.08.06l-19.33,11.17c-1.11.64-2,2.75-2,4.72v18.93a2.8,2.8,0,0,0,.91,2.46l4.06,2.34a1,1,0,0,0,1.09-.06l19.34-11.17c1.1-.64,2-2.75,2-4.72V169.68a2.75,2.75,0,0,0-.94-2.47C129.58,167,126.4,165.19,125.84,164.88Z"/><path class="cls-7" d="M108.45,204.58l0,0-4.07-2.34a2.83,2.83,0,0,1-.91-2.46V180.83a7.42,7.42,0,0,1,.65-3l4.06,2.34a7.42,7.42,0,0,0-.65,3v18.92C107.49,203.38,107.87,204.28,108.45,204.58Z"/><path class="cls-8" d="M129.87,167.19a1.06,1.06,0,0,0-1.05.08l-19.33,11.17a3.67,3.67,0,0,0-1.36,1.74l-4.06-2.34a3.75,3.75,0,0,1,1.36-1.73l19.33-11.17a1.06,1.06,0,0,1,1.08-.07C126.39,165.18,129.47,167,129.87,167.19Z"/><path class="cls-3" d="M128.83,193.33,109.49,204.5c-1.1.64-2-.43-2-2.4V183.17c0-2,.9-4.09,2-4.73l19.33-11.17c1.11-.63,2,.44,2,2.41v18.93C130.83,190.58,129.93,192.69,128.83,193.33Z"/><path class="cls-9" d="M160.37,304.59a1.05,1.05,0,0,0-1.09.06L140,315.82c-1.11.64-2,2.75-2,4.72v18.93a2.8,2.8,0,0,0,.91,2.46c.31.19,3.51,2,4.06,2.34a1,1,0,0,0,1.1-.06l19.33-11.16c1.11-.64,2-2.76,2-4.73V309.39c0-1.27-.37-2.17-.94-2.47Z"/><path class="cls-10" d="M164.39,306.9a1.06,1.06,0,0,0-1,.08L144,318.15a3.67,3.67,0,0,0-1.36,1.74l-4.06-2.34a3.75,3.75,0,0,1,1.36-1.73l19.33-11.17a1.06,1.06,0,0,1,1.08-.07C160.91,304.89,164,306.68,164.39,306.9Z"/><path class="cls-11" d="M143,344.29l-.05,0-4.07-2.34a2.83,2.83,0,0,1-.91-2.46V320.54a7.42,7.42,0,0,1,.65-3l4.06,2.34a7.42,7.42,0,0,0-.65,3V341.8C142,343.09,142.39,344,143,344.29Z"/><path class="cls-9" d="M125.84,284.61a1,1,0,0,0-1.08.06l-19.33,11.17c-1.11.64-2,2.75-2,4.72v18.93a2.8,2.8,0,0,0,.91,2.46c.31.19,3.51,2,4.06,2.34a1.05,1.05,0,0,0,1.09-.05l19.34-11.17c1.1-.64,2-2.76,2-4.73V289.41a2.75,2.75,0,0,0-.94-2.47C129.58,286.77,126.4,284.92,125.84,284.61Z"/><path class="cls-10" d="M129.87,286.92a1.06,1.06,0,0,0-1.05.08l-19.33,11.17a3.67,3.67,0,0,0-1.36,1.74l-4.06-2.34a3.75,3.75,0,0,1,1.36-1.73l19.33-11.17a1.06,1.06,0,0,1,1.08-.07C126.39,284.91,129.47,286.7,129.87,286.92Z"/><path class="cls-11" d="M108.45,324.31l0,0L104.33,322a2.83,2.83,0,0,1-.91-2.46V300.56a7.42,7.42,0,0,1,.65-3l4.06,2.34a7.42,7.42,0,0,0-.65,3v18.92C107.49,323.11,107.87,324,108.45,324.31Z"/><path class="cls-9" d="M194.89,244.75a1,1,0,0,0-1.08.06L174.47,256c-1.1.64-2,2.75-2,4.72v18.93a2.8,2.8,0,0,0,.91,2.46l4.06,2.34a1,1,0,0,0,1.1-.06l19.33-11.17c1.11-.64,2-2.75,2-4.72V249.55a2.78,2.78,0,0,0-.93-2.48C198.63,246.91,195.44,245.06,194.89,244.75Z"/><path class="cls-10" d="M198.92,247.06a1.06,1.06,0,0,0-1,.08l-19.33,11.17a3.67,3.67,0,0,0-1.36,1.74l-4.06-2.34a3.75,3.75,0,0,1,1.36-1.73l19.33-11.17a1.06,1.06,0,0,1,1.08-.07C195.44,245.05,198.52,246.84,198.92,247.06Z"/><path class="cls-11" d="M177.5,284.45l-.05,0-4.07-2.34a2.83,2.83,0,0,1-.91-2.46V260.7a7.42,7.42,0,0,1,.65-3l4.06,2.34a7.42,7.42,0,0,0-.65,3V282C176.54,283.25,176.92,284.15,177.5,284.45Z"/><path class="cls-9" d="M160.37,264.68a1.05,1.05,0,0,0-1.09.06L140,275.91c-1.11.64-2,2.75-2,4.72v18.93a2.8,2.8,0,0,0,.91,2.46c.31.19,3.51,2,4.06,2.34a1,1,0,0,0,1.1-.06l19.33-11.16c1.11-.64,2-2.76,2-4.73V269.48c0-1.27-.37-2.17-.94-2.47Z"/><path class="cls-10" d="M164.39,267a1.06,1.06,0,0,0-1,.08L144,278.24a3.67,3.67,0,0,0-1.36,1.74l-4.06-2.34a3.75,3.75,0,0,1,1.36-1.73l19.33-11.17a1.06,1.06,0,0,1,1.08-.07C160.91,265,164,266.77,164.39,267Z"/><path class="cls-11" d="M143,304.38l-.05,0L138.85,302a2.83,2.83,0,0,1-.91-2.46V280.63a7.42,7.42,0,0,1,.65-3l4.06,2.34a7.42,7.42,0,0,0-.65,3v18.92C142,303.18,142.39,304.08,143,304.38Z"/><path class="cls-9" d="M125.84,244.71a1,1,0,0,0-1.08.07l-19.33,11.16c-1.11.64-2,2.76-2,4.73V279.6a2.8,2.8,0,0,0,.91,2.46l4.06,2.33a1,1,0,0,0,1.09-.05l19.34-11.17c1.1-.64,2-2.75,2-4.72V249.52a2.78,2.78,0,0,0-.94-2.48Z"/><path class="cls-10" d="M129.87,247a1.06,1.06,0,0,0-1.05.08l-19.33,11.17a3.67,3.67,0,0,0-1.36,1.74l-4.06-2.34a3.75,3.75,0,0,1,1.36-1.73l19.33-11.17a1.06,1.06,0,0,1,1.08-.07C126.39,245,129.47,246.81,129.87,247Z"/><path class="cls-11" d="M108.45,284.42l0,0-4.07-2.34a2.83,2.83,0,0,1-.91-2.46V260.67a7.42,7.42,0,0,1,.65-3l4.06,2.34a7.42,7.42,0,0,0-.65,3v18.92C107.49,283.22,107.87,284.12,108.45,284.42Z"/><path class="cls-9" d="M194.89,204.85a1,1,0,0,0-1.08.06l-19.34,11.17c-1.1.64-2,2.75-2,4.72v18.93a2.8,2.8,0,0,0,.91,2.46l4.06,2.34a1.07,1.07,0,0,0,1.1-.05l19.33-11.17c1.11-.64,2-2.76,2-4.73V209.65c0-1.27-.37-2.17-.93-2.47Z"/><path class="cls-10" d="M198.92,207.16a1.06,1.06,0,0,0-1,.08l-19.33,11.17a3.67,3.67,0,0,0-1.36,1.74l-4.06-2.34a3.75,3.75,0,0,1,1.36-1.73l19.33-11.17a1.06,1.06,0,0,1,1.08-.07C195.44,205.15,198.52,206.94,198.92,207.16Z"/><path class="cls-11" d="M177.5,244.55l-.05,0-4.07-2.34a2.83,2.83,0,0,1-.91-2.46V220.8a7.42,7.42,0,0,1,.65-3l4.06,2.34a7.42,7.42,0,0,0-.65,3v18.92C176.54,243.35,176.92,244.25,177.5,244.55Z"/><path class="cls-9" d="M160.37,224.78a1.08,1.08,0,0,0-1.09.06L140,236c-1.11.64-2,2.76-2,4.73v18.92a2.82,2.82,0,0,0,.91,2.47l4.06,2.33a1,1,0,0,0,1.1,0l19.33-11.17c1.11-.64,2-2.76,2-4.72V229.59a2.76,2.76,0,0,0-.94-2.48Z"/><path class="cls-10" d="M164.39,227.1a1.06,1.06,0,0,0-1,.08L144,238.35a3.67,3.67,0,0,0-1.36,1.74l-4.06-2.34A3.75,3.75,0,0,1,140,236l19.33-11.17a1.06,1.06,0,0,1,1.08-.07C160.91,225.09,164,226.88,164.39,227.1Z"/><path class="cls-11" d="M143,264.49l-.05,0-4.07-2.34a2.83,2.83,0,0,1-.91-2.46V240.74a7.42,7.42,0,0,1,.65-3l4.06,2.34a7.42,7.42,0,0,0-.65,3V262C142,263.29,142.39,264.19,143,264.49Z"/><path class="cls-9" d="M125.84,204.81a1,1,0,0,0-1.08.06L105.43,216c-1.11.64-2,2.76-2,4.72v18.93a2.8,2.8,0,0,0,.91,2.46c.31.19,3.51,2,4.06,2.34a1.05,1.05,0,0,0,1.09-.05l19.34-11.17c1.1-.64,2-2.76,2-4.73V209.61a2.75,2.75,0,0,0-.94-2.47C129.58,207,126.4,205.12,125.84,204.81Z"/><path class="cls-10" d="M129.87,207.13a1.06,1.06,0,0,0-1.05.08l-19.33,11.17a3.67,3.67,0,0,0-1.36,1.74l-4.06-2.34a3.75,3.75,0,0,1,1.36-1.73l19.33-11.17a1.06,1.06,0,0,1,1.08-.07C126.39,205.12,129.47,206.91,129.87,207.13Z"/><path class="cls-11" d="M108.45,244.52l0,0-4.07-2.34a2.83,2.83,0,0,1-.91-2.46V220.77a7.42,7.42,0,0,1,.65-3l4.06,2.34a7.42,7.42,0,0,0-.65,3V242C107.49,243.32,107.87,244.22,108.45,244.52Z"/><path class="cls-9" d="M194.89,165a1,1,0,0,0-1.08.06l-19.34,11.17c-1.1.64-2,2.75-2,4.72v18.93a2.8,2.8,0,0,0,.91,2.46l4.06,2.34a1,1,0,0,0,1.1-.06l19.33-11.17c1.11-.64,2-2.75,2-4.72V169.75a2.78,2.78,0,0,0-.93-2.48C198.63,167.11,195.44,165.26,194.89,165Z"/><path class="cls-10" d="M198.92,167.26a1.06,1.06,0,0,0-1,.08l-19.33,11.17a3.67,3.67,0,0,0-1.36,1.74l-4.06-2.34a3.75,3.75,0,0,1,1.36-1.73L193.81,165a1.06,1.06,0,0,1,1.08-.07C195.44,165.25,198.52,167,198.92,167.26Z"/><path class="cls-11" d="M177.5,204.65l-.05,0-4.07-2.34a2.83,2.83,0,0,1-.91-2.46V180.9a7.42,7.42,0,0,1,.65-3l4.06,2.34a7.42,7.42,0,0,0-.65,3v18.92C176.54,203.45,176.92,204.35,177.5,204.65Z"/><path class="cls-9" d="M160.37,184.88a1.05,1.05,0,0,0-1.09.06L140,196.11c-1.11.64-2,2.75-2,4.72v18.93a2.8,2.8,0,0,0,.91,2.46c.31.19,3.51,2,4.06,2.34a1,1,0,0,0,1.1-.06l19.33-11.16c1.11-.64,2-2.76,2-4.73V189.68c0-1.27-.37-2.17-.94-2.47Z"/><path class="cls-10" d="M164.39,187.19a1.06,1.06,0,0,0-1,.08L144,198.44a3.67,3.67,0,0,0-1.36,1.74l-4.06-2.34a3.75,3.75,0,0,1,1.36-1.73l19.33-11.17a1.06,1.06,0,0,1,1.08-.07C160.91,185.18,164,187,164.39,187.19Z"/><path class="cls-11" d="M143,224.58l-.05,0-4.07-2.34a2.83,2.83,0,0,1-.91-2.46V200.83a7.42,7.42,0,0,1,.65-3l4.06,2.34a7.42,7.42,0,0,0-.65,3v18.92C142,223.38,142.39,224.28,143,224.58Z"/><path class="cls-12" d="M117.36,232.49a1.31,1.31,0,0,1,0-.23l2.43-10.13-3.35,1.93a.16.16,0,0,1-.21,0,.38.38,0,0,1-.09-.28v-1.84a.92.92,0,0,1,.09-.38.57.57,0,0,1,.21-.26l5.38-3.1a.15.15,0,0,1,.21,0,.38.38,0,0,1,.09.28v1.61a5,5,0,0,1-.18,1l-2.44,10.15a2.53,2.53,0,0,1-.12.36.58.58,0,0,1-.21.25l-1.57.91a.15.15,0,0,1-.19,0A.29.29,0,0,1,117.36,232.49Z"/><path class="cls-12" d="M150.52,205.27a5.88,5.88,0,0,1,.25-1.7,7.58,7.58,0,0,1,.69-1.6,7.17,7.17,0,0,1,1-1.36,5.48,5.48,0,0,1,1.21-1,3,3,0,0,1,1.22-.42,1.59,1.59,0,0,1,1,.2,1.67,1.67,0,0,1,.69.8,3.39,3.39,0,0,1,.25,1.41,5.68,5.68,0,0,1-.16,1.36,6.15,6.15,0,0,1-.45,1.31,1.84,1.84,0,0,1,.57.79,3.41,3.41,0,0,1,.21,1.29,5.9,5.9,0,0,1-.26,1.7,7.24,7.24,0,0,1-.71,1.61,7.57,7.57,0,0,1-1,1.39,6,6,0,0,1-1.31,1,3.47,3.47,0,0,1-1.3.48,1.75,1.75,0,0,1-1.06-.17,1.67,1.67,0,0,1-.71-.79,3.36,3.36,0,0,1-.26-1.4,6.06,6.06,0,0,1,.2-1.53,7.44,7.44,0,0,1,.57-1.44,2.05,2.05,0,0,1-.44-.8A3.74,3.74,0,0,1,150.52,205.27Zm1.91,3.78a.69.69,0,0,0,.31.66c.21.11.52,0,.94-.2a2.61,2.61,0,0,0,.94-.89,1.91,1.91,0,0,0,.31-1,.68.68,0,0,0-.31-.67c-.21-.1-.52,0-.94.21a2.59,2.59,0,0,0-.94.88A2,2,0,0,0,152.43,209.05Zm.17-5a.74.74,0,0,0,.29.68c.19.11.45.07.79-.12a2.09,2.09,0,0,0,.79-.8,2,2,0,0,0,.29-1,.73.73,0,0,0-.29-.67c-.19-.11-.45-.07-.79.12a2.09,2.09,0,0,0-.79.8A2,2,0,0,0,152.6,204Z"/><path class="cls-12" d="M184.91,186a7.31,7.31,0,0,1,.27-2,8.55,8.55,0,0,1,.74-1.78,7.59,7.59,0,0,1,1.06-1.46,5.21,5.21,0,0,1,1.22-1,3,3,0,0,1,1.23-.42,1.72,1.72,0,0,1,1.06.24,1.93,1.93,0,0,1,.73.94,4.11,4.11,0,0,1,.28,1.65,6.24,6.24,0,0,1-.07,1c-.05.31-.12.61-.19.9s-.17.58-.27.87-.19.55-.29.81l-2.14,5.79a2.85,2.85,0,0,0-.12.29.53.53,0,0,1-.23.26l-1.79,1a.1.1,0,0,1-.16,0,.35.35,0,0,1-.06-.23.68.68,0,0,1,0-.15.49.49,0,0,1,0-.11l1.44-3.94a2.34,2.34,0,0,1-1.06.14,1.54,1.54,0,0,1-.88-.37,2.25,2.25,0,0,1-.61-.92A4.36,4.36,0,0,1,184.91,186Zm4.51-2.6a1.44,1.44,0,0,0-.1-.58.67.67,0,0,0-.27-.32.63.63,0,0,0-.39-.09,1.08,1.08,0,0,0-.46.15,2.1,2.1,0,0,0-.45.37,2.66,2.66,0,0,0-.39.54,3.32,3.32,0,0,0-.27.64,2.35,2.35,0,0,0-.1.69,1.35,1.35,0,0,0,.1.57.66.66,0,0,0,.27.33.63.63,0,0,0,.39.09,1,1,0,0,0,.45-.15,1.92,1.92,0,0,0,.46-.37,2.66,2.66,0,0,0,.39-.54,3.32,3.32,0,0,0,.27-.64A2.35,2.35,0,0,0,189.42,183.4Z"/><path class="cls-12" d="M119.71,271.45a.15.15,0,0,1-.21,0,.34.34,0,0,1-.1-.28V269.4l-3.54,2a.16.16,0,0,1-.21,0,.38.38,0,0,1-.09-.28v-1.84a2.49,2.49,0,0,1,.14-.83l3.37-8.47a3,3,0,0,1,.18-.36,1.11,1.11,0,0,1,.23-.19l1.7-1a.18.18,0,0,1,.22,0,.38.38,0,0,1,.09.28v6.65l1-.56a.18.18,0,0,1,.22,0,.38.38,0,0,1,.09.28V267a.85.85,0,0,1-.09.38.56.56,0,0,1-.22.27l-1,.55V270a.85.85,0,0,1-.09.38.49.49,0,0,1-.22.26Zm-.25-4.86V263.4l-1.64,4.14Z"/><path class="cls-12" d="M152.49,248.84l.18.23a.68.68,0,0,0,.23.18.67.67,0,0,0,.33.07,1.17,1.17,0,0,0,.45-.16,2,2,0,0,0,.44-.36,2.47,2.47,0,0,0,.39-.5,2.62,2.62,0,0,0,.26-.62,2.37,2.37,0,0,0,.1-.72.87.87,0,0,0-.3-.78c-.2-.14-.47-.11-.82.09a1.33,1.33,0,0,0-.29.25,3.4,3.4,0,0,0-.26.29l-.22.28a.76.76,0,0,1-.17.16l-1.76,1a.18.18,0,0,1-.22,0,.36.36,0,0,1-.08-.29l.34-6.38a1.05,1.05,0,0,1,.09-.38.63.63,0,0,1,.21-.26l4.82-2.78a.15.15,0,0,1,.21,0,.37.37,0,0,1,.09.27v1.84a.88.88,0,0,1-.09.38.52.52,0,0,1-.21.26l-3.28,1.89-.08,1.59a4.81,4.81,0,0,1,.47-.56,3.06,3.06,0,0,1,.58-.44,2.93,2.93,0,0,1,1.21-.42,1.46,1.46,0,0,1,1,.24,1.84,1.84,0,0,1,.64.91,4.82,4.82,0,0,1,.23,1.61,8,8,0,0,1-.25,2,8.12,8.12,0,0,1-.7,1.74,6.58,6.58,0,0,1-1,1.42,5.74,5.74,0,0,1-1.28,1,3.26,3.26,0,0,1-1.37.49,1.62,1.62,0,0,1-1-.23,1.7,1.7,0,0,1-.64-.81,3.34,3.34,0,0,1-.24-1.24.75.75,0,0,1,.08-.31.41.41,0,0,1,.17-.21l1.43-.83a.29.29,0,0,1,.27,0A.24.24,0,0,1,152.49,248.84Z"/><path class="cls-12" d="M191.56,225.71a7.28,7.28,0,0,1-.27,2,7.83,7.83,0,0,1-.73,1.78,7.67,7.67,0,0,1-1.07,1.48,5.32,5.32,0,0,1-1.28,1,3.06,3.06,0,0,1-1.28.44,1.77,1.77,0,0,1-1.08-.24,1.9,1.9,0,0,1-.73-.93,4.38,4.38,0,0,1-.27-1.67,5.73,5.73,0,0,1,.08-1c.06-.33.13-.64.21-.94s.17-.59.27-.87.19-.54.28-.79l2.15-5.7A2.85,2.85,0,0,0,188,220a.53.53,0,0,1,.23-.26l1.79-1a.11.11,0,0,1,.16,0,.4.4,0,0,1,.06.24.59.59,0,0,1,0,.14.28.28,0,0,1,0,.11l-1.46,3.9a2.61,2.61,0,0,1,1.12-.21,1.59,1.59,0,0,1,.92.36,2.06,2.06,0,0,1,.62.94A4.56,4.56,0,0,1,191.56,225.71Zm-4.63,2.68a1.36,1.36,0,0,0,.11.61.65.65,0,0,0,.29.32.7.7,0,0,0,.41.07,1.28,1.28,0,0,0,.47-.17,2.17,2.17,0,0,0,.47-.37,3.15,3.15,0,0,0,.4-.54,3.29,3.29,0,0,0,.29-.66,2.6,2.6,0,0,0,.11-.74,1.48,1.48,0,0,0-.11-.61.79.79,0,0,0-.29-.33.67.67,0,0,0-.4-.07,1.28,1.28,0,0,0-.47.17,2.17,2.17,0,0,0-.47.37,3.2,3.2,0,0,0-.41.54,3.23,3.23,0,0,0-.29.66A2.39,2.39,0,0,0,186.93,228.39Z"/><path class="cls-12" d="M116.85,304.79a.48.48,0,0,1-.06-.31,1.06,1.06,0,0,1,.13-.39l2.41-4.25.22-.37a.89.89,0,0,1,.3-.31l1.38-.79a.15.15,0,0,1,.21,0,.38.38,0,0,1,.09.28v11.19a.92.92,0,0,1-.09.38.57.57,0,0,1-.21.26l-1.48.85a.16.16,0,0,1-.21,0,.38.38,0,0,1-.09-.28v-7.57l-1.34,2.33a.46.46,0,0,1-.23.23.15.15,0,0,1-.2-.07Z"/><path class="cls-12" d="M156.77,281.83a8.39,8.39,0,0,1-.06,1,8.65,8.65,0,0,1-.23,1.05,9.4,9.4,0,0,1-.43,1.12,13.7,13.7,0,0,1-.65,1.24L153.83,289l2.82-1.63a.15.15,0,0,1,.21,0,.37.37,0,0,1,.09.27v1.84a.85.85,0,0,1-.09.38.52.52,0,0,1-.21.26l-5.94,3.43a.15.15,0,0,1-.21,0,.38.38,0,0,1-.09-.28v-1.49a2.55,2.55,0,0,1,.07-.59,2.07,2.07,0,0,1,.25-.62l3.37-5.65a4.43,4.43,0,0,0,.49-1.11,3.19,3.19,0,0,0,.1-.77c0-.08,0-.19,0-.32a1,1,0,0,0-.13-.36.47.47,0,0,0-.29-.21.73.73,0,0,0-.5.13,1.62,1.62,0,0,0-.51.46,2.81,2.81,0,0,0-.31.55,2.74,2.74,0,0,0-.15.52c0,.16-.06.28-.08.36a1,1,0,0,1-.17.42.92.92,0,0,1-.28.24l-1.38.8a.14.14,0,0,1-.18,0,.32.32,0,0,1-.07-.22,8.33,8.33,0,0,1,.2-1.57,8,8,0,0,1,.58-1.64,7.32,7.32,0,0,1,1-1.51,5.06,5.06,0,0,1,1.37-1.15,2.52,2.52,0,0,1,1.31-.42,1.42,1.42,0,0,1,.95.35,2.15,2.15,0,0,1,.58,1A4.69,4.69,0,0,1,156.77,281.83Z"/><path class="cls-12" d="M190.86,258.07a.18.18,0,0,1,.22,0,.38.38,0,0,1,.09.28v1.83a1.09,1.09,0,0,1-.08.39,3.05,3.05,0,0,1-.15.35l-1.36,2.9a1.56,1.56,0,0,1,1.43.34,2.48,2.48,0,0,1,.55,1.86,6.48,6.48,0,0,1-3.33,5.85,3.73,3.73,0,0,1-1.43.53,1.68,1.68,0,0,1-1.05-.17,1.54,1.54,0,0,1-.66-.72,2.45,2.45,0,0,1-.24-1.11.67.67,0,0,1,.07-.31.51.51,0,0,1,.17-.22l1.42-.82c.16-.09.28-.1.36,0l.28.2a.75.75,0,0,0,.39.12,1.27,1.27,0,0,0,.69-.23,3,3,0,0,0,.9-.79,1.86,1.86,0,0,0,.35-1.09c0-.41-.12-.63-.35-.68a1.33,1.33,0,0,0-.9.24l-.93.54a.17.17,0,0,1-.22,0,.37.37,0,0,1-.09-.27v-1.49a1.19,1.19,0,0,1,.08-.4l.16-.36,1.19-2.55-2.93,1.7a.17.17,0,0,1-.22,0,.35.35,0,0,1-.09-.27v-1.84a.88.88,0,0,1,.09-.38.53.53,0,0,1,.22-.26Z"/><path class="cls-12" d="M153.68,319.37a2.72,2.72,0,0,1,1.45-.46,1.47,1.47,0,0,1,1,.44,2.72,2.72,0,0,1,.6,1.15,8.21,8.21,0,0,1,.23,1.66c0,.49,0,1,0,1.55s0,1.05,0,1.54a12.88,12.88,0,0,1-.23,1.92,9.22,9.22,0,0,1-.6,1.84,7,7,0,0,1-1,1.61,5.35,5.35,0,0,1-1.45,1.22,2.78,2.78,0,0,1-1.45.45,1.43,1.43,0,0,1-1-.44,2.6,2.6,0,0,1-.59-1.15,7,7,0,0,1-.23-1.66c0-.47,0-1,0-1.51s0-1.07,0-1.57a10.7,10.7,0,0,1,.23-1.93,8.6,8.6,0,0,1,.59-1.84,7.27,7.27,0,0,1,1-1.61A5.32,5.32,0,0,1,153.68,319.37Zm1.2,7q0-1.5,0-2.91a5.23,5.23,0,0,0-.08-.75,1.31,1.31,0,0,0-.2-.52.52.52,0,0,0-.36-.21,1,1,0,0,0-.56.17,2,2,0,0,0-.56.48,2.45,2.45,0,0,0-.36.63,3.44,3.44,0,0,0-.2.75,4.6,4.6,0,0,0-.08.84q-.06,1.47,0,2.91a4.19,4.19,0,0,0,.07.76,1.26,1.26,0,0,0,.2.51.49.49,0,0,0,.37.21.91.91,0,0,0,.56-.16,1.87,1.87,0,0,0,.56-.48,2.73,2.73,0,0,0,.37-.64,3.44,3.44,0,0,0,.2-.75A5.71,5.71,0,0,0,154.88,326.36Z"/><path class="cls-13" d="M114.38,191.65a.7.7,0,0,1-.16-.19l-1-2.25v5.73a.85.85,0,0,1-.09.38.56.56,0,0,1-.22.27l-1.47.85a.17.17,0,0,1-.21,0,.38.38,0,0,1-.09-.28V185a.92.92,0,0,1,.09-.38.63.63,0,0,1,.21-.26l1.3-.75c.15-.09.27-.09.34,0a.84.84,0,0,1,.15.2l1.82,3.74,1.82-5.85c0-.07.07-.19.15-.36a.75.75,0,0,1,.34-.38l1.3-.76a.17.17,0,0,1,.22,0,.35.35,0,0,1,.09.27v11.19a.85.85,0,0,1-.09.38.62.62,0,0,1-.22.27l-1.47.85a.18.18,0,0,1-.22,0,.38.38,0,0,1-.09-.28v-5.73l-1,3.47c0,.11-.09.24-.15.37a.67.67,0,0,1-.27.3l-.72.42C114.53,191.71,114.44,191.72,114.38,191.65Z"/><path class="cls-13" d="M122.3,182.62c0,.15,0,.36,0,.63s0,.55,0,.83,0,.56,0,.83,0,.47,0,.62a4.53,4.53,0,0,0,.1.7,1.23,1.23,0,0,0,.25.5.57.57,0,0,0,.43.19,1.11,1.11,0,0,0,.64-.2,3,3,0,0,0,.63-.5,3.3,3.3,0,0,0,.4-.57,3,3,0,0,0,.25-.59c0-.19.1-.36.13-.52a1.57,1.57,0,0,1,.12-.46.54.54,0,0,1,.26-.26L127,183a.15.15,0,0,1,.18,0,.32.32,0,0,1,.07.22A7,7,0,0,1,127,185a8.68,8.68,0,0,1-.74,1.78,9.09,9.09,0,0,1-1.11,1.55,6,6,0,0,1-1.38,1.13,2.86,2.86,0,0,1-1.45.46,1.64,1.64,0,0,1-1.08-.38,2.42,2.42,0,0,1-.69-1.1,5.8,5.8,0,0,1-.28-1.65c0-.47,0-1,0-1.51s0-1.07,0-1.58a9.62,9.62,0,0,1,.27-2,10,10,0,0,1,.69-1.9,7.93,7.93,0,0,1,1.09-1.64,5.53,5.53,0,0,1,1.45-1.21,3,3,0,0,1,1.38-.46,1.88,1.88,0,0,1,1.11.27,2,2,0,0,1,.74.92,4,4,0,0,1,.28,1.5.82.82,0,0,1-.07.31.46.46,0,0,1-.18.22l-1.47.85c-.13.07-.22.09-.26,0a.66.66,0,0,1-.12-.32A3.43,3.43,0,0,0,125,180a.68.68,0,0,0-.25-.3.63.63,0,0,0-.4-.1,1.29,1.29,0,0,0-.63.22,2.27,2.27,0,0,0-.64.54,3,3,0,0,0-.43.68,4.27,4.27,0,0,0-.25.79A7.35,7.35,0,0,0,122.3,182.62Z"/><path class="cls-13" d="M149,171.69a1,1,0,0,1-.15-.2l-1.06-2.25V175a.92.92,0,0,1-.09.39.63.63,0,0,1-.21.26l-1.48.85a.15.15,0,0,1-.21,0,.35.35,0,0,1-.09-.27V165a.85.85,0,0,1,.09-.38.61.61,0,0,1,.21-.27l1.31-.75c.15-.09.26-.09.34,0a.81.81,0,0,1,.14.19l1.83,3.74,1.82-5.85c0-.07.07-.19.14-.36a.79.79,0,0,1,.34-.38l1.31-.76a.17.17,0,0,1,.21,0,.38.38,0,0,1,.09.28v11.19a.92.92,0,0,1-.09.38.63.63,0,0,1-.21.26l-1.48.85a.15.15,0,0,1-.21,0,.35.35,0,0,1-.09-.27v-5.74l-1.06,3.47c0,.12-.09.24-.15.38a.7.7,0,0,1-.26.3l-.72.41C149.11,171.75,149,171.75,149,171.69Z"/><path class="cls-13" d="M158.43,157.15a4,4,0,0,1,1.33-.52,1.46,1.46,0,0,1,1,.15,1.54,1.54,0,0,1,.63.88,4.93,4.93,0,0,1,.22,1.63,7.64,7.64,0,0,1-.35,2.36,6.14,6.14,0,0,1-1,1.88l1.4,3.31a.55.55,0,0,1,0,.17.67.67,0,0,1-.07.31.46.46,0,0,1-.18.22l-1.53.88c-.15.09-.25.1-.32,0a1.07,1.07,0,0,1-.15-.22l-1.25-3-1,.6v3.7a.92.92,0,0,1-.09.39.58.58,0,0,1-.22.26l-1.47.85a.15.15,0,0,1-.21,0,.35.35,0,0,1-.09-.27V159.56a.85.85,0,0,1,.09-.38.61.61,0,0,1,.21-.27Zm-1.27,6,1.27-.74a2.36,2.36,0,0,0,.78-.73,2,2,0,0,0,.31-1.18c0-.48-.1-.76-.31-.83a1,1,0,0,0-.78.18l-1.27.73Z"/><path class="cls-13" d="M184.8,151a.9.9,0,0,1-.15-.19l-1.06-2.25v5.73a.85.85,0,0,1-.09.38.61.61,0,0,1-.21.27l-1.48.85a.17.17,0,0,1-.21,0,.38.38,0,0,1-.09-.28V144.29a.92.92,0,0,1,.09-.38.63.63,0,0,1,.21-.26l1.31-.75c.15-.09.26-.09.34,0a1.07,1.07,0,0,1,.14.2l1.82,3.74,1.83-5.85c0-.07.07-.19.14-.36a.79.79,0,0,1,.34-.38l1.31-.76a.15.15,0,0,1,.21,0,.37.37,0,0,1,.09.27V151a.85.85,0,0,1-.09.38.61.61,0,0,1-.21.27l-1.48.85a.15.15,0,0,1-.21,0,.37.37,0,0,1-.09-.27v-5.74l-1.06,3.47c0,.11-.09.24-.15.37a.6.6,0,0,1-.26.3l-.72.42C185,151.05,184.86,151.06,184.8,151Z"/><path class="cls-13" d="M191.05,146.58a.16.16,0,0,1-.21,0,.38.38,0,0,1-.09-.28v-1.75a.88.88,0,0,1,.09-.38.52.52,0,0,1,.21-.26l3.54-2.05a.17.17,0,0,1,.22,0,.35.35,0,0,1,.09.27v1.75a.85.85,0,0,1-.09.38.56.56,0,0,1-.22.27Z"/><path class="cls-13" d="M218.46,131.56a.48.48,0,0,1-.15-.2l-1.06-2.24v5.73a.88.88,0,0,1-.09.38.49.49,0,0,1-.22.26l-1.47.85a.15.15,0,0,1-.21,0,.38.38,0,0,1-.09-.28V124.86a.92.92,0,0,1,.09-.38.63.63,0,0,1,.21-.26l1.31-.75c.15-.09.26-.09.33,0a1.15,1.15,0,0,1,.15.19l1.82,3.75,1.82-5.85.15-.36a.87.87,0,0,1,.34-.39l1.3-.75a.17.17,0,0,1,.22,0,.35.35,0,0,1,.09.27v11.19a.85.85,0,0,1-.09.38.49.49,0,0,1-.22.26l-1.47.86a.17.17,0,0,1-.21,0,.38.38,0,0,1-.09-.28V127l-1.06,3.47c0,.11-.09.24-.15.37a.61.61,0,0,1-.27.3l-.72.42C218.61,131.62,218.52,131.62,218.46,131.56Z"/><path class="cls-13" d="M228.25,125.1V128a.85.85,0,0,1-.09.38.52.52,0,0,1-.21.26l-1.42.82a.15.15,0,0,1-.21,0,.38.38,0,0,1-.09-.28v-2.86l-1.75,1a.15.15,0,0,1-.21,0,.35.35,0,0,1-.09-.27v-1.75a.85.85,0,0,1,.09-.38.61.61,0,0,1,.21-.27l1.75-1v-2.86a.88.88,0,0,1,.09-.38.57.57,0,0,1,.21-.26l1.42-.82a.16.16,0,0,1,.21,0,.38.38,0,0,1,.09.28v2.86l1.73-1a.18.18,0,0,1,.22,0,.38.38,0,0,1,.09.28v1.75a.88.88,0,0,1-.09.38.49.49,0,0,1-.22.26Z"/><path class="cls-13" d="M219.38,169.17a.15.15,0,0,1-.21,0,.38.38,0,0,1-.09-.28v-1.75a.88.88,0,0,1,.09-.38.57.57,0,0,1,.21-.26l6.69-3.87a.18.18,0,0,1,.22,0,.38.38,0,0,1,.09.28v1.74a.92.92,0,0,1-.09.39.58.58,0,0,1-.22.26Z"/><path class="cls-13" d="M223.84,160.43a3,3,0,0,1-1.11,2.36c-.62.35-1.12-.13-1.12-1.07a2.92,2.92,0,0,1,1.12-2.36C223.34,159,223.84,159.48,223.84,160.43Z"/><path class="cls-13" d="M223.84,170.29c0-.94-.5-1.42-1.11-1.07a2.94,2.94,0,0,0-1.12,2.36c0,.94.5,1.42,1.12,1.07A3,3,0,0,0,223.84,170.29Z"/><path class="cls-13" d="M221.3,206.75l-1.45-1.42a.35.35,0,0,1-.09-.27.85.85,0,0,1,.09-.38l1-2.12a.61.61,0,0,1,.21-.27.18.18,0,0,1,.22,0l1.45,1.41,1.45-3.07a.57.57,0,0,1,.21-.26.17.17,0,0,1,.22,0l1,1a.38.38,0,0,1,.09.28.92.92,0,0,1-.09.38l-1.45,3.07,1.45,1.38a.38.38,0,0,1,.09.28.92.92,0,0,1-.09.38l-1,2.12a.65.65,0,0,1-.22.26.15.15,0,0,1-.21,0l-1.45-1.38-1.45,3.08a.65.65,0,0,1-.22.26.15.15,0,0,1-.21,0l-1-1a.38.38,0,0,1-.09-.28.88.88,0,0,1,.09-.38Z"/><path class="cls-13" d="M219.38,249.1a.16.16,0,0,1-.21,0,.38.38,0,0,1-.09-.28v-1.75a.88.88,0,0,1,.09-.38.52.52,0,0,1,.21-.26l6.69-3.87a.17.17,0,0,1,.22,0,.35.35,0,0,1,.09.27v1.75a.85.85,0,0,1-.09.38.56.56,0,0,1-.22.27Z"/><path class="cls-13" d="M116.34,341.1c.15-.09.26-.09.34,0a.66.66,0,0,1,.17.29l2.45,9.49a.85.85,0,0,1,0,.24.73.73,0,0,1-.07.31.54.54,0,0,1-.17.21l-1.42.82c-.15.09-.26.1-.32,0a.35.35,0,0,1-.12-.22l-.32-1.26-3,1.73-.31,1.62a1.62,1.62,0,0,1-.12.35.75.75,0,0,1-.32.34l-1.42.82a.13.13,0,0,1-.17,0,.28.28,0,0,1-.08-.22,1.58,1.58,0,0,1,0-.29L114,343a2.91,2.91,0,0,1,.16-.47.89.89,0,0,1,.35-.39Zm-1.82,8.62,1.82-1.05-.91-3.63Z"/><path class="cls-13" d="M121.87,342.51c0,.15,0,.37,0,.63s0,.55,0,.83,0,.56,0,.83,0,.47,0,.62a3.54,3.54,0,0,0,.11.7,1.11,1.11,0,0,0,.24.5.64.64,0,0,0,.43.2,1.19,1.19,0,0,0,.64-.21,2.32,2.32,0,0,0,.63-.5,3.38,3.38,0,0,0,.41-.57,3.66,3.66,0,0,0,.24-.59,4.38,4.38,0,0,0,.13-.52,2.64,2.64,0,0,1,.12-.46.59.59,0,0,1,.26-.26l1.47-.85a.14.14,0,0,1,.18,0,.28.28,0,0,1,.07.22,7,7,0,0,1-.28,1.83,8.68,8.68,0,0,1-.74,1.78,9.09,9.09,0,0,1-1.11,1.55,5.4,5.4,0,0,1-1.38,1.13,2.86,2.86,0,0,1-1.44.46,1.64,1.64,0,0,1-1.09-.38,2.42,2.42,0,0,1-.69-1.1,6.17,6.17,0,0,1-.28-1.65c0-.47,0-1,0-1.51s0-1.07,0-1.58a9.72,9.72,0,0,1,.27-2,9.38,9.38,0,0,1,.7-1.9,7.51,7.51,0,0,1,1.08-1.64,5.74,5.74,0,0,1,1.45-1.21,3.08,3.08,0,0,1,1.38-.46,1.88,1.88,0,0,1,1.11.27,2,2,0,0,1,.74.92,4,4,0,0,1,.28,1.5.74.74,0,0,1-.07.32.48.48,0,0,1-.18.21l-1.47.85c-.13.07-.21.09-.26,0a1,1,0,0,1-.12-.32,2.14,2.14,0,0,0-.13-.38.73.73,0,0,0-.24-.3.66.66,0,0,0-.41-.1,1.35,1.35,0,0,0-.63.22,2.42,2.42,0,0,0-.64.54,3.48,3.48,0,0,0-.43.69,3.37,3.37,0,0,0-.24.78A5.76,5.76,0,0,0,121.87,342.51Z"/><path class="cls-13" d="M185,306.73a.18.18,0,0,1-.22,0,.38.38,0,0,1-.09-.28v-1.75a.92.92,0,0,1,.09-.38A.65.65,0,0,1,185,304l6.39-3.69a.15.15,0,0,1,.21,0,.35.35,0,0,1,.09.27v1.75a.85.85,0,0,1-.09.38.61.61,0,0,1-.21.27Zm0,4.26a.18.18,0,0,1-.22,0,.38.38,0,0,1-.09-.28V309a.92.92,0,0,1,.09-.39.65.65,0,0,1,.22-.26l6.39-3.69a.15.15,0,0,1,.21,0,.35.35,0,0,1,.09.27v1.75a.85.85,0,0,1-.09.38.61.61,0,0,1-.21.27Z"/><path class="cls-13" d="M223.75,286.49v2.86a.88.88,0,0,1-.09.38.58.58,0,0,1-.22.26l-1.42.82a.16.16,0,0,1-.21,0,.38.38,0,0,1-.09-.28v-2.86l-1.74,1a.18.18,0,0,1-.22,0,.38.38,0,0,1-.09-.28v-1.75a.92.92,0,0,1,.09-.38A.58.58,0,0,1,220,286l1.74-1v-2.86a.85.85,0,0,1,.09-.38.61.61,0,0,1,.21-.27l1.42-.81a.17.17,0,0,1,.22,0,.38.38,0,0,1,.09.28v2.86l1.73-1a.15.15,0,0,1,.21,0,.38.38,0,0,1,.09.28v1.75a.88.88,0,0,1-.09.38.57.57,0,0,1-.21.26Z"/><path class="cls-14" d="M93.8,94.3a17.7,17.7,0,0,0-2.57,8.59V374.07c0,2.69.92,4.6,2.41,5.54-1.78-1.07-14.58-8.47-16.13-9.36S75,367.4,75,364.64V93.46a17.69,17.69,0,0,1,2.54-8.55Z"/><path class="cls-12" d="M237.64,11.32l.09.06c-1.57-1-3.78-.88-6.24.54l-131.6,76A17.59,17.59,0,0,0,93.8,94.3L77.53,84.91a17.71,17.71,0,0,1,6.12-6.45l131.6-76c2.36-1.37,4.5-1.51,6.06-.65S236.07,10.4,237.64,11.32Z"/><path class="cls-12" d="M227.34,88.85h0a4.51,4.51,0,0,1-1.54,1.61L105.59,159.88c-1.2.69-2.17.13-2.17-1.25V102.38a4.8,4.8,0,0,1,2.16-3.75l69.3-40Z"/><path class="cls-14" d="M228,30.47V86.72a4.43,4.43,0,0,1-.63,2.13L174.88,58.64l49-28.33,1.89-1.09C227,28.53,228,29.09,228,30.47Z"/><path class="cls-3" d="M223.91,30.31V84.38a4.78,4.78,0,0,1-2.17,3.75l-118.32,68.3V102.38a4.8,4.8,0,0,1,2.16-3.75Z"/><path class="cls-7" d="M223.91,30.31V84.38a4.78,4.78,0,0,1-2.17,3.75l-118.32,68.3V102.38a4.8,4.8,0,0,1,2.16-3.75Z"/><g class="cls-15"><path d="M125.69,128.25l-4.22,2.44a2.28,2.28,0,0,1-3-.18,5.18,5.18,0,0,1-1.24-3.88,3,3,0,0,1,.31-1.32,2,2,0,0,1,.75-.92.57.57,0,0,1,.75,0,1.36,1.36,0,0,1,.3,1,2.61,2.61,0,0,0,.62,1.94,1.13,1.13,0,0,0,1.49.09l4.22-2.43a4.08,4.08,0,0,0,1.5-1.82,6.1,6.1,0,0,0,.63-2.66v-4.14a6.69,6.69,0,0,1-2.13,2.12l-4.22,2.43a2.26,2.26,0,0,1-3-.18,5.16,5.16,0,0,1-1.24-3.88v-3.24a12.21,12.21,0,0,1,1.24-5.31,7.91,7.91,0,0,1,3-3.63l4.22-2.43a2.29,2.29,0,0,1,3,.17,5.22,5.22,0,0,1,1.24,3.88v13a12.42,12.42,0,0,1-1.24,5.31A7.87,7.87,0,0,1,125.69,128.25Zm2.13-20.71a2.59,2.59,0,0,0-.62-1.94,1.14,1.14,0,0,0-1.51-.08L121.47,108a4,4,0,0,0-1.49,1.81,6.23,6.23,0,0,0-.62,2.66v3.25a2.63,2.63,0,0,0,.62,1.94,1.15,1.15,0,0,0,1.49.09l4.22-2.44a4,4,0,0,0,1.5-1.82,6.07,6.07,0,0,0,.63-2.66Z"/><path d="M136.24,105.11a.66.66,0,0,0,.15.48.3.3,0,0,0,.38,0l5.8-3.35a2.28,2.28,0,0,1,3,.18,5.16,5.16,0,0,1,1.24,3.88v3.25a12.2,12.2,0,0,1-1.24,5.3,7.86,7.86,0,0,1-3,3.63l-4.22,2.43a2.27,2.27,0,0,1-3-.18,5.2,5.2,0,0,1-1.23-3.88,3,3,0,0,1,.31-1.33,2,2,0,0,1,.75-.9.56.56,0,0,1,.74,0,1.28,1.28,0,0,1,.31,1,2.58,2.58,0,0,0,.62,1.94,1.15,1.15,0,0,0,1.49.09l4.22-2.44a4,4,0,0,0,1.49-1.81,6.2,6.2,0,0,0,.62-2.66v-3.24a2.59,2.59,0,0,0-.62-1.94,1.13,1.13,0,0,0-1.49-.09l-6.33,3.65a1.13,1.13,0,0,1-1.49-.09,2.61,2.61,0,0,1-.62-1.94V99a3.11,3.11,0,0,1,.3-1.33,2,2,0,0,1,.75-.9l10.55-6.09a.57.57,0,0,1,.74,0,1.25,1.25,0,0,1,.32,1,3,3,0,0,1-.32,1.32,2,2,0,0,1-.74.9l-9,5.17a1.06,1.06,0,0,0-.38.46,1.65,1.65,0,0,0-.15.69Z"/><path d="M159.45,108.76l-4.22,2.44a2.29,2.29,0,0,1-3-.18,5.22,5.22,0,0,1-1.23-3.88v-13a12.34,12.34,0,0,1,1.23-5.31,8,8,0,0,1,3-3.63l4.22-2.43a2.28,2.28,0,0,1,3,.18,5.22,5.22,0,0,1,1.24,3.88v13a12.42,12.42,0,0,1-1.24,5.31A7.88,7.88,0,0,1,159.45,108.76Zm-4.22-.81,4.22-2.43a3.45,3.45,0,0,0,1-1l-7.33-11.32v12.71a2.59,2.59,0,0,0,.61,1.94A1.14,1.14,0,0,0,155.23,108ZM159.45,86l-4.22,2.43a3.36,3.36,0,0,0-1,1l7.34,11.32V88.06a2.59,2.59,0,0,0-.62-1.94A1.13,1.13,0,0,0,159.45,86Z"/><path d="M175.25,99.64l-6.33,3.65a.57.57,0,0,1-.74,0,1.24,1.24,0,0,1-.31-1,3.12,3.12,0,0,1,.31-1.34,2.06,2.06,0,0,1,.74-.91L171,98.83V82.58a2.58,2.58,0,0,0-.61-1.93,1.14,1.14,0,0,0-1.46-.12l0,0a.58.58,0,0,1-.75,0,1.33,1.33,0,0,1-.3-1,3.18,3.18,0,0,1,.3-1.33,2,2,0,0,1,.75-.91v0a2.27,2.27,0,0,1,3,.18,5.2,5.2,0,0,1,1.23,3.88V97.61l2.11-1.22a.56.56,0,0,1,.75,0,1.31,1.31,0,0,1,.31,1,3.11,3.11,0,0,1-.31,1.32A2,2,0,0,1,175.25,99.64Z"/><path d="M189,91.71l-4.22,2.44a2.28,2.28,0,0,1-3-.18,5.23,5.23,0,0,1-1.23-3.88v-13a12.33,12.33,0,0,1,1.23-5.3,7.92,7.92,0,0,1,3-3.63L189,65.72a2.29,2.29,0,0,1,3,.18,5.23,5.23,0,0,1,1.23,3.88v13a12.33,12.33,0,0,1-1.23,5.3A7.87,7.87,0,0,1,189,91.71Zm-4.22-.81L189,88.46a3.3,3.3,0,0,0,1-1l-7.34-11.33V88.87a2.61,2.61,0,0,0,.62,1.94A1.15,1.15,0,0,0,184.76,90.9ZM189,69l-4.22,2.44a3.22,3.22,0,0,0-1,1l7.33,11.32V71a2.62,2.62,0,0,0-.61-1.94A1.17,1.17,0,0,0,189,69Z"/><path d="M209.77,79.23a2,2,0,0,1-.75.91.56.56,0,0,1-.74,0,1.28,1.28,0,0,1-.31-1v-9a6.6,6.6,0,0,1-2.11,2.11l-4.22,2.44a2.28,2.28,0,0,1-3-.18,5.24,5.24,0,0,1-1.24-3.88V62.48a3,3,0,0,1,.31-1.32,1.94,1.94,0,0,1,.74-.91.57.57,0,0,1,.75,0,1.27,1.27,0,0,1,.31,1v8.12a2.61,2.61,0,0,0,.62,1.94,1.14,1.14,0,0,0,1.49.09L205.86,69a3.91,3.91,0,0,0,1.49-1.81,6,6,0,0,0,.62-2.65V56.39a3,3,0,0,1,.31-1.32,1.94,1.94,0,0,1,.74-.91.57.57,0,0,1,.75.05,1.27,1.27,0,0,1,.31,1V77.91A3,3,0,0,1,209.77,79.23Z"/></g></g></g><g id="Character"><g id="Character-2" data-name="Character"><path class="cls-16" d="M425.32,319.81l-15,43.64a1.4,1.4,0,0,1-2.66,0l-14.76-44Z"/><path class="cls-14" d="M407.7,363.44a1.4,1.4,0,0,0,2.66,0l2.92-8.52h0a7.78,7.78,0,0,1-8.09-.45l-.65-.45Z"/><path class="cls-3" d="M393.5,124.84v4.27l0,5.15-.53,185.19c3.42,3.91,8.49,5.9,13.64,6.41,7.83.82,15.86-1.75,18.73-6.05l.52-185.08,0-9.85C425.47,131.26,393.22,131.24,393.5,124.84Z"/><path class="cls-7" d="M393.5,124.84v4.27l0,5.15-.53,185.19c3.42,3.91,8.49,5.9,13.64,6.41,7.83.82,15.86-1.75,18.73-6.05l.52-185.08,0-9.85C425.47,131.26,393.22,131.24,393.5,124.84Z"/><path class="cls-1" d="M393.4,141.09v9.54c-.09,2.76,5.8,4.55,12.6,5.17,9,.86,19.65-1.59,19.78-5.25l0-7,0-2.51c-.13,3.66-10.76,6.11-19.78,5.26-6.52-.61-12.22-2.3-12.54-4.88v0A.59.59,0,0,1,393.4,141.09Z"/><path class="cls-3" d="M393.42,143.47c-.23,6.42,32.13,6.34,32.36-.08l0-9.54c-.23,6.42-32.59,6.5-32.35.08Z"/><path class="cls-1" d="M393.5,124.84l0,9.42c-.28,6.3,31,6.49,32.36.47a1.3,1.3,0,0,0,.05-.36l0-9.49C425.47,131.26,393.22,131.24,393.5,124.84Z"/><path class="cls-17" d="M426,84.46v-.4c0-4.6-7.25-8.33-16.18-8.33s-16.18,3.73-16.18,8.33V88.4l-.14,36.44c-.12,2.73,5.7,4.54,12.44,5.19,9,.88,19.7-1.5,19.9-5.15,0,0,0,0,0,0L426,84.72Z"/><ellipse class="cls-18" cx="409.82" cy="84.06" rx="16.18" ry="8.33"/><path class="cls-2" d="M425.82,134.73,426,84.46c-.22,3.94-6.93,7.66-14.25,7.93L411.22,326l-.86,37.44,15-43.64h0Z"/><path class="cls-16" d="M369.27,157.08c6.14-.89,15.28,2.32,20.56,9.74S413.51,192.3,415.52,198c1.47,4.19,2.73,14.69-5.93,11-8.39-3.58-37.24-32.43-37.24-32.43Z"/><path class="cls-16" d="M410.68,191.4l15-14.52,0-14.39s3,1,4.16,5.64,2.66,10,2.07,14-13.08,26-17.9,27.48C408.24,211.43,410.68,191.4,410.68,191.4Z"/><path class="cls-12" d="M355.77,362.18c-.13,2.25-.38,4.28.54,6.73,1.32,3.52,4,5.09,5.58,6.46a26.27,26.27,0,0,1,4.64,5.4,23,23,0,0,0,4.85,5.81c1.5,1.25,5.65,1.28,7.64.4s2.64-1.65,2.46-4.85-9.91-4.09-9.91-4.09Z"/><path class="cls-3" d="M380,372.61c.83.3,1.07,1.87,1.26,5,.15,2.37,1.21,5.82-2,7.38-2.61,1.26-6.83.55-8.66-1.65-2.28-2.75-3.83-5.18-7.07-8.52-2.81-2.89-5.69-3.83-7-9.71-.86-3.78-.28-5.36,2.25-6.5,3.48-1.57,9.1,3.21,11.87,3.92C373,363.15,379.2,372.31,380,372.61Z"/><path class="cls-19" d="M380,372.61c.83.3,1.07,1.87,1.26,5,.15,2.37,1.21,5.82-2,7.38-2.61,1.26-6.83.55-8.66-1.65-2.28-2.75-3.83-5.18-7.07-8.52-2.81-2.89-5.69-3.83-7-9.71-.86-3.78-.28-5.36,2.25-6.5,3.48-1.57,9.1,3.21,11.87,3.92C373,363.15,379.2,372.31,380,372.61Z"/><path class="cls-13" d="M370.62,362.53a3.72,3.72,0,0,1-.48-.15,9.05,9.05,0,0,0-7.5,5.14c-.44,1,1,1.82,1.86,1,1.88-3.94,5.89-4.89,7.49-5.11A4.1,4.1,0,0,0,370.62,362.53Z"/><path class="cls-13" d="M372.92,364.28a9,9,0,0,0-7,5.08c-.45,1,1,1.82,1.85,1a9.25,9.25,0,0,1,6.24-4.86C373.67,365.06,373.29,364.65,372.92,364.28Z"/><path class="cls-12" d="M312.61,411.56c-.48,2.66.51,4,4,5.94s8.86,2.48,14.49.72,8.28-4.28,10.62-4.92,8.16-.8,10.47-1.53,2.25-1.92,2.18-4.71Z"/><path class="cls-3" d="M351.81,393.64a64.51,64.51,0,0,1,1.82,6.23c.52,2.32,1.28,6.2.5,8s-3.94,3-8.87,3c-3.19,0-8.12,2.31-11.48,4.28s-7.3,2.11-11,1.75c-4.4-.42-9-2.88-9.74-4.68s-.95-3.16,9.29-7.77c.09,0,11.9-4.66,16.79-10.28Z"/><g class="cls-20"><path d="M351.81,393.64a64.51,64.51,0,0,1,1.82,6.23c.52,2.32,1.28,6.2.5,8s-3.94,3-8.87,3c-3.19,0-8.12,2.31-11.48,4.28s-7.3,2.11-11,1.75c-4.4-.42-9-2.88-9.74-4.68s-.95-3.16,9.29-7.77c.09,0,11.9-4.66,16.79-10.28Z"/></g><path class="cls-13" d="M332.38,415.83s-1.06-8.85-8.32-11.24c-6.57-2.16-12.16,2.78-11.45,7C313.1,414.37,321.16,420.63,332.38,415.83Z"/><path class="cls-13" d="M325.85,402.89a8.36,8.36,0,0,1,5,2.09c2.12,1.71,2.2,2.87,2.2,2.87a1.09,1.09,0,0,0,1.86-.94s-.57-4.46-6.48-5.26A2.39,2.39,0,0,0,325.85,402.89Z"/><path class="cls-13" d="M329.93,400.83a7.42,7.42,0,0,1,5,1.88c2.11,1.71,2.15,3.08,2.15,3.08a1.1,1.1,0,0,0,1.87-.94s-.58-4.46-6.48-5.26A2.41,2.41,0,0,0,329.93,400.83Z"/><path class="cls-13" d="M334,398.42a7.4,7.4,0,0,1,5.13,1.52c2.23,1.56,2.36,2.93,2.36,2.93a1.09,1.09,0,0,0,1.79-1.06s-.87-4.41-6.82-4.81A2.4,2.4,0,0,0,334,398.42Z"/><path class="cls-16" d="M379.93,367.54l.12,6s-3.94,3.15-9.72.46c-.18-.37-.78-6.27-.78-6.27Z"/><path class="cls-16" d="M351.72,389.47s0,2.86.09,4.49-1.83,4.1-6.82,4c-3.51-.06-6-.95-5.89-3.84L339,390Z"/><path class="cls-12" d="M385.39,316.35c-.58-12.69-3.3-18.2-3.3-18.2s.66-15.7,2.38-34.93c2.63-29.29.31-33.63-5.72-46.66,0,0-48.56-5.29-49.65,15.18-1.36,25.49-.54,77.28.32,86.26s.68.66,3.22,18.82C334.66,351.19,339,390,339,390c6.6,3.4,12.71-.52,12.71-.52s3.07-47.64,2.44-58c-.77-12.66-1.55-15.87-1.55-15.87s4.93-41.13,5.68-47.76c0,0,1,11.81,1.9,20.79s.94,16.22,3.21,34.78c1.78,14.56,6,46,6,46a12.08,12.08,0,0,0,10.71-1S385.86,326.61,385.39,316.35Z"/><path class="cls-13" d="M358.2,369.45s.13-7,9.61-8.2l.55.3a8.21,8.21,0,0,0-4.75-3.52c-3.17-.79-5.65.08-7.26,2.25S356.53,368.11,358.2,369.45Z"/><path class="cls-6" d="M358.29,267.83l.62-8.4a68.9,68.9,0,0,0,15-7.53,20.15,20.15,0,0,1-12.08,9.16l-1.51,8.25-.13,19.31Z"/><path class="cls-16" d="M363.5,146.42l1,11h0c2.48.77,2.05,4.26.58,6.41l.29,3.23-16.18,1.47-2.43-18.59Z"/><path class="cls-6" d="M381.32,165.42c-1.8-4.9-8.91-8.65-13.21-8.32l-3.62.32c1,2-.44,3.42-3.06,4.18-3.38,1-9.59,1.53-13.25-.64l-.11-.93s-6.91,2-8.94,2.73c-5.72,2.16-7.61,3.26-13.54,18.65-2.54,6.58-1,13.4,5.86,17.12.5,4.07,1.08,10.48,1.08,10.48a232.8,232.8,0,0,0-4.14,26.45s3.6,8.16,28.52,6.79c19.31-1.07,28.29-10.83,28.29-10.83-.48-4.74-3.47-12.3-9.62-26.57C382.85,184.34,384,172.68,381.32,165.42Z"/><path class="cls-14" d="M336.23,125s-11.42-6-2.19-16.91c6.63-7.85,17.43-6.89,30.41-2.36,6.07,2.12,14.91,8.27,15.69,20.2.6,9.2-25.06,16-24.47,22.29Z"/><path class="cls-17" d="M334,129.8s-3.48,5.58-3,6.15,2.81,1.12,2.81,1.12Z"/><path class="cls-16" d="M344.66,112.12c-3.48,1.92-9.48,5.45-10.7,18.48-1.25,13.39,1.84,17.94,3.71,19.64,1.26,1.15,7.6,1.4,10.88.29,4.1-1.4,12.93-6.06,16.95-13.06,4.72-8.23,5.45-19-.37-23.13C357,108.6,347.6,110.5,344.66,112.12Z"/><path class="cls-17" d="M346.87,150.94c-2.9.51-6.75.35-8.5-.31a15.67,15.67,0,0,0,8.38-2.39Z"/><path class="cls-14" d="M344.83,127.87a13.26,13.26,0,0,1-8.49-10.69c-1.31-8.49,9.29-12.09,9.29-12.09Z"/><path class="cls-14" d="M380.15,124.59c-.87-6.13-4.92-14.36-12.81-16.75-14.67-4.44-23.71,4.87-23.71,4.87a44.85,44.85,0,0,0-.69,13.36,3.07,3.07,0,0,0-.95,0v5.84a3.21,3.21,0,0,0,3.2,3.21v-3.31c.79-1.3,2.69-3.69,5.73-2.77,4.15,1.26,4.33,6.64,1.36,9.72s-5.63,1.94-6.32.83c-.1-.18-.15-.29-.15-.29l-1.63,13.41s0,2.1,10.64,2.61,20.88-2.39,24-6.45S381,130.72,380.15,124.59Z"/><path class="cls-3" d="M345.2,131.75s-2.65-8.87-.28-16.24,6.29-11,11-12.16a13.76,13.76,0,0,1,10.69,3.29,17.85,17.85,0,0,0-13.37,6.12c-5.37,5.88-5.8,12.67-6.11,16.82A11.67,11.67,0,0,0,345.2,131.75Z"/><path class="cls-14" d="M290.46,194.38l36.67,19.7.6.95v.76a1.11,1.11,0,0,1-.6,1l-27.34,15.74a2,2,0,0,1-1,.25,2.07,2.07,0,0,1-1-.25l-36-20.81v-.76Z"/><path class="cls-12" d="M298.79,232a2,2,0,0,0,1-.25L327.13,216a1.12,1.12,0,0,0,.6-.95,1.11,1.11,0,0,0-.6-.95l-35.39-20.44-30,17.27,36,20.81A2.07,2.07,0,0,0,298.79,232Z"/><path class="cls-10" d="M291.74,191.4l35.07,20.26.29.4v3h0a.5.5,0,0,1-.29.4l-27.34,15.74a1.5,1.5,0,0,1-1.37,0L263,210.91v-3Z"/><path class="cls-1" d="M263,207.94l.35.2,4.5,2.6.84.48,29.38,17a1.57,1.57,0,0,0,1.37,0l27.34-15.75a.42.42,0,0,0,0-.79l-.36-.21-34.71-20-28.37,16.34-.08,0Z"/><path class="cls-9" d="M298.79,228.36v3a1.34,1.34,0,0,0,.68-.16l27.34-15.75a.47.47,0,0,0,.29-.39v-3a.49.49,0,0,1-.29.39L299.47,228.2A1.34,1.34,0,0,1,298.79,228.36Z"/><path class="cls-13" d="M263,207.54l5,2.88.78.45L298.1,227.8a1.5,1.5,0,0,0,1.37,0l23.31-13.41.87-.5a8.66,8.66,0,0,0,2.8-2.44l.06-.1a.48.48,0,0,0,.09-.21.62.62,0,0,0-.48-.7,12.63,12.63,0,0,1-2.61-1.08l0,0L291.75,191Z"/><path class="cls-9" d="M274.46,209.07l19.44-11.23a1,1,0,0,1,.87,0l.05,0a.26.26,0,0,1,0,.5L275.38,209.6a1,1,0,0,1-.87,0l-.05,0A.26.26,0,0,1,274.46,209.07Z"/><path class="cls-9" d="M276.37,210.15l19.44-11.23a1,1,0,0,1,.87,0l.05,0c.24.14.24.37,0,.5l-19.44,11.23a1,1,0,0,1-.87,0l-.05,0A.26.26,0,0,1,276.37,210.15Z"/><path class="cls-9" d="M278.28,211.23,297.72,200a1,1,0,0,1,.87,0l.05,0c.24.14.24.37,0,.5l-19.45,11.23a.93.93,0,0,1-.86,0l-.05,0A.26.26,0,0,1,278.28,211.23Z"/><path class="cls-9" d="M291.84,219.12l19.45-11.23a.93.93,0,0,1,.86,0l.05,0a.26.26,0,0,1,0,.5l-19.44,11.23a1,1,0,0,1-.87,0l-.05,0C291.6,219.48,291.6,219.25,291.84,219.12Z"/><text class="cls-21" transform="matrix(0.87, -0.5, 0.87, 0.5, 303.1, 210.69)">544</text><text class="cls-21" transform="matrix(0.87, -0.5, 0.87, 0.5, 299.83, 208.81)">216</text><text class="cls-21" transform="matrix(0.87, -0.5, 0.87, 0.5, 296.78, 207.04)">954</text><text class="cls-21" transform="matrix(0.87, -0.5, 0.87, 0.5, 296.01, 209.96)">+</text><text class="cls-21" transform="matrix(0.87, -0.5, 0.87, 0.5, 293.41, 216.3)">914</text><text class="cls-21" transform="matrix(0.87, -0.5, 0.87, 0.5, 290.15, 214.41)">356</text><text class="cls-21" transform="matrix(0.87, -0.5, 0.87, 0.5, 287.09, 212.65)">984</text><text class="cls-21" transform="matrix(0.87, -0.5, 0.87, 0.5, 286.32, 215.57)">+</text><path class="cls-2" d="M268.19,207.19c.35.21.35.54,0,.74a1.38,1.38,0,0,1-1.28,0c-.36-.2-.36-.53,0-.74A1.38,1.38,0,0,1,268.19,207.19Z"/><path class="cls-3" d="M263.17,206.79a4.72,4.72,0,0,0,.05.64l.45-.26c0-.13,0-.26,0-.38a1.76,1.76,0,0,1,.65-1.59.94.94,0,0,1,.47-.12,1.59,1.59,0,0,1,.78.24,4.84,4.84,0,0,1,1.94,2.77A1.44,1.44,0,0,0,268,208a5.4,5.4,0,0,0-2.17-3.13,1.73,1.73,0,0,0-1.73-.12A2.23,2.23,0,0,0,263.17,206.79Z"/><path class="cls-14" d="M263.27,207.68a.52.52,0,0,0,0,.11l.08,0Z"/><path class="cls-2" d="M272.06,205a.39.39,0,0,1,0,.74,1.4,1.4,0,0,1-1.29,0,.39.39,0,0,1,0-.74A1.4,1.4,0,0,1,272.06,205Z"/><path class="cls-3" d="M267,204.55a4.6,4.6,0,0,0,0,.64l.45-.26c0-.12,0-.25,0-.38a1.77,1.77,0,0,1,.65-1.59.93.93,0,0,1,.46-.12,1.62,1.62,0,0,1,.79.24,4.84,4.84,0,0,1,1.94,2.77,1.24,1.24,0,0,0,.47-.06,5.34,5.34,0,0,0-2.17-3.12,1.7,1.7,0,0,0-1.73-.12A2.22,2.22,0,0,0,267,204.55Z"/><path class="cls-2" d="M275.93,202.72a.4.4,0,0,1,0,.75,1.46,1.46,0,0,1-1.29,0,.4.4,0,0,1,0-.75A1.46,1.46,0,0,1,275.93,202.72Z"/><path class="cls-3" d="M270.91,202.32a4.72,4.72,0,0,0,0,.64l.45-.26a2.42,2.42,0,0,1,0-.38,1.77,1.77,0,0,1,.65-1.59.9.9,0,0,1,.46-.12,1.62,1.62,0,0,1,.79.24,4.84,4.84,0,0,1,1.94,2.77,1.24,1.24,0,0,0,.47-.06,5.39,5.39,0,0,0-2.17-3.12,1.68,1.68,0,0,0-1.73-.12A2.2,2.2,0,0,0,270.91,202.32Z"/><path class="cls-2" d="M279.79,200.49c.36.21.36.54,0,.74a1.38,1.38,0,0,1-1.28,0c-.36-.2-.36-.53,0-.74A1.38,1.38,0,0,1,279.79,200.49Z"/><path class="cls-3" d="M274.78,200.09a4.72,4.72,0,0,0,.05.64l.45-.26a2.48,2.48,0,0,1,0-.38,1.73,1.73,0,0,1,.65-1.59.91.91,0,0,1,.46-.13,1.65,1.65,0,0,1,.79.25,4.76,4.76,0,0,1,1.93,2.76,1.51,1.51,0,0,0,.48,0,5.49,5.49,0,0,0-2.17-3.13,1.7,1.7,0,0,0-1.73-.12A2.21,2.21,0,0,0,274.78,200.09Z"/><path class="cls-2" d="M283.66,198.26c.36.2.36.53,0,.74a1.38,1.38,0,0,1-1.28,0c-.36-.21-.36-.54,0-.74A1.38,1.38,0,0,1,283.66,198.26Z"/><path class="cls-3" d="M278.65,197.85a3.45,3.45,0,0,0,.05.64l.45-.26a2.36,2.36,0,0,1,0-.38,1.75,1.75,0,0,1,.65-1.59.9.9,0,0,1,.46-.12,1.62,1.62,0,0,1,.79.24,4.83,4.83,0,0,1,1.93,2.77,1.27,1.27,0,0,0,.48-.06,5.4,5.4,0,0,0-2.18-3.12,1.68,1.68,0,0,0-1.72-.12A2.2,2.2,0,0,0,278.65,197.85Z"/><path class="cls-2" d="M287.53,196a.4.4,0,0,1,0,.75,1.44,1.44,0,0,1-1.28,0,.4.4,0,0,1,0-.75A1.44,1.44,0,0,1,287.53,196Z"/><path class="cls-3" d="M282.52,195.62a3.52,3.52,0,0,0,.05.64L283,196a2.43,2.43,0,0,1,0-.38,1.75,1.75,0,0,1,.66-1.59.9.9,0,0,1,.46-.12,1.62,1.62,0,0,1,.79.24,4.83,4.83,0,0,1,1.93,2.77,1.29,1.29,0,0,0,.48-.06,5.4,5.4,0,0,0-2.18-3.12,1.66,1.66,0,0,0-1.72-.12A2.18,2.18,0,0,0,282.52,195.62Z"/><path class="cls-2" d="M291.4,193.79a.39.39,0,0,1,0,.74,1.38,1.38,0,0,1-1.28,0,.39.39,0,0,1,0-.74A1.38,1.38,0,0,1,291.4,193.79Z"/><path class="cls-3" d="M286.39,193.39a4.78,4.78,0,0,0,0,.64l.45-.26c0-.13,0-.26,0-.38a1.78,1.78,0,0,1,.65-1.6,1.06,1.06,0,0,1,.47-.12,1.61,1.61,0,0,1,.78.25,4.82,4.82,0,0,1,1.94,2.76,1.45,1.45,0,0,0,.47-.05A5.37,5.37,0,0,0,289,191.5a1.69,1.69,0,0,0-1.72-.12A2.21,2.21,0,0,0,286.39,193.39Z"/><g class="cls-22"><path d="M263.17,206.79a4.72,4.72,0,0,0,.05.64l.45-.26c0-.13,0-.26,0-.38a1.76,1.76,0,0,1,.65-1.59.94.94,0,0,1,.47-.12,1.59,1.59,0,0,1,.78.24,4.84,4.84,0,0,1,1.94,2.77A1.44,1.44,0,0,0,268,208a5.4,5.4,0,0,0-2.17-3.13,1.73,1.73,0,0,0-1.73-.12A2.23,2.23,0,0,0,263.17,206.79Z"/><path d="M267,204.55a4.6,4.6,0,0,0,0,.64l.45-.26c0-.12,0-.25,0-.38a1.77,1.77,0,0,1,.65-1.59.93.93,0,0,1,.46-.12,1.62,1.62,0,0,1,.79.24,4.84,4.84,0,0,1,1.94,2.77,1.24,1.24,0,0,0,.47-.06,5.34,5.34,0,0,0-2.17-3.12,1.7,1.7,0,0,0-1.73-.12A2.22,2.22,0,0,0,267,204.55Z"/><path d="M270.91,202.32a4.72,4.72,0,0,0,0,.64l.45-.26a2.42,2.42,0,0,1,0-.38,1.77,1.77,0,0,1,.65-1.59.9.9,0,0,1,.46-.12,1.62,1.62,0,0,1,.79.24,4.84,4.84,0,0,1,1.94,2.77,1.24,1.24,0,0,0,.47-.06,5.39,5.39,0,0,0-2.17-3.12,1.68,1.68,0,0,0-1.73-.12A2.2,2.2,0,0,0,270.91,202.32Z"/><path d="M274.78,200.09a4.72,4.72,0,0,0,.05.64l.45-.26a2.48,2.48,0,0,1,0-.38,1.73,1.73,0,0,1,.65-1.59.91.91,0,0,1,.46-.13,1.65,1.65,0,0,1,.79.25,4.76,4.76,0,0,1,1.93,2.76,1.51,1.51,0,0,0,.48,0,5.49,5.49,0,0,0-2.17-3.13,1.7,1.7,0,0,0-1.73-.12A2.21,2.21,0,0,0,274.78,200.09Z"/><path d="M278.65,197.85a3.45,3.45,0,0,0,.05.64l.45-.26a2.36,2.36,0,0,1,0-.38,1.75,1.75,0,0,1,.65-1.59.9.9,0,0,1,.46-.12,1.62,1.62,0,0,1,.79.24,4.83,4.83,0,0,1,1.93,2.77,1.27,1.27,0,0,0,.48-.06,5.4,5.4,0,0,0-2.18-3.12,1.68,1.68,0,0,0-1.72-.12A2.2,2.2,0,0,0,278.65,197.85Z"/><path d="M282.52,195.62a3.52,3.52,0,0,0,.05.64L283,196a2.43,2.43,0,0,1,0-.38,1.75,1.75,0,0,1,.66-1.59.9.9,0,0,1,.46-.12,1.62,1.62,0,0,1,.79.24,4.83,4.83,0,0,1,1.93,2.77,1.29,1.29,0,0,0,.48-.06,5.4,5.4,0,0,0-2.18-3.12,1.66,1.66,0,0,0-1.72-.12A2.18,2.18,0,0,0,282.52,195.62Z"/><path d="M286.39,193.39a4.78,4.78,0,0,0,0,.64l.45-.26c0-.13,0-.26,0-.38a1.78,1.78,0,0,1,.65-1.6,1.06,1.06,0,0,1,.47-.12,1.61,1.61,0,0,1,.78.25,4.82,4.82,0,0,1,1.94,2.76,1.45,1.45,0,0,0,.47-.05A5.37,5.37,0,0,0,289,191.5a1.69,1.69,0,0,0-1.72-.12A2.21,2.21,0,0,0,286.39,193.39Z"/></g><path class="cls-16" d="M296.86,230.16c6.8-.67,29.8-3.06,31.68-7.7,2.32-5.73,14-36.25,14-36.25s3.23-20.88-6.84-21.74c-4.36.86-8.27,3.15-9.92,10.9-.86,4-5.4,20.3-9.05,38.33,0,0-26.42,8.17-28.37,7.5s-2-2.51-3.57-4.73-2.65-5.06-3.87-4.28-.45,4.43,0,6.16a4.42,4.42,0,0,1-.66,3.32s-1.15-.43-2.22-.73c-.58-.16-9.67-5.47-9.67-5.47s-.87,5.77,1.93,8.6c3.52,4.06,8.52,5.57,13.08,6.23C288.63,231.07,290.05,230.82,296.86,230.16Z"/></g></g><g id="Speech_Bubble" data-name="Speech Bubble"><g id="Speech_Bubble-2" data-name="Speech Bubble"><g id="Speech_Bubble-3" data-name="Speech Bubble"><path class="cls-3" d="M357.06,88.19l-6.8-3.93a.72.72,0,0,1-.32-.28l-1.25-2.19,4-2.33-.12.36Z"/><path class="cls-11" d="M357.06,88.19l-6.8-3.93a.72.72,0,0,1-.32-.28l-1.25-2.19,4-2.33-.12.36Z"/><path class="cls-3" d="M352.11,79.79,356.82,88a.7.7,0,0,0,1.27-.12l5-14.36Z"/><path class="cls-3" d="M416.18,8a7.28,7.28,0,0,0-3.28-5.7L410.22.79a7.27,7.27,0,0,0-6.58,0L332.17,42a7.27,7.27,0,0,0-3.29,5.7v31a7.27,7.27,0,0,0,3.29,5.7L334.84,86a7.27,7.27,0,0,0,6.58,0L413.2,44.54c3-1.69,3-3.38,3-5.48Z"/><path class="cls-11" d="M328.88,78.74a7.27,7.27,0,0,0,3.29,5.7L334.84,86a7.34,7.34,0,0,0,6,.27c-1.55.59-2.73-.3-2.73-2.17v-31a6.67,6.67,0,0,1,1-3.24l-9.26-5.34a6.65,6.65,0,0,0-1,3.24Z"/><path class="cls-23" d="M416.08,7.1c-.39-1.4-1.66-1.85-3.18-1L341.42,47.36a6.54,6.54,0,0,0-2.32,2.45l-9.25-5.34A6.61,6.61,0,0,1,332.17,42L403.63.79a7.35,7.35,0,0,1,6.59,0l2.68,1.55A7.27,7.27,0,0,1,416.08,7.1Z"/></g><path class="cls-13" d="M345.15,70.14a.47.47,0,0,1,0-.17.56.56,0,0,1,0-.12l1.65-4.59a2.62,2.62,0,0,1-1.3.41,1.56,1.56,0,0,1-1-.33,2.28,2.28,0,0,1-.69-1.06,5.17,5.17,0,0,1-.26-1.75,8.69,8.69,0,0,1,1-3.94,7.37,7.37,0,0,1,1.06-1.54A5.46,5.46,0,0,1,346.91,56a3,3,0,0,1,1.32-.43,1.56,1.56,0,0,1,1.06.32,2.25,2.25,0,0,1,.71,1,5.33,5.33,0,0,1,.26,1.77,6.41,6.41,0,0,1-.09,1.09,8.54,8.54,0,0,1-.21,1c-.09.33-.18.66-.29,1s-.21.62-.32.91L347,69.2c0,.1-.08.21-.13.33a.59.59,0,0,1-.26.28l-1.12.65a.18.18,0,0,1-.24,0A.41.41,0,0,1,345.15,70.14Zm.12-8.59c0,.72.16,1.18.47,1.38a1.09,1.09,0,0,0,1.17-.11,3.14,3.14,0,0,0,1.18-1.26,3.87,3.87,0,0,0,.46-1.9c0-.71-.15-1.17-.46-1.38a1,1,0,0,0-1.18.09,3.19,3.19,0,0,0-1.17,1.26A4,4,0,0,0,345.27,61.55Z"/><path class="cls-13" d="M352.6,53.39a.92.92,0,0,1,.1-.42.58.58,0,0,1,.23-.29L357.64,50a.18.18,0,0,1,.24,0,.41.41,0,0,1,.1.3v1.37a1.17,1.17,0,0,1-.1.43.72.72,0,0,1-.24.29l-3.52,2L354,56.94a3.2,3.2,0,0,1,.66-.63l.55-.36a3.29,3.29,0,0,1,1.3-.46,1.47,1.47,0,0,1,1,.26,2.07,2.07,0,0,1,.69,1,5.39,5.39,0,0,1,.25,1.76,9.29,9.29,0,0,1-.26,2.26,7.81,7.81,0,0,1-.7,1.85,6.19,6.19,0,0,1-1,1.43,5.93,5.93,0,0,1-1.28,1,3.73,3.73,0,0,1-1.48.55,1.49,1.49,0,0,1-1-.25,1.69,1.69,0,0,1-.61-.86,3.92,3.92,0,0,1-.23-1.3.82.82,0,0,1,.09-.43.72.72,0,0,1,.24-.29l1-.58a.2.2,0,0,1,.22,0,.43.43,0,0,1,.14.26,1.25,1.25,0,0,0,.24.59.63.63,0,0,0,.37.22.92.92,0,0,0,.48-.05,3.36,3.36,0,0,0,.55-.26,2.89,2.89,0,0,0,1.15-1.26,4.11,4.11,0,0,0,.44-1.89,1.39,1.39,0,0,0-.44-1.19,1,1,0,0,0-1.15.06,3.6,3.6,0,0,0-.6.43,3.86,3.86,0,0,0-.35.41l-.25.35a1,1,0,0,1-.29.25l-1.15.67a.19.19,0,0,1-.24,0,.41.41,0,0,1-.1-.31Z"/><path class="cls-13" d="M367.06,49.55c0,.24,0,.5,0,.8v1.81c0,.3,0,.57,0,.82a15.34,15.34,0,0,1-.21,2.19,9.57,9.57,0,0,1-.58,2,6.38,6.38,0,0,1-1,1.7,5.69,5.69,0,0,1-1.54,1.28,2.88,2.88,0,0,1-1.55.5,1.34,1.34,0,0,1-1-.51,2.89,2.89,0,0,1-.58-1.32,11.81,11.81,0,0,1-.22-2c0-.47,0-1,0-1.65s0-1.18,0-1.68a17.76,17.76,0,0,1,.22-2.22,8.66,8.66,0,0,1,.58-2,6.92,6.92,0,0,1,1-1.72,5.22,5.22,0,0,1,1.55-1.31,3,3,0,0,1,1.54-.5,1.34,1.34,0,0,1,1,.51,3.17,3.17,0,0,1,.58,1.32A11,11,0,0,1,367.06,49.55Zm-5,6.24a4,4,0,0,0,.43,1.9c.25.37.66.38,1.25,0a2.75,2.75,0,0,0,1.24-1.48,7.78,7.78,0,0,0,.44-2.39c0-.5,0-1,0-1.64s0-1.12,0-1.6a3.93,3.93,0,0,0-.44-1.9c-.24-.37-.66-.38-1.24,0a2.77,2.77,0,0,0-1.25,1.48,7.93,7.93,0,0,0-.43,2.4c0,.49,0,1,0,1.63S362,55.31,362,55.79Z"/><path class="cls-13" d="M368.72,47.92a.52.52,0,0,1-.07-.35.9.9,0,0,1,.13-.42l2.72-4.86a3.79,3.79,0,0,1,.2-.34.59.59,0,0,1,.23-.24l1-.57a.18.18,0,0,1,.24,0,.44.44,0,0,1,.1.31V53.92a1.07,1.07,0,0,1-.1.42.65.65,0,0,1-.24.29l-1,.59c-.1.05-.18.05-.24,0a.4.4,0,0,1-.1-.31V45.37l-1.78,3.17a.5.5,0,0,1-.24.24.19.19,0,0,1-.23-.06Z"/><path class="cls-13" d="M382.18,40.82c0,.24,0,.5,0,.8v1.81c0,.3,0,.57,0,.82a15.63,15.63,0,0,1-.21,2.2,9.33,9.33,0,0,1-.58,2,6.49,6.49,0,0,1-1,1.69,5.69,5.69,0,0,1-1.54,1.28,2.88,2.88,0,0,1-1.55.5,1.36,1.36,0,0,1-1-.5,3,3,0,0,1-.58-1.33,11.81,11.81,0,0,1-.22-1.94c0-.48,0-1,0-1.66s0-1.18,0-1.68a17.76,17.76,0,0,1,.22-2.22,8.66,8.66,0,0,1,.58-2,6.92,6.92,0,0,1,1-1.72,5.37,5.37,0,0,1,1.55-1.31,3,3,0,0,1,1.54-.5,1.34,1.34,0,0,1,1,.51,3,3,0,0,1,.58,1.32A11,11,0,0,1,382.18,40.82Zm-5,6.24a4,4,0,0,0,.43,1.9c.25.37.66.38,1.25,0a2.75,2.75,0,0,0,1.24-1.48,7.78,7.78,0,0,0,.44-2.39c0-.5,0-1.05,0-1.64s0-1.12,0-1.6a4,4,0,0,0-.44-1.9c-.24-.37-.66-.38-1.24,0a2.77,2.77,0,0,0-1.25,1.48,7.93,7.93,0,0,0-.43,2.4c0,.49,0,1,0,1.63S377.12,46.58,377.14,47.06Z"/><path class="cls-13" d="M388.46,45.66a.19.19,0,0,1-.24,0,.4.4,0,0,1-.1-.31V43l-3.88,2.24a.18.18,0,0,1-.24,0,.38.38,0,0,1-.1-.3V43.55A1.77,1.77,0,0,1,384,43c0-.17.12-.35.2-.55L388,32.91a1.55,1.55,0,0,1,.52-.78l1-.55a.18.18,0,0,1,.24,0,.44.44,0,0,1,.1.31v7.71l1.07-.63a.19.19,0,0,1,.24,0,.41.41,0,0,1,.1.31v1.37a.92.92,0,0,1-.1.42.6.6,0,0,1-.24.29l-1.07.62v2.34a1.07,1.07,0,0,1-.1.42.65.65,0,0,1-.24.29Zm-.34-5.07V36.47L386,41.83Z"/><path class="cls-13" d="M396.9,36.13v3.51a1,1,0,0,1-.1.43.63.63,0,0,1-.23.29l-.95.55a.19.19,0,0,1-.24,0,.4.4,0,0,1-.1-.31V37.07L393,38.37a.18.18,0,0,1-.24,0,.4.4,0,0,1-.1-.31V36.77a.92.92,0,0,1,.1-.42.76.76,0,0,1,.24-.3l2.24-1.29V31.27a.92.92,0,0,1,.1-.42.55.55,0,0,1,.24-.29l.95-.55a.17.17,0,0,1,.23,0,.38.38,0,0,1,.1.3v3.49l2.23-1.28a.18.18,0,0,1,.24,0,.41.41,0,0,1,.1.31v1.27a1,1,0,0,1-.1.43.65.65,0,0,1-.24.29Z"/><path class="cls-13" d="M402.76,34.47a.19.19,0,0,1,.24,0,.41.41,0,0,1,.1.31v1.89a1,1,0,0,1-.1.43.72.72,0,0,1-.24.29l-1.16.67a.18.18,0,0,1-.24,0,.4.4,0,0,1-.1-.31V35.85a.92.92,0,0,1,.1-.42.65.65,0,0,1,.24-.29Z"/><path class="cls-13" d="M406.65,32.22c.1,0,.18,0,.24,0a.39.39,0,0,1,.1.31v1.88a.94.94,0,0,1-.1.43.55.55,0,0,1-.24.29l-1.16.67a.18.18,0,0,1-.24,0,.41.41,0,0,1-.1-.3V33.61a1.17,1.17,0,0,1,.1-.43.72.72,0,0,1,.24-.29Z"/><path class="cls-13" d="M410.55,30a.19.19,0,0,1,.24,0,.44.44,0,0,1,.1.31v1.89a1.07,1.07,0,0,1-.1.42.65.65,0,0,1-.24.29l-1.17.67a.18.18,0,0,1-.24,0,.46.46,0,0,1-.09-.31V31.36a1.06,1.06,0,0,1,.09-.42.65.65,0,0,1,.24-.29Z"/></g></g><g id="Addition_sign" data-name="Addition sign"><g id="Plus"><path class="cls-3" d="M222.4,386.2a1.89,1.89,0,0,0-1.15-1.62l-5.67-3.28,4.52-2.61a1.91,1.91,0,0,0,1.15-1.62V363.75a1.89,1.89,0,0,0-1.15-1.62l-10.53-6.08a6.33,6.33,0,0,0-5.63,0l-16.05,9.27-17.2-9.93a6.25,6.25,0,0,0-5.63,0L151.93,363a1.89,1.89,0,0,0-1.15,1.62h0v13.32h0a1.89,1.89,0,0,0,1.14,1.61l5.67,3.28L153,385.48a1.92,1.92,0,0,0-1.14,1.62h0v13.31h0A1.89,1.89,0,0,0,153,402l10.53,6.08a6.23,6.23,0,0,0,5.62,0l16.16-9.33,17.2,9.93a6.27,6.27,0,0,0,5.64,0l13.13-7.58a1.9,1.9,0,0,0,1.13-1.58h0V386.25h0S222.4,386.22,222.4,386.2Z"/><path class="cls-7" d="M222.4,386.2a1.89,1.89,0,0,0-1.15-1.62l-5.67-3.28,4.52-2.61a1.91,1.91,0,0,0,1.15-1.62V363.75a1.89,1.89,0,0,0-1.15-1.62l-10.53-6.08a6.33,6.33,0,0,0-5.63,0l-16.05,9.27-17.2-9.93a6.25,6.25,0,0,0-5.63,0L151.93,363a1.89,1.89,0,0,0-1.15,1.62h0v13.32h0a1.89,1.89,0,0,0,1.14,1.61l5.67,3.28L153,385.48a1.92,1.92,0,0,0-1.14,1.62h0v13.31h0A1.89,1.89,0,0,0,153,402l10.53,6.08a6.23,6.23,0,0,0,5.62,0l16.16-9.33,17.2,9.93a6.27,6.27,0,0,0,5.64,0l13.13-7.58a1.9,1.9,0,0,0,1.13-1.58h0V386.25h0S222.4,386.22,222.4,386.2Z"/><path class="cls-7" d="M201.52,382.05h15.36l-1.3-.75,4.52-2.61a1.91,1.91,0,0,0,1.15-1.62V363.75a1.89,1.89,0,0,0-1.15-1.62l-2.59-1.5h-16Z"/><path class="cls-7" d="M205.33,409.38a5.49,5.49,0,0,0,2.79-.66l13.13-7.58a1.9,1.9,0,0,0,1.13-1.58h0V386.25h0s0,0,0-.05a1.47,1.47,0,0,0-.24-.72H205.33Z"/><path class="cls-7" d="M151.93,363a1.89,1.89,0,0,0-1.15,1.62h0v13.32h0a1.89,1.89,0,0,0,1.14,1.61l5.67,3.28h15.59V361.9h-19.4Z"/><path class="cls-7" d="M166.38,408.77a5.5,5.5,0,0,0,2.74-.65l16.16-9.33V385.48h-18.9Z"/><path class="cls-3" d="M204.05,374.64l17.2,9.94a1.72,1.72,0,0,1,0,3.25l-13.13,7.58a6.35,6.35,0,0,1-5.64,0l-17.2-9.93-16.16,9.33a6.31,6.31,0,0,1-5.62,0L153,388.73a1.73,1.73,0,0,1,0-3.25l16.16-9.33-17.2-9.93a1.73,1.73,0,0,1,0-3.25l13.13-7.58a6.25,6.25,0,0,1,5.63,0l17.2,9.93,16.05-9.27a6.33,6.33,0,0,1,5.63,0l10.53,6.08a1.89,1.89,0,0,1,1.15,1.62,1.92,1.92,0,0,1-1.15,1.63Z"/></g></g><g id="Substraction_sign" data-name="Substraction sign"><g id="Minus"><path class="cls-3" d="M294.14,335.09l4.52-2.61a1.91,1.91,0,0,0,1.15-1.62V317.55a1.89,1.89,0,0,0-1.15-1.63l-10.53-6.08a5.54,5.54,0,0,0-2.81-.66,5.6,5.6,0,0,0-2.82.66l-16.05,9.27L236.16,336.6l-4.63,2.67a1.93,1.93,0,0,0-1.15,1.62h0v13.32h0a1.9,1.9,0,0,0,1.15,1.62l10.53,6.08a5.46,5.46,0,0,0,2.81.67,5.64,5.64,0,0,0,2.81-.66l16.16-9.33Z"/><path class="cls-7" d="M294.14,335.09l4.52-2.61a1.91,1.91,0,0,0,1.15-1.62V317.55a1.89,1.89,0,0,0-1.15-1.63l-10.53-6.08a5.54,5.54,0,0,0-2.81-.66,5.6,5.6,0,0,0-2.82.66l-16.05,9.27L236.16,336.6l-4.63,2.67a1.93,1.93,0,0,0-1.15,1.62h0v13.32h0a1.9,1.9,0,0,0,1.15,1.62l10.53,6.08a5.46,5.46,0,0,0,2.81.67,5.64,5.64,0,0,0,2.81-.66l16.16-9.33Z"/><path class="cls-7" d="M245.07,346.6v15.93a5.62,5.62,0,0,0,2.61-.61l16.16-9.33,30.3-17.5,4.52-2.61a1.91,1.91,0,0,0,1.15-1.62V317.55a1.89,1.89,0,0,0-1.15-1.63l-4.86-2.81Z"/><path class="cls-3" d="M282.61,328.44l-18.77,10.83-16.16,9.33a6.31,6.31,0,0,1-5.62,0l-10.53-6.08a1.72,1.72,0,0,1,0-3.25l16.16-9.33,18.76-10.83,16.05-9.27a5.6,5.6,0,0,1,2.82-.66,5.54,5.54,0,0,1,2.81.66l10.53,6.08a1.72,1.72,0,0,1,0,3.25Z"/></g></g></g></svg>