<svg xmlns="http://www.w3.org/2000/svg" viewBox="0 0 434.72 464.24"><defs><style>.cls-1{fill:#f0f0f0;}.cls-2{fill:#e0e0e0;}.cls-3{fill:#27debf;}.cls-4,.cls-6{opacity:0.15;}.cls-12,.cls-5,.cls-8{fill:#fff;}.cls-7{opacity:0.2;}.cls-23,.cls-8{opacity:0.4;}.cls-9{fill:#fafafa;}.cls-10{fill:#455a64;}.cls-11,.cls-22{opacity:0.3;}.cls-12,.cls-24{opacity:0.5;}.cls-13{opacity:0.1;}.cls-14{fill:#b16668;}.cls-15{fill:#37474f;}.cls-16{fill:#263238;}.cls-17{fill:#f5f5f5;}.cls-18{fill:#9a4a4d;}.cls-19{fill:#e6e6e6;}.cls-20{opacity:0.07;}.cls-21{opacity:0.08;}</style></defs><g id="Layer_2" data-name="Layer 2"><g id="Floor"><ellipse id="Floor-2" data-name="Floor" class="cls-1" cx="217.36" cy="335.32" rx="217.36" ry="128.93"/></g><g id="Shadows"><ellipse id="Shadow" class="cls-2" cx="298.33" cy="315.94" rx="70.77" ry="40.86"/><ellipse id="Shadow-2" data-name="Shadow" class="cls-2" cx="120.43" cy="359.01" rx="65.05" ry="37.56"/><path id="Shadow-3" data-name="Shadow" class="cls-2" d="M131.38,389.15,243,453.57a2.44,2.44,0,0,0,2.17,0l58.76-33.93c.6-.35.6-.91,0-1.25L192.31,354a2.44,2.44,0,0,0-2.17,0L131.38,387.9C130.78,388.25,130.78,388.81,131.38,389.15Z"/></g><g id="Plants"><g id="Plants-2" data-name="Plants"><path class="cls-3" d="M392.62,291l-9.52-5.5s-2.34-20.4-.78-36.2c2.18-22.2,16.52-48.92,33.62-42.65s-7.84,28.89-13.39,47.72S392.62,291,392.62,291Z"/><path class="cls-4" d="M392.62,291l-9.52-5.5s-2.34-20.4-.78-36.2c2.18-22.2,16.52-48.92,33.62-42.65s-7.84,28.89-13.39,47.72S392.62,291,392.62,291Z"/><path class="cls-5" d="M387.61,288.69h0a.57.57,0,0,0,.56-.59c-1.67-49.34,22.89-74.15,23.13-74.4a.57.57,0,0,0,0-.81.58.58,0,0,0-.82,0c-.25.25-25.16,25.42-23.47,75.26A.57.57,0,0,0,387.61,288.69Z"/><path class="cls-3" d="M398.61,294.44l-6.78-3.91s-1.15-14,5.72-31c6-14.81,20.8-27.09,28.25-24.51s7.28,7.87,3.64,13.42S403.69,267.2,398.61,294.44Z"/><path class="cls-5" d="M395,293h0a.57.57,0,0,0,.57-.58c-.13-31.19,29.16-52.27,29.45-52.48a.57.57,0,0,0-.66-.94c-.3.21-30.08,21.64-29.94,53.43A.57.57,0,0,0,395,293Z"/></g><g id="Plants-3" data-name="Plants"><path class="cls-3" d="M47,282.19l8-4.64s4.79-19.86,2.88-37.74c-2.68-25.13-19.22-34.58-25.51-32.41s-8.11,9.48,2.3,24.44C40.83,240.67,48.37,259.07,47,282.19Z"/><g class="cls-6"><path d="M47,282.19l8-4.64s4.79-19.86,2.88-37.74c-2.68-25.13-19.22-34.58-25.51-32.41s-8.11,9.48,2.3,24.44C40.83,240.67,48.37,259.07,47,282.19Z"/></g><path class="cls-5" d="M50.32,272.44h-.08a.56.56,0,0,1-.44-.65c4.4-23.18-3.69-49.23-13.72-60.07a.54.54,0,0,1,0-.78.56.56,0,0,1,.79,0c10.21,11,18.46,37.5,14,61A.58.58,0,0,1,50.32,272.44Z"/><path class="cls-3" d="M26,294.35c-1.27.64-4.64-2.25-5.58-3a11.78,11.78,0,0,1-3.69-4.69A11,11,0,0,1,16,280a26.19,26.19,0,0,1,1-3.48c.38-1.13.77-2.25,1.15-3.37a8.7,8.7,0,0,0,.68-3.42c-.18-2.36-2.18-4.1-4-5.61-2-1.67-4.08-3.84-3.92-6.65a10,10,0,0,1,2.77-5.77c1.44-1.64,3.11-3.06,4.42-4.8a6.88,6.88,0,0,0,1.63-4.3,7.24,7.24,0,0,0-.81-2.79c-.9-1.88-2.13-3.62-2.72-5.63s-.36-4.44,1.25-5.78c1.32-1.09,3.2-1.16,4.9-1a11.23,11.23,0,0,1,4.43,1.82c4.34,2.71,6.62,8.13,11.27,10.28a47.45,47.45,0,0,0,5.67,1.69c1.88.6,3.78,1.67,4.57,3.48,1.56,3.57-1.88,7.69-.84,11.44.91,3.32,4,4.73,5.66,7.77a7,7,0,0,1,.62,4.31,20.54,20.54,0,0,1-2.17,7.14A65.45,65.45,0,0,1,47.33,282S26.15,294.25,26,294.35Z"/><path class="cls-5" d="M38.25,287.94h0a.56.56,0,0,1-.51-.61c2-22.05-7.15-47-14.36-54.43a.56.56,0,1,1,.8-.77c7.36,7.61,16.73,32.95,14.67,55.3A.57.57,0,0,1,38.25,287.94Z"/><path class="cls-5" d="M36.06,260.75a.51.51,0,0,1-.17,0A74.9,74.9,0,0,0,20,257.33a.55.55,0,0,1-.5-.61.53.53,0,0,1,.6-.5,75.72,75.72,0,0,1,16.18,3.46.55.55,0,0,1-.21,1.07Z"/></g></g><g id="Speech_Bubble" data-name="Speech Bubble"><g id="Speach_Bubble" data-name="Speach Bubble"><path class="cls-3" d="M236.41.27l-72.54,41.9a2.45,2.45,0,0,0-1.12,1.93V74.27a2.45,2.45,0,0,0,1.12,1.93l4,2.24a2.51,2.51,0,0,0,2.25,0l72.54-41.89a2.47,2.47,0,0,0,1.12-1.94V4.44a2.44,2.44,0,0,0-1.13-1.93l-4-2.25A2.52,2.52,0,0,0,236.41.27Z"/><path class="cls-3" d="M169,77.79V47.62a2.48,2.48,0,0,1,1.12-1.94L242.67,3.79c.62-.36,1.12-.07,1.12.65V34.6a2.47,2.47,0,0,1-1.12,1.94L170.13,78.43C169.51,78.79,169,78.5,169,77.79Z"/><path class="cls-7" d="M170.13,78.43a2.58,2.58,0,0,1-2.25,0l-4-2.26a2.42,2.42,0,0,1-1.12-1.92V44.1A2.36,2.36,0,0,1,163.1,43l6.24,3.56a2.22,2.22,0,0,0-.33,1.1V77.78C169,78.44,169.47,78.81,170.13,78.43Z"/><path class="cls-8" d="M243.77,4.23c-.08-.56-.54-.76-1.1-.44L170.13,45.68a2.29,2.29,0,0,0-.79.84L163.1,43a2.25,2.25,0,0,1,.77-.79L236.41.27a2.51,2.51,0,0,1,2.25,0l4,2.25A2.42,2.42,0,0,1,243.77,4.23Z"/><path class="cls-3" d="M159.68,67.62c-.7-.42-6-3.38-6.13-3.48a1,1,0,0,1-.23-1.59l9.53-9.88,6.16,3.5-9.52,9.88A1.06,1.06,0,0,0,159.68,67.62Z"/><path class="cls-8" d="M159.68,67.62c-.7-.42-6-3.38-6.13-3.48a1,1,0,0,1-.23-1.59l9.53-9.88,6.16,3.5-9.52,9.88A1.06,1.06,0,0,0,159.68,67.62Z"/><path class="cls-3" d="M169,56.17l-9.52,9.88a1,1,0,0,0,.64,1.72l8.88,0Z"/><path class="cls-9" d="M181.31,46.92a.22.22,0,0,1,.28,0,.5.5,0,0,1,.12.37v1.61a1.57,1.57,0,0,1-.11.53c-.08.18-.15.35-.22.49l-2.15,4.74a2.7,2.7,0,0,1,1.2-.2,1.53,1.53,0,0,1,.92.41,2.32,2.32,0,0,1,.59,1,5.59,5.59,0,0,1,.21,1.64,8.59,8.59,0,0,1-.3,2.28,9.41,9.41,0,0,1-.84,2,8.56,8.56,0,0,1-1.27,1.7,7.18,7.18,0,0,1-1.58,1.26,4.77,4.77,0,0,1-1.79.66,2.12,2.12,0,0,1-1.27-.24,1.78,1.78,0,0,1-.77-.89,3.7,3.7,0,0,1-.31-1.29.91.91,0,0,1,.11-.51.9.9,0,0,1,.28-.34l1.17-.67c.1,0,.18,0,.24,0a1.18,1.18,0,0,1,.2.3,1.12,1.12,0,0,0,.24.38.66.66,0,0,0,.39.2,1.33,1.33,0,0,0,.61,0,4.48,4.48,0,0,0,2.35-1.8,3.48,3.48,0,0,0,.55-1.9c0-.68-.18-1.06-.55-1.14a2.14,2.14,0,0,0-1.45.4l-1.23.7a.21.21,0,0,1-.28,0,.46.46,0,0,1-.11-.36V56.69a1.33,1.33,0,0,1,.11-.53c.07-.19.14-.35.21-.5l2.06-4.52-4.06,2.34a.2.2,0,0,1-.28,0,.46.46,0,0,1-.12-.36V51.49a1.15,1.15,0,0,1,.12-.5.75.75,0,0,1,.28-.34Z"/><path class="cls-9" d="M185,45.4a1.33,1.33,0,0,1,.11-.5.82.82,0,0,1,.28-.34l5.54-3.2a.22.22,0,0,1,.28,0,.49.49,0,0,1,.12.36v1.62a1.11,1.11,0,0,1-.12.49.79.79,0,0,1-.28.35l-4.14,2.39-.16,3a4.18,4.18,0,0,1,.79-.75,7,7,0,0,1,.64-.41,3.9,3.9,0,0,1,1.53-.55,1.74,1.74,0,0,1,1.22.31,2.32,2.32,0,0,1,.81,1.17,6.06,6.06,0,0,1,.3,2.08,11,11,0,0,1-.3,2.66,9.15,9.15,0,0,1-.83,2.17A7.42,7.42,0,0,1,189.57,58a6.77,6.77,0,0,1-1.5,1.17,4.42,4.42,0,0,1-1.75.65,1.73,1.73,0,0,1-1.2-.29,2.16,2.16,0,0,1-.73-1,5.1,5.1,0,0,1-.27-1.54,1,1,0,0,1,.11-.5.77.77,0,0,1,.29-.34l1.19-.69a.24.24,0,0,1,.27,0,.43.43,0,0,1,.16.3,1.44,1.44,0,0,0,.28.69.8.8,0,0,0,.44.27,1,1,0,0,0,.56-.07,3.71,3.71,0,0,0,.65-.3,3.45,3.45,0,0,0,1.35-1.49,4.69,4.69,0,0,0,.52-2.22,1.65,1.65,0,0,0-.52-1.41,1.22,1.22,0,0,0-1.35.08,3.25,3.25,0,0,0-.7.51,4.23,4.23,0,0,0-.42.48l-.29.41a1.22,1.22,0,0,1-.34.3l-1.36.78a.22.22,0,0,1-.28,0,.49.49,0,0,1-.12-.36Z"/><path class="cls-9" d="M195.88,50.94a.22.22,0,0,1,.28,0,.49.49,0,0,1,.11.36v2.23a1.16,1.16,0,0,1-.11.5.75.75,0,0,1-.28.34l-1.37.79a.22.22,0,0,1-.28,0,.49.49,0,0,1-.12-.36V52.57a1.11,1.11,0,0,1,.12-.49.79.79,0,0,1,.28-.35Z"/><path class="cls-9" d="M200.46,48.3a.2.2,0,0,1,.28,0,.46.46,0,0,1,.12.36V50.9a1.15,1.15,0,0,1-.12.5.7.7,0,0,1-.28.34l-1.37.79a.2.2,0,0,1-.28,0,.46.46,0,0,1-.12-.36V49.93a1.15,1.15,0,0,1,.12-.5.7.7,0,0,1,.28-.34Z"/><path class="cls-9" d="M205,45.65a.22.22,0,0,1,.28,0,.49.49,0,0,1,.12.36v2.23a1.18,1.18,0,0,1-.12.5.75.75,0,0,1-.28.34l-1.37.79a.21.21,0,0,1-.28,0,.49.49,0,0,1-.12-.36V47.28a1.11,1.11,0,0,1,.12-.49.74.74,0,0,1,.28-.35Z"/><path class="cls-9" d="M214.86,27.55a.21.21,0,0,1,.28,0,.49.49,0,0,1,.12.36v1.61a1.29,1.29,0,0,1-.11.53c-.07.19-.14.35-.21.5l-2.15,4.73a2.68,2.68,0,0,1,1.2-.19,1.56,1.56,0,0,1,.92.41,2.37,2.37,0,0,1,.59,1,6,6,0,0,1,.2,1.65,8.52,8.52,0,0,1-.3,2.27,8.76,8.76,0,0,1-.84,2,9,9,0,0,1-1.26,1.71,7.17,7.17,0,0,1-1.59,1.25,4.4,4.4,0,0,1-1.79.66,2,2,0,0,1-1.26-.23,2,2,0,0,1-.78-.89,3.93,3.93,0,0,1-.31-1.3,1,1,0,0,1,.11-.5.84.84,0,0,1,.29-.34l1.16-.67a.19.19,0,0,1,.25,0,1.18,1.18,0,0,1,.2.3,1,1,0,0,0,.23.38.73.73,0,0,0,.39.2,1.22,1.22,0,0,0,.61-.05,3.67,3.67,0,0,0,.9-.4,4.05,4.05,0,0,0,1.45-1.4,3.45,3.45,0,0,0,.56-1.89c0-.68-.19-1.06-.56-1.14a2.08,2.08,0,0,0-1.45.39l-1.22.71a.22.22,0,0,1-.28,0,.5.5,0,0,1-.12-.37V37.31a1.47,1.47,0,0,1,.11-.52c.08-.19.15-.36.22-.5l2.06-4.53-4.07,2.35a.21.21,0,0,1-.28,0,.49.49,0,0,1-.12-.36V32.12a1.15,1.15,0,0,1,.12-.5.7.7,0,0,1,.28-.34Z"/><path class="cls-9" d="M217.75,36.38a9.83,9.83,0,0,1,.31-2.4c.2-.71.42-1.43.68-2.13l2.8-7.7c0-.11.09-.24.15-.38a.77.77,0,0,1,.3-.34l1.33-.76a.21.21,0,0,1,.28,0,.47.47,0,0,1,.12.36.92.92,0,0,1,0,.19,1.16,1.16,0,0,1-.06.15l-1.82,5.09a3.49,3.49,0,0,1,1.6-.49,1.88,1.88,0,0,1,1.25.41,2.67,2.67,0,0,1,.81,1.28,6.6,6.6,0,0,1,.29,2.08,10.08,10.08,0,0,1-.3,2.45,10.65,10.65,0,0,1-.82,2.24,9.25,9.25,0,0,1-1.27,1.88,6.36,6.36,0,0,1-1.62,1.34,3.46,3.46,0,0,1-1.62.53,1.92,1.92,0,0,1-1.27-.41,2.75,2.75,0,0,1-.82-1.3A6.41,6.41,0,0,1,217.75,36.38Zm6-3.47a2.13,2.13,0,0,0-.52-1.63c-.35-.32-.84-.3-1.48.07A3.65,3.65,0,0,0,220.28,33a5.07,5.07,0,0,0-.52,2.24,2.23,2.23,0,0,0,.52,1.66c.35.33.84.32,1.48,0a3.65,3.65,0,0,0,1.48-1.66A5.26,5.26,0,0,0,223.76,32.91Z"/><path class="cls-9" d="M229.58,31.48a.22.22,0,0,1,.28,0,.5.5,0,0,1,.12.37v2.22a1.18,1.18,0,0,1-.12.5.75.75,0,0,1-.28.34l-1.37.79a.21.21,0,0,1-.28,0,.47.47,0,0,1-.12-.36V33.12a1.11,1.11,0,0,1,.12-.5.79.79,0,0,1,.28-.35Z"/><path class="cls-9" d="M234.16,28.84a.2.2,0,0,1,.28,0,.46.46,0,0,1,.12.36v2.22a1.15,1.15,0,0,1-.12.5.7.7,0,0,1-.28.34l-1.37.8a.22.22,0,0,1-.28,0,.5.5,0,0,1-.12-.37V30.47a1.15,1.15,0,0,1,.12-.5.75.75,0,0,1,.28-.34Z"/><path class="cls-9" d="M238.74,26.19a.22.22,0,0,1,.28,0,.49.49,0,0,1,.12.36V28.8a1.18,1.18,0,0,1-.12.5.75.75,0,0,1-.28.34l-1.37.79a.21.21,0,0,1-.28,0,.49.49,0,0,1-.11-.36V27.82a1.09,1.09,0,0,1,.11-.49.79.79,0,0,1,.28-.35Z"/></g></g><g id="Chair"><g id="Chair-2" data-name="Chair"><path class="cls-10" d="M298.74,352a1.49,1.49,0,0,0,1.49-1.49V255.15a1.49,1.49,0,1,0-3,0v95.39A1.49,1.49,0,0,0,298.74,352Z"/><path class="cls-10" d="M239.72,317.3a1.48,1.48,0,0,0,1.38-.94l29.25-74a1.48,1.48,0,0,0-2.76-1.09l-29.25,74a1.48,1.48,0,0,0,.84,1.92A1.44,1.44,0,0,0,239.72,317.3Z"/><path class="cls-10" d="M243.23,308.41a1.5,1.5,0,0,0,1.08-.46l54.44-57.6,54.33,57.35a1.48,1.48,0,1,0,2.15-2l-55.41-58.49a1.48,1.48,0,0,0-1.08-.47h0a1.47,1.47,0,0,0-1.07.47l-55.51,58.74a1.48,1.48,0,0,0,.06,2.1A1.45,1.45,0,0,0,243.23,308.41Z"/><path class="cls-10" d="M357.77,317.3a1.47,1.47,0,0,0,1.37-2l-29.25-74a1.48,1.48,0,0,0-2.76,1.09l29.26,74A1.47,1.47,0,0,0,357.77,317.3Z"/><path class="cls-3" d="M241.74,306.12l-3.87,10.21a1.15,1.15,0,0,0,0,.26.6.6,0,0,0,0,.19,1.19,1.19,0,0,0,.58.64,2.56,2.56,0,0,0,2.35,0,1,1,0,0,0,.46-.48v0l0-.14,3.59-9.57Z"/><path class="cls-3" d="M355.75,306.12l3.87,10.21a1.15,1.15,0,0,1,0,.26.6.6,0,0,1,0,.19,1.23,1.23,0,0,1-.58.64,2.59,2.59,0,0,1-2.36,0,1.07,1.07,0,0,1-.45-.48v0l0-.14-3.58-9.57Z"/><path class="cls-3" d="M297,343.16v8.44a.86.86,0,0,0,.5.7,2.71,2.71,0,0,0,2.42,0,.84.84,0,0,0,.5-.7v-8.44A3.63,3.63,0,0,0,297,343.16Z"/><path class="cls-3" d="M232.4,241.32c0-2.66,2.33-5.49,7.25-8.68,9.1-5.9,35.57-20.68,48.3-27.73a.12.12,0,0,1,.11-.1c9.79-5.95,12.77-31.31,19.54-52.82,2.31-7.33,5.14-11.48,8.5-13.43.79-.46,3.73-2.08,4.38-2.47,6.65-4,15.38.8,26.25,6.75,10,5.49,17.84,12.5,19.41,31.12,1,11.34.05,33-2.25,49.42h0c-3.33,27.43-7.42,27.47-13.36,32.06-10.23,7.9-33.26,19-43,22.82-17.6,6.93-32-3.75-42.71-9a251.12,251.12,0,0,1-28.41-16.83c-2.68-1.95-4.07-3.92-4-6C232.42,245.56,232.4,242.18,232.4,241.32Z"/><path class="cls-11" d="M232.4,241.32c0-2.66,2.33-5.49,7.25-8.68,9.1-5.9,35.57-20.68,48.3-27.73a.12.12,0,0,1,.11-.1c9.79-5.95,12.77-31.31,19.54-52.82,2.31-7.33,5.14-11.48,8.5-13.43.79-.46,3.73-2.08,4.38-2.47,6.65-4,15.38.8,26.25,6.75,10,5.49,17.84,12.5,19.41,31.12,1,11.34.05,33-2.25,49.42h0c-3.33,27.43-7.42,27.47-13.36,32.06-10.23,7.9-33.26,19-43,22.82-17.6,6.93-32-3.75-42.71-9a251.12,251.12,0,0,1-28.41-16.83c-2.68-1.95-4.07-3.92-4-6C232.42,245.56,232.4,242.18,232.4,241.32Z"/><path class="cls-3" d="M264.86,264.1a248.13,248.13,0,0,1-28.41-16.83c-6.1-4.43-5.54-9,3.2-14.63,12.15-7.88,55.29-31.59,55.29-31.59s62.59,36.94,59.9,43.76-35.06,23.54-47.27,28.34C290,280.08,275.58,269.4,264.86,264.1Z"/><path class="cls-3" d="M316.49,138.34c6.58-3.46,15.15,1.24,25.74,7,6.78,3.72,12.56,8.12,16.08,16.37l4.47-2.59c-3.51-8.21-9.28-12.62-16-16.33-10.87-6-19.6-10.73-26.25-6.75C319.9,136.43,317.59,137.72,316.49,138.34Z"/><path class="cls-12" d="M316.49,138.34c6.58-3.46,15.15,1.24,25.74,7,6.78,3.72,12.56,8.12,16.08,16.37l4.47-2.59c-3.51-8.21-9.28-12.62-16-16.33-10.87-6-19.6-10.73-26.25-6.75C319.9,136.43,317.59,137.72,316.49,138.34Z"/><path class="cls-3" d="M342.23,145.39c-16.27-8.91-27.75-15.23-34.63,6.6-6.77,21.51-9.75,46.87-19.54,52.82,0,0,6.38,2.1,29.15,13.28,9.35,4.59,15.49,9.21,24.25,14.72,12.88,8.1,11.9,14.12,11.9,14.12,6.4-5.3,9.86-51.8,8.29-70.42S352.25,150.87,342.23,145.39Z"/><g class="cls-13"><path d="M342.23,145.39c-16.27-8.91-27.75-15.23-34.63,6.6-6.77,21.51-9.75,46.87-19.54,52.82,0,0,6.38,2.1,29.15,13.28,9.35,4.59,15.49,9.21,24.25,14.72,12.88,8.1,11.9,14.12,11.9,14.12,6.4-5.3,9.86-51.8,8.29-70.42S352.25,150.87,342.23,145.39Z"/></g></g></g><g id="Character"><g id="Character-2" data-name="Character"><g id="Boy"><path class="cls-14" d="M125.39,85.38c8.91.42,14.66,2,19.32,7.48s28.12,38.84,28.12,38.84-4.12,11.56-13.14,10.58L142,120.85Z"/><path class="cls-15" d="M126.1,85.19s9.49.16,13.81,3.19S145,92,151.35,100.88s12.1,16.77,12.1,16.77A27.2,27.2,0,0,1,148,129.38l-18.76-22.61Z"/><g id="Botom"><polygon class="cls-14" points="80.31 351.12 95.1 351.12 94.8 328.47 80.31 330.74 80.31 351.12"/><polygon class="cls-14" points="130.36 335.94 144.38 336.42 143.83 312.31 128.33 311.4 130.36 335.94"/><path class="cls-16" d="M110.63,374.92c.43.4.3,3.15-.17,3.88s-5.4,3.27-10.65,3.65c-5,.35-9.48-.32-12.42-2.19s-4.36-3.93-4.64-6.78,0-5.61-1.32-7.8c-1.26-2-3.26-4.32-3.69-5.42-.95-2.39,0-5.81,0-5.81Z"/><path class="cls-10" d="M96.92,350a11,11,0,0,0,.58,3.17,29,29,0,0,0,3.07,6.28,26.24,26.24,0,0,0,2.09,3c1.51,1.8,3.39,3.28,5,5a10.24,10.24,0,0,1,3.09,6.15c.22,3.93-6,5.26-9.33,5.85a24,24,0,0,1-10.67-.54,9.79,9.79,0,0,1-7.19-7.83c-.18-1.09-.11-2.2-.24-3.3a15.44,15.44,0,0,0-3.06-6.87,20.61,20.61,0,0,1-2.34-3.75c-1-2.43-.21-5.16.45-7.59.57-2.09,1.21-4.46,1.94-4.26,0,1.08,0,1.2.78,1.93,1,.93,1,2.33,2.06,3.15a15.47,15.47,0,0,1-.73-2.79,1.59,1.59,0,0,1,.23-1.11,2.94,2.94,0,0,1,1.2-.65,24.4,24.4,0,0,1,4.77-1.08,28.54,28.54,0,0,1,6.66,0,2,2,0,0,1,1.17.68,2.37,2.37,0,0,1,.42,1.34C96.94,347.34,96.89,349,96.92,350Z"/><path class="cls-17" d="M101.1,360.29c-1.47-1.1-6.74-1.12-8.54-.92a10.86,10.86,0,0,0-5.09,1.78A1.17,1.17,0,0,1,86,361h0a1.09,1.09,0,0,1,.11-1.67,11,11,0,0,1,5.73-2.13,28.89,28.89,0,0,1,7.71.45S101.53,359,101.1,360.29Z"/><path class="cls-17" d="M104.46,364.31c-1.84-1.09-7.44-.93-9.24-.74a10.2,10.2,0,0,0-5,1.89,1.17,1.17,0,0,1-1.5-.12h0a1.09,1.09,0,0,1,.11-1.67c1.09-.81,5.2-2.11,7.86-2.29,4.41-.32,5.56.59,5.56.59A3.64,3.64,0,0,1,104.46,364.31Z"/><path class="cls-17" d="M90.06,353a21.52,21.52,0,0,1,7.54.47c.78.43,1.29,1.66.79,2-1-.55-4.75-.77-6.92-.68a14.73,14.73,0,0,0-4.77,1.32c-.37.16-.82.4-1.21.61a1,1,0,0,1-1.45-.45h0a1,1,0,0,1,.38-1.26A14.16,14.16,0,0,1,90.06,353Z"/><path class="cls-16" d="M171.9,352.25a4.76,4.76,0,0,1-.2,3.5c-.48,1-5.83,4-13,3.55a30,30,0,0,1-14.91-5.21c-2.75-1.82-5.61-2.16-9.18-2.36s-8.26-2-9-3.66.12-4.54.12-4.54Z"/><path class="cls-10" d="M142.81,329.75l.57-.12a2.35,2.35,0,0,1,1-.05,2,2,0,0,1,.89.6,18.48,18.48,0,0,1,1.84,2.9c1.51,2.46,4.68,4.5,8.15,6.36,2.35,1.27,4.66,2.25,7.09,3.35s5.77,1.79,7.72,3.1c2.82,1.91,3.19,6.7,0,8.59-2.78,1.63-10.1,3.4-17.77,1.23-4.18-1.19-8.82-5.65-14.31-6.08-3.49-.27-10.09-1.25-12.33-3.9-.83-1.18.27-4.9,1.18-8.12,1-3.51,1.94-9,3.11-8.68a1.58,1.58,0,0,0,.6,1.31,18.07,18.07,0,0,0,1.48,1.13,9.36,9.36,0,0,1,1.93,2.78,2.07,2.07,0,0,0,1,1.07c.59.22,1-.15,1.55-.38a2.93,2.93,0,0,1,2.08-.15,12.88,12.88,0,0,0-.37-2.06,1.28,1.28,0,0,1,0-.67,1,1,0,0,1,.45-.5A11.27,11.27,0,0,1,142.81,329.75Z"/><path class="cls-17" d="M152,337.55a3.24,3.24,0,0,0-2.58-1.73c-1.59-.29-4.39.88-6.13,2.31a1.3,1.3,0,0,0,.19,2.15h0a1.28,1.28,0,0,0,1.48-.16A9.93,9.93,0,0,1,152,337.55Z"/><path class="cls-17" d="M156.87,340.3a3.74,3.74,0,0,0-3.05-1.57s-4.15.12-6.72,2.51a1.27,1.27,0,0,0,.18,2.08h0a1.22,1.22,0,0,0,1.43-.17A10,10,0,0,1,156.87,340.3Z"/><path class="cls-17" d="M162.3,342.79a4.17,4.17,0,0,0-3.17-1.42,11.15,11.15,0,0,0-6.43,2.53,1.27,1.27,0,0,0,.18,2.08h0a1.24,1.24,0,0,0,1.43-.16A9.51,9.51,0,0,1,162.3,342.79Z"/><path class="cls-3" d="M82.56,170.31c-.91,27.52-1,83.82-1,83.82-.29,3.42-.58,9.51-.84,21.84-.37,17.88-.43,63.83-.43,63.83a26.09,26.09,0,0,0,15.56-1.07S106.78,276.67,109,259c1.95-15.45,5.26-57.42,5.26-57.42L121,252a173.25,173.25,0,0,0-.46,23.74c.58,8.18,8.91,50.28,8.91,50.28s6.2,2.88,14.73,0c0,0,.12-66.51.27-74,.16-8.57-.78-96.42-.78-96.42Z"/><path class="cls-11" d="M82.56,170.31c-.91,27.52-1,83.82-1,83.82-.29,3.42-.58,9.51-.84,21.84-.37,17.88-.43,63.83-.43,63.83a26.09,26.09,0,0,0,15.56-1.07S106.78,276.67,109,259c1.95-15.45,5.26-57.42,5.26-57.42L121,252a173.25,173.25,0,0,0-.46,23.74c.58,8.18,8.91,50.28,8.91,50.28s6.2,2.88,14.73,0c0,0,.12-66.51.27-74,.16-8.57-.78-96.42-.78-96.42Z"/><path class="cls-7" d="M114.27,201.55s10-2.8,17.35-10c0,0-3.35,6.27-13.31,12.1l2.13,44Z"/></g><g id="Chest"><path class="cls-10" d="M107,84.21c-5.58.55-13.39.61-18.92,1.17C84.24,87,76.86,93.39,77.41,98c2,17.15,5.63,45.47,5.63,45.47L82,173c7.67,7.65,43.89,10.63,62.38-1.61,0,0-.6-53.52-1.87-62.54-2.28-16.22-4.28-22.24-12.65-23.68S107,84.21,107,84.21Z"/><circle class="cls-16" cx="122.89" cy="44.03" r="17.28" transform="translate(37.6 142.86) rotate(-68.91)"/><path class="cls-16" d="M92.91,56.06S95.6,69.24,96.7,71.41a6,6,0,0,0,3.42,2.81L100,65Z"/><path class="cls-16" d="M96.59,37.24a6.45,6.45,0,0,0-5.38,1.84c-2.33,2.33-1.11,9.72,1.7,17l5.27.65Z"/><path class="cls-14" d="M99.76,56.73c-1.06.62-2.55-1.43-3.84-2.8s-5.54-3.28-7.7,1.18S90,65.71,93.34,66.79C99.11,68.66,100,65,100,65l.23,21.48h0c7.11,9.27,27.05,8.67,18.83-1l0-6.35s5.23.84,7.78.47c4.26-.62,7-4,8.29-8.53,2.13-7.37,3-13.33,1.34-27.88-1.78-15.94-20.3-16.27-30.36-10.06S99.76,56.73,99.76,56.73Z"/><path class="cls-16" d="M99.75,58.51c-.53,0-2.53-3.37-3.83-4.58-1.81-1.68.67-16.69.67-16.69a7.3,7.3,0,0,1,1.33-8.11c2.52-2.73,6-6.06,17.37-4.62,8.08,1,16.85,3.63,24,.2A12.1,12.1,0,0,1,135,37.53s-2.59,1.63-9.37,2.4-17.31-.31-18.75-.52c-2-.29-2.39,1.61-3.5,6.8C102.37,50.76,101.54,58.49,99.75,58.51Z"/><path class="cls-16" d="M96.59,38.41l-6.36-3.49a3.51,3.51,0,0,1,4.85-1.56A3.81,3.81,0,0,1,96.59,38.41Z"/><path class="cls-18" d="M119.11,79.07s-9.47-2-12.77-3.78a11,11,0,0,1-4.55-4.58,15.05,15.05,0,0,0,2.56,5.38c2.4,3.12,14.74,5.51,14.74,5.51Z"/><path class="cls-16" d="M120.77,56.08a1.9,1.9,0,1,1-1.88-2A1.93,1.93,0,0,1,120.77,56.08Z"/><path class="cls-16" d="M119.62,47.23l-4,2.42a2.45,2.45,0,0,1,.81-3.28A2.27,2.27,0,0,1,119.62,47.23Z"/><path class="cls-16" d="M136,51.79l-3.59-3a2.26,2.26,0,0,1,3.25-.37A2.46,2.46,0,0,1,136,51.79Z"/><path class="cls-16" d="M134.41,56.08a1.82,1.82,0,1,1-1.8-1.92A1.85,1.85,0,0,1,134.41,56.08Z"/><polygon class="cls-18" points="125.7 53.61 124.99 65.04 131.16 63.71 125.7 53.61"/><path class="cls-18" d="M121.44,70.06a1.82,1.82,0,1,1-1.82-1.82A1.81,1.81,0,0,1,121.44,70.06Z"/></g><path class="cls-14" d="M65.75,64.05C70,59.48,72.93,56,76.78,52.1,79,49.89,80.38,48.29,82.5,46c1.46-1.57,2.36-2.93,3.83-3.31a12,12,0,0,0,4.45-2.4A25.51,25.51,0,0,0,93,38a37.53,37.53,0,0,1,8.31-6.76c3.24-1.94,6.74-3.3,10-5.12,2-1.09,4.16-3,2.14-5.23a5.38,5.38,0,0,0-2.35-1.43c-5.34-1.74-10.32-.31-15.84.47a41.52,41.52,0,0,0-6.69,1.52,11.31,11.31,0,0,0-3.16,1.39,15.7,15.7,0,0,0-3.54,4.06c-2.83,3.94-7.61,7.63-11.43,10.53-4.47,3.39-8.86,7-13.44,10.25a158.1,158.1,0,0,0-13.49,10.4c-3.54,3.1-3.18,5.15-2.82,6.13,2,5.59,4.7,7.8,7.81,11.46,6.48,7.64,34.62,36.39,34.62,36.39L87.54,104A20.45,20.45,0,0,0,83,78.79C77.09,73.66,70.72,68.12,65.75,64.05Z"/><path class="cls-15" d="M91.35,84.82c-8-6.24-22.14-18.28-22.14-18.28S68.65,80.7,58.42,87.61c0,0,18.71,20,23.62,24.81,4.56-1,8.47-4.68,9.78-11.74C94,88.73,91.35,84.82,91.35,84.82Z"/><path class="cls-18" d="M65.75,64.05a20.7,20.7,0,0,1-10.22,5.54s4.63,1.38,12.09-4Z"/></g><g id="Lista"><g id="Paper"><path class="cls-1" d="M185.63,364.46c-1.95-1.13-3.7-1.35-4.95-.63-1.4.81-2.21,2.83-2.21,5.53v19.55c0,5.8-2.05,10.21-5.77,12.45l22.08-12.73v-7.54C194.78,374.94,190.59,367.32,185.63,364.46Z"/><path class="cls-1" d="M220.15,403.15c-1.42-.82-2.68-1-3.55-.5s-1.57,2.06-1.57,4.08v12.83c0,3.49-1.3,6.24-3.57,7.55L227.28,418v-1.88C227.28,411.32,224,405.38,220.15,403.15Z"/><path class="cls-4" d="M185.63,364.46c-1.95-1.13-3.7-1.35-4.95-.63-1.4.81-2.21,2.83-2.21,5.53v19.55c0,5.8-2.05,10.21-5.77,12.45l22.08-12.73v-7.54C194.78,374.94,190.59,367.32,185.63,364.46Z"/><path class="cls-4" d="M220.15,403.15c-1.42-.82-2.68-1-3.55-.5s-1.57,2.06-1.57,4.08v12.83c0,3.49-1.3,6.24-3.57,7.55L227.28,418v-1.88C227.28,411.32,224,405.38,220.15,403.15Z"/><path class="cls-1" d="M298.34,400.25l-13.29,7.67-1.73,1-35.79,20.64v9.38c0,3.18-1.15,5.64-3.25,6.92L297,415.48c2.18-1.26,3.38-3.75,3.38-7V399.1Z"/><polygon class="cls-9" points="298.34 399.1 284.54 407.06 282.81 408.06 245.53 429.56 247.53 429.56 283.32 408.92 285.05 407.92 298.34 400.25 300.34 399.1 298.34 399.1"/><path class="cls-1" d="M127.73,169.25v20.64c0,4.14-2.73,5.92-6.1,4a13.48,13.48,0,0,1-6.09-10.55v-7Z"/><path class="cls-19" d="M132.82,151a2.35,2.35,0,0,0-2.17-.38,3.09,3.09,0,0,0-.92,2.63v36.6c0,2.72-1,4.9-2.79,6l11-6.33V160.33C137.91,156.89,135.58,152.63,132.82,151Z"/><polygon class="cls-9" points="127.73 168.1 127.73 169.25 115.54 176.28 113.54 176.28 127.73 168.1"/><path class="cls-9" d="M282.09,398.48V385.65c0-5.52-3.64-12.1-8.13-14.69-2.09-1.21-4-1.34-5.44-.56l-.31.18-18.53,10.69-1.87,1.07-32,18.46c1.43-.71,3.29-.56,5.33.62,4.49,2.59,8.13,9.17,8.13,14.69v12.83c0,5.53,3.64,12.1,8.12,14.7s8.13.49,8.13-4.7v-9.38l37.28-21.5,1.73-1A18.14,18.14,0,0,1,282.09,398.48Z"/><path class="cls-17" d="M249.59,379.72V350.63c0-6.91-4.54-15.13-10.15-18.37-2.61-1.5-5-1.66-6.79-.71l-.46.27L196.84,352.2l-1.7,1L180,362c1.79-.89,4.12-.7,6.68.77,5.61,3.24,10.15,11.46,10.15,18.37v29.09c0,5.53,3.64,12.1,8.13,14.69s8.12.22,8.12-5.31V406.73c0-2.93,1-5,2.66-5.86l.13-.07,32-18.46,1.87-1.07A13.56,13.56,0,0,1,249.59,379.72Z"/><path class="cls-9" d="M192.72,336.89v-207c0-4.14-2.73-9.08-6.09-11a4.16,4.16,0,0,0-4.08-.42l-.24.14-52.5,30.28a4.21,4.21,0,0,1,4,.46c3.36,1.94,6.09,6.88,6.09,11v207c0,11,7.76,24.48,17.32,30l1.92,1.11c9.57,5.52,17.32,1.24,17.32-9.55V369.36c0-3.52,1.18-6,3.09-7.19L180,362l15.19-8.76,1.7-1A34.33,34.33,0,0,1,192.72,336.89Z"/><path class="cls-10" d="M247.53,429.56v9.38c0,3.18-1.15,5.64-3.25,6.92L244,446a6.22,6.22,0,0,1-3,.75,9.37,9.37,0,0,1-4.63-1.38c-5.11-3-9.12-10.17-9.12-16.43V416.11c0-4.79-3.26-10.73-7.13-13-1.42-.82-2.68-1-3.55-.5s-1.57,2.06-1.57,4.08v12.83c0,3.49-1.3,6.24-3.57,7.55s-4.84,1.06-7.55-.51c-5.12-3-9.13-10.16-9.13-16.42V381.09c0-6.15-4.19-13.77-9.15-16.63-1.95-1.13-3.7-1.35-4.95-.63-1.4.81-2.21,2.83-2.21,5.53v19.55c0,5.8-2.05,10.21-5.77,12.45l-.31.18h0c-3.9,2.17-9,1.69-14.22-1.36l-1.92-1.11c-10.1-5.83-18.32-20.07-18.32-31.73v-207c0-3.44-2.33-7.7-5.09-9.29a2.35,2.35,0,0,0-2.17-.38,3.09,3.09,0,0,0-.92,2.63v36.6c0,2.72-1,4.9-2.79,6l-.3.17a6.08,6.08,0,0,1-6-.47,15.49,15.49,0,0,1-7.09-12.29v-7h2v7a13.48,13.48,0,0,0,6.09,10.55c3.37,1.94,6.1.16,6.1-4v-36.6c0-2.13.72-3.63,1.88-4.33l.2-.11a4.21,4.21,0,0,1,4,.46c3.36,1.94,6.09,6.88,6.09,11v207c0,11,7.76,24.48,17.32,30l1.92,1.11c9.57,5.52,17.32,1.24,17.32-9.55V369.36c0-3.52,1.18-6,3.09-7.19L180,362c1.79-.89,4.12-.7,6.68.77,5.61,3.24,10.15,11.46,10.15,18.37v29.09c0,5.53,3.64,12.1,8.13,14.69s8.12.22,8.12-5.31V406.73c0-2.93,1-5,2.66-5.86l.13-.07c1.43-.71,3.29-.56,5.33.62,4.49,2.59,8.13,9.17,8.13,14.69v12.83c0,5.53,3.64,12.1,8.12,14.7s8.13.49,8.13-4.7v-9.38Z"/><path class="cls-20" d="M194.78,388.63v-7.54c0-6.15-4.19-13.77-9.15-16.63-1.95-1.13-3.7-1.35-4.95-.63-1.4.81-2.21,2.83-2.21,5.53v1.58c0-5.36,9.28-5.18,9.28,9.79v12Z"/><path class="cls-20" d="M227.28,418v-1.88c0-4.79-3.26-10.73-7.13-13-1.42-.82-2.68-1-3.55-.5s-1.57,2.06-1.57,4.08v6.42c0-6.42,7-2.91,7,1.86v6Z"/><path class="cls-21" d="M137.91,189.57V160.33c0-3.44-2.33-7.7-5.09-9.29a2.35,2.35,0,0,0-2.17-.38,3.09,3.09,0,0,0-.92,2.63v6.58c0-4.46,4.86-2.87,4.86,5.42v26.2Z"/></g><g id="Text"><path class="cls-3" d="M277.29,386.19a3.09,3.09,0,0,0-1.39,2.41c0,.88.63,1.24,1.39.8a3.09,3.09,0,0,0,1.4-2.41C278.69,386.1,278.06,385.74,277.29,386.19Z"/><path class="cls-3" d="M277.29,402.16a3.12,3.12,0,0,0-1.39,2.41c0,.89.63,1.25,1.39.81a3.1,3.1,0,0,0,1.4-2.41C278.69,402.08,278.06,401.72,277.29,402.16Z"/><path class="cls-3" d="M268.39,374.41a3.06,3.06,0,0,0,2.74.48.85.85,0,0,0,.28-1.58,3.06,3.06,0,0,0-2.74-.48A.85.85,0,0,0,268.39,374.41Z"/><g class="cls-22"><path class="cls-10" d="M225.22,399.58a.52.52,0,0,1-.44-.25.5.5,0,0,1,.19-.68L264.16,376a.5.5,0,0,1,.5.86l-39.19,22.63A.47.47,0,0,1,225.22,399.58Z"/><path class="cls-10" d="M230.56,405.13a.5.5,0,0,1-.25-.93l39.2-22.63a.5.5,0,0,1,.68.18.51.51,0,0,1-.18.69l-39.2,22.62A.45.45,0,0,1,230.56,405.13Z"/><path class="cls-10" d="M233.26,412.79a.5.5,0,0,1-.43-.25.51.51,0,0,1,.18-.69l39.2-22.62a.5.5,0,1,1,.5.86l-39.2,22.63A.55.55,0,0,1,233.26,412.79Z"/><path class="cls-10" d="M233.34,420.69a.5.5,0,0,1-.43-.25.51.51,0,0,1,.18-.69l39.19-22.62a.5.5,0,1,1,.5.86l-39.19,22.63A.55.55,0,0,1,233.34,420.69Z"/><path class="cls-10" d="M233.43,428.59a.5.5,0,0,1-.43-.25.51.51,0,0,1,.18-.69L272.37,405a.52.52,0,0,1,.69.19.51.51,0,0,1-.19.68l-39.19,22.63A.55.55,0,0,1,233.43,428.59Z"/><path class="cls-10" d="M245.53,429.74v1.15l-9.15,5.28a.47.47,0,0,1-.25.07.5.5,0,0,1-.25-.93Z"/><path class="cls-10" d="M245.53,438.37v.57c0,.2,0,.4,0,.59l-3.8,2.19a.45.45,0,0,1-.25.07.5.5,0,0,1-.25-.93Z"/></g><path class="cls-3" d="M244.76,347.2a3.06,3.06,0,0,0-1.39,2.41c0,.89.62,1.24,1.39.8a3.06,3.06,0,0,0,1.39-2.41C246.15,347.11,245.53,346.76,244.76,347.2Z"/><path class="cls-3" d="M244.76,364.64a3.06,3.06,0,0,0-1.39,2.41c0,.89.62,1.25,1.39.8a3.06,3.06,0,0,0,1.39-2.41C246.15,364.56,245.53,364.2,244.76,364.64Z"/><path class="cls-3" d="M246.15,382.88a1.74,1.74,0,0,1-.06.45l-2.67,1.54a1.46,1.46,0,0,1,0-.38,3.06,3.06,0,0,1,1.39-2.41C245.53,381.63,246.15,382,246.15,382.88Z"/><path class="cls-3" d="M234,335.09a3.08,3.08,0,0,0,2.74.48A.85.85,0,0,0,237,334a3.09,3.09,0,0,0-2.74-.49C233.42,333.81,233.3,334.51,234,335.09Z"/><g class="cls-23"><path class="cls-10" d="M190.69,360.77a.5.5,0,0,1-.43-.25.51.51,0,0,1,.18-.69l39.75-22.92a.5.5,0,0,1,.5.87L190.94,360.7A.55.55,0,0,1,190.69,360.77Z"/><path class="cls-10" d="M196.58,366.49a.5.5,0,0,1-.43-.25.51.51,0,0,1,.18-.69l39.75-22.92a.51.51,0,0,1,.68.19.49.49,0,0,1-.18.68l-39.75,22.92A.55.55,0,0,1,196.58,366.49Z"/><path class="cls-10" d="M200.24,374.52a.51.51,0,0,1-.44-.25.51.51,0,0,1,.19-.68l39.75-22.92a.49.49,0,0,1,.68.18.51.51,0,0,1-.18.69l-39.75,22.92A.57.57,0,0,1,200.24,374.52Z"/><path class="cls-10" d="M200.84,383a.5.5,0,0,1-.25-.93l39.75-22.92a.49.49,0,0,1,.68.18.51.51,0,0,1-.18.69l-39.75,22.92A.54.54,0,0,1,200.84,383Z"/><path class="cls-10" d="M200.84,391.5a.5.5,0,0,1-.25-.93l39.75-22.92a.5.5,0,1,1,.5.86l-39.75,22.92A.45.45,0,0,1,200.84,391.5Z"/><path class="cls-10" d="M200.84,400a.5.5,0,0,1-.25-.93l39.75-22.92a.49.49,0,0,1,.68.18.51.51,0,0,1-.18.69L201.09,400A.54.54,0,0,1,200.84,400Z"/><path class="cls-10" d="M200.85,408.57a.5.5,0,0,1-.25-.93l39.74-22.92a.5.5,0,1,1,.5.87L201.1,408.51A.57.57,0,0,1,200.85,408.57Z"/><path class="cls-10" d="M213,410.15v1.16l-9.47,5.46a.55.55,0,0,1-.25.07.5.5,0,0,1-.43-.25.51.51,0,0,1,.18-.69Z"/><path class="cls-10" d="M213,419.49v.07a10.1,10.1,0,0,1-.06,1.12l-3.75,2.16a.47.47,0,0,1-.25.07.5.5,0,0,1-.25-.93Z"/></g><path class="cls-3" d="M189.14,137.14a3.06,3.06,0,0,0-1.39,2.41c0,.88.62,1.24,1.39.8a3.09,3.09,0,0,0,1.39-2.41C190.53,137.05,189.91,136.69,189.14,137.14Z"/><path class="cls-3" d="M183.09,122.89a3.08,3.08,0,0,0,2.74.49.86.86,0,0,0,.28-1.59,3.09,3.09,0,0,0-2.74-.48A.85.85,0,0,0,183.09,122.89Z"/><path class="cls-3" d="M189.14,162a3.06,3.06,0,0,0-1.39,2.41c0,.89.62,1.25,1.39.8a3.09,3.09,0,0,0,1.39-2.41C190.53,161.87,189.91,161.51,189.14,162Z"/><path class="cls-3" d="M189.14,178.49a3.09,3.09,0,0,0-1.39,2.41c0,.89.62,1.25,1.39.81a3.12,3.12,0,0,0,1.39-2.41C190.53,178.41,189.91,178.05,189.14,178.49Z"/><path class="cls-3" d="M189.14,195a3.06,3.06,0,0,0-1.39,2.41c0,.88.62,1.24,1.39.8a3.09,3.09,0,0,0,1.39-2.41C190.53,195,189.91,194.59,189.14,195Z"/><path class="cls-3" d="M189.14,211.58a3.06,3.06,0,0,0-1.39,2.41c0,.89.62,1.25,1.39.8a3.09,3.09,0,0,0,1.39-2.41C190.53,211.5,189.91,211.14,189.14,211.58Z"/><path class="cls-3" d="M189.14,228.12a3.08,3.08,0,0,0-1.39,2.41c0,.89.62,1.25,1.39.8a3.08,3.08,0,0,0,1.39-2.4C190.53,228,189.91,227.68,189.14,228.12Z"/><path class="cls-3" d="M189.14,244.66a3.09,3.09,0,0,0-1.39,2.41c0,.89.62,1.25,1.39.81a3.1,3.1,0,0,0,1.39-2.41C190.53,244.58,189.91,244.22,189.14,244.66Z"/><path class="cls-3" d="M189.14,261.21a3.06,3.06,0,0,0-1.39,2.41c0,.88.62,1.24,1.39.8a3.09,3.09,0,0,0,1.39-2.41C190.53,261.12,189.91,260.76,189.14,261.21Z"/><path class="cls-3" d="M189.14,277.75a3.06,3.06,0,0,0-1.39,2.41c0,.89.62,1.25,1.39.8a3.09,3.09,0,0,0,1.39-2.41C190.53,277.67,189.91,277.31,189.14,277.75Z"/><path class="cls-3" d="M189.14,294.29a3.09,3.09,0,0,0-1.39,2.41c0,.89.62,1.25,1.39.81a3.12,3.12,0,0,0,1.39-2.41C190.53,294.21,189.91,293.85,189.14,294.29Z"/><path class="cls-3" d="M189.14,310.84a3.06,3.06,0,0,0-1.39,2.41c0,.88.62,1.24,1.39.8a3.1,3.1,0,0,0,1.39-2.41C190.53,310.75,189.91,310.39,189.14,310.84Z"/><path class="cls-3" d="M189.14,327.38a3.06,3.06,0,0,0-1.39,2.41c0,.89.62,1.24,1.39.8a3.09,3.09,0,0,0,1.39-2.41C190.53,327.29,189.91,326.94,189.14,327.38Z"/><path class="cls-3" d="M189.14,343.92a3.08,3.08,0,0,0-1.39,2.41c0,.89.62,1.25,1.39.8a3.09,3.09,0,0,0,1.39-2.41C190.53,343.84,189.91,343.48,189.14,343.92Z"/><g class="cls-24"><path class="cls-10" d="M140,148.59a.5.5,0,0,1-.25-.93l40.54-23.4a.5.5,0,1,1,.5.86l-40.54,23.41A.54.54,0,0,1,140,148.59Z"/><path class="cls-10" d="M143.7,155.73a.48.48,0,0,1-.43-.25.5.5,0,0,1,.18-.68L184,131.4a.5.5,0,1,1,.5.86L144,155.67A.54.54,0,0,1,143.7,155.73Z"/><path class="cls-10" d="M144.7,163.93a.5.5,0,0,1-.44-.25.51.51,0,0,1,.19-.69L185,139.59a.5.5,0,1,1,.5.86L145,163.86A.59.59,0,0,1,144.7,163.93Z"/><path class="cls-10" d="M144.7,172.22a.5.5,0,0,1-.25-.93L185,147.89a.5.5,0,0,1,.68.18.5.5,0,0,1-.18.68L145,172.16A.57.57,0,0,1,144.7,172.22Z"/><path class="cls-10" d="M144.7,180.52a.5.5,0,0,1-.25-.93L185,156.19a.5.5,0,0,1,.68.18.5.5,0,0,1-.18.68L145,180.46A.57.57,0,0,1,144.7,180.52Z"/><path class="cls-10" d="M144.7,188.82a.5.5,0,0,1-.25-.93L185,164.48a.51.51,0,0,1,.68.19.5.5,0,0,1-.18.68L145,188.76A.57.57,0,0,1,144.7,188.82Z"/><path class="cls-10" d="M144.7,197.12a.5.5,0,0,1-.25-.93L185,172.78a.5.5,0,0,1,.5.87L145,197.05A.47.47,0,0,1,144.7,197.12Z"/><path class="cls-10" d="M144.7,205.42a.5.5,0,0,1-.25-.93L185,181.08a.5.5,0,0,1,.68.19.5.5,0,0,1-.18.68L145,205.35A.47.47,0,0,1,144.7,205.42Z"/><path class="cls-10" d="M144.7,213.72a.5.5,0,0,1-.25-.93L185,189.38a.5.5,0,0,1,.68.18.51.51,0,0,1-.18.69L145,213.65A.47.47,0,0,1,144.7,213.72Z"/><path class="cls-10" d="M144.7,222a.5.5,0,0,1-.44-.25.49.49,0,0,1,.19-.68L185,197.68a.5.5,0,0,1,.68.18.51.51,0,0,1-.18.69L145,222A.47.47,0,0,1,144.7,222Z"/><path class="cls-10" d="M144.7,230.32a.5.5,0,0,1-.44-.25.49.49,0,0,1,.19-.68L185,206a.5.5,0,0,1,.68.18.51.51,0,0,1-.18.69L145,230.25A.47.47,0,0,1,144.7,230.32Z"/><path class="cls-10" d="M144.7,238.62a.5.5,0,0,1-.44-.25.49.49,0,0,1,.19-.68L185,214.28a.5.5,0,0,1,.5.86L145,238.55A.47.47,0,0,1,144.7,238.62Z"/><path class="cls-10" d="M144.7,246.92a.5.5,0,0,1-.44-.25.51.51,0,0,1,.19-.69L185,222.58a.5.5,0,1,1,.5.86L145,246.85A.47.47,0,0,1,144.7,246.92Z"/><path class="cls-10" d="M144.7,255.22a.5.5,0,0,1-.44-.25.51.51,0,0,1,.19-.69L185,230.88a.5.5,0,1,1,.5.86L145,255.15A.59.59,0,0,1,144.7,255.22Z"/><path class="cls-10" d="M144.7,263.51a.5.5,0,0,1-.25-.93L185,239.18a.5.5,0,0,1,.68.18.5.5,0,0,1-.18.68L145,263.45A.57.57,0,0,1,144.7,263.51Z"/><path class="cls-10" d="M144.7,271.81a.5.5,0,0,1-.25-.93L185,247.48a.5.5,0,0,1,.68.18.5.5,0,0,1-.18.68L145,271.75A.57.57,0,0,1,144.7,271.81Z"/><path class="cls-10" d="M144.7,280.11a.5.5,0,0,1-.25-.93L185,255.77a.51.51,0,0,1,.68.19.5.5,0,0,1-.18.68L145,280.05A.57.57,0,0,1,144.7,280.11Z"/><path class="cls-10" d="M144.7,288.41a.5.5,0,0,1-.25-.93L185,264.07a.5.5,0,0,1,.5.87L145,288.34A.47.47,0,0,1,144.7,288.41Z"/><path class="cls-10" d="M144.7,296.71a.5.5,0,0,1-.25-.93L185,272.37a.5.5,0,0,1,.68.19.5.5,0,0,1-.18.68L145,296.64A.47.47,0,0,1,144.7,296.71Z"/><path class="cls-10" d="M144.7,305a.5.5,0,0,1-.25-.93L185,280.67a.5.5,0,0,1,.68.19.5.5,0,0,1-.18.68L145,304.94A.47.47,0,0,1,144.7,305Z"/><path class="cls-10" d="M144.7,313.31a.5.5,0,0,1-.44-.25.49.49,0,0,1,.19-.68L185,289a.5.5,0,0,1,.68.18.51.51,0,0,1-.18.69L145,313.24A.47.47,0,0,1,144.7,313.31Z"/><path class="cls-10" d="M144.7,321.61a.5.5,0,0,1-.44-.25.49.49,0,0,1,.19-.68L185,297.27a.5.5,0,0,1,.68.18.51.51,0,0,1-.18.69L145,321.54A.47.47,0,0,1,144.7,321.61Z"/><path class="cls-10" d="M144.7,329.91a.5.5,0,0,1-.44-.25.49.49,0,0,1,.19-.68L185,305.57a.5.5,0,0,1,.68.18.51.51,0,0,1-.18.69L145,329.84A.47.47,0,0,1,144.7,329.91Z"/><path class="cls-10" d="M144.7,338.21a.5.5,0,0,1-.44-.25.51.51,0,0,1,.19-.69L185,313.87a.5.5,0,0,1,.5.86L145,338.14A.47.47,0,0,1,144.7,338.21Z"/><path class="cls-10" d="M144.7,346.51a.5.5,0,0,1-.44-.25.51.51,0,0,1,.19-.69L185,322.17a.5.5,0,1,1,.5.86L145,346.44A.59.59,0,0,1,144.7,346.51Z"/><path class="cls-10" d="M144.7,354.81a.5.5,0,0,1-.44-.25.51.51,0,0,1,.19-.69L185,330.47a.5.5,0,0,1,.68.18.5.5,0,0,1-.18.68L145,354.74A.59.59,0,0,1,144.7,354.81Z"/><path class="cls-10" d="M144.7,363.1a.5.5,0,0,1-.25-.93L185,338.77a.5.5,0,0,1,.68.18.5.5,0,0,1-.18.68L145,363A.57.57,0,0,1,144.7,363.1Z"/><path class="cls-10" d="M145,371.16a.5.5,0,0,1-.25-.93l40.54-23.41a.49.49,0,0,1,.68.18.51.51,0,0,1-.18.69l-40.54,23.4A.45.45,0,0,1,145,371.16Z"/><path class="cls-10" d="M147.16,379.15a.5.5,0,0,1-.43-.25.51.51,0,0,1,.18-.69l40.54-23.4a.5.5,0,1,1,.5.86l-40.54,23.41A.47.47,0,0,1,147.16,379.15Z"/><path class="cls-10" d="M150.93,385.84l25.54-14.74v1.15l-25,14.46a.57.57,0,0,1-.25.06.5.5,0,0,1-.25-.93Z"/><path class="cls-10" d="M157.55,391.62l18.92-10.89v1.15l-18.42,10.6a.45.45,0,0,1-.25.07.5.5,0,0,1-.25-.93Z"/><path class="cls-10" d="M165.7,395.33l10.77-6.16c0,.4,0,.79,0,1.17l-10.23,5.85a.45.45,0,0,1-.25.07.5.5,0,0,1-.25-.93Z"/></g><g class="cls-24"><path class="cls-10" d="M127.73,175.32v1.15l-8.45,4.88a.45.45,0,0,1-.25.07.5.5,0,0,1-.25-.93Z"/><path class="cls-10" d="M127.73,184.58v1.15l-6.26,3.61a.45.45,0,0,1-.25.07.5.5,0,0,1-.25-.93Z"/></g></g></g><g id="Hand"><path class="cls-14" d="M192.72,133.51s-.69,6.28-.84,7.77-4.92,5-8.18,6.53-6.82,3.33-4.35,7.84c2.28,4.15,8.1,4.16,11,3.53s6.3-4.08,7.07-8.78c1-6-1.16-11.84-1-15.28S194.09,131.24,192.72,133.51Z"/></g></g></g></g></svg>