<svg xmlns="http://www.w3.org/2000/svg" viewBox="0 0 453.07 425.85"><defs><style>.cls-1{fill:#ebebeb;}.cls-2{fill:#e0e0e0;}.cls-3{fill:#fafafa;}.cls-4{fill:#f5f5f5;}.cls-5{fill:#263238;}.cls-6{fill:#ffbe9d;}.cls-7{fill:#eb996e;}.cls-8{fill:#455a64;}.cls-9{fill:#e8505b;}.cls-10{opacity:0.6;}.cls-11{fill:#fff;}.cls-12,.cls-15{opacity:0.3;}.cls-13{opacity:0.5;}.cls-14{opacity:0.4;}</style></defs><g id="Layer_2" data-name="Layer 2"><g id="Background_Complete" data-name="Background Complete"><rect class="cls-1" x="144.08" y="337.48" width="104.15" height="80.33"/><path class="cls-2" d="M222.14,417.24c-.14,0-.26-17.9-.26-40s.12-40,.26-40,.26,17.9.26,40S222.29,417.24,222.14,417.24Z"/><rect class="cls-3" x="231.42" y="399.53" width="7.98" height="9.03"/><rect class="cls-2" x="175.86" y="337.69" width="11.83" height="17.14"/><rect class="cls-2" x="175.86" y="400.43" width="11.83" height="17.14"/><rect class="cls-1" x="305.89" y="317.34" width="131.33" height="101.29"/><path class="cls-2" d="M404.32,417.91c-.15,0-.26-22.57-.26-50.42s.11-50.43.26-50.43.26,22.58.26,50.43S404.46,417.91,404.32,417.91Z"/><rect class="cls-3" x="416.02" y="395.57" width="10.07" height="11.38"/><rect class="cls-2" x="345.96" y="317.6" width="14.92" height="21.61"/><rect class="cls-2" x="345.96" y="396.71" width="14.92" height="21.61"/><path class="cls-1" d="M58.53,320.32c5.32-2.74,11.58-3.1,17.48-2.13,3.17.53,6.47,1.48,8.63,3.86s2.57,6.57.09,8.62c-1.47,1.21-3.53,1.4-5.44,1.38-4.62-.06-9.75-.87-13.44,1.91-2.1,1.58-3.51,4.22-6,5s-5.24-.69-6.55-2.91a10.16,10.16,0,0,1-.74-7.51A11.45,11.45,0,0,1,58.53,320.32Z"/><path class="cls-1" d="M46.36,296.81c3.25,4.64,9.56,3.11,12.49.27s4.17-6.94,5.3-10.85c2.57-9,5.17-18.34,3.25-27.45a15.27,15.27,0,0,0-3.5-7.46,8,8,0,0,0-7.55-2.51c-3.19.84-5.17,4-6.6,6.92a65.51,65.51,0,0,0-6.46,28.08c0,4.52.52,9.27,3.07,13"/><path class="cls-1" d="M37.43,303.47c3.53-4.19,4.2-10.3,2.63-15.54s-5.12-9.71-9.21-13.36a49.5,49.5,0,0,0-16.48-9.72A17.58,17.58,0,0,0,7,263.59a7.79,7.79,0,0,0-6.22,3.76C-1,270.66.66,274.67,2.46,278a125.59,125.59,0,0,0,10.83,16.49c3.24,4.18,7,8.31,11.91,10.2s10.08,1.67,12.7-1.76"/><path class="cls-2" d="M46.14,366.83a9.79,9.79,0,0,0,.29-2.11c.15-1.53.34-3.46.56-5.75a82.06,82.06,0,0,1,1.3-8.45,65.89,65.89,0,0,1,3.06-10,37,37,0,0,1,5.09-9,19.13,19.13,0,0,1,6.44-5.35,17.93,17.93,0,0,1,5.42-1.68,10.21,10.21,0,0,0,2.1-.31,9.85,9.85,0,0,0-2.14,0,16.43,16.43,0,0,0-5.65,1.47A18.91,18.91,0,0,0,55.82,331a35.89,35.89,0,0,0-5.27,9.2,61,61,0,0,0-3,10.13,70.79,70.79,0,0,0-1.12,8.55c-.19,2.45-.25,4.43-.29,5.79A9.56,9.56,0,0,0,46.14,366.83Z"/><path class="cls-2" d="M46.53,362.4a4,4,0,0,0,.06-1c0-.74,0-1.67,0-2.8,0-2.43,0-5.95.13-10.29.21-8.68,1-18,2.4-31.19,1.37-12.39,3.21-26.8,5.14-36.17q.63-3.21,1.23-5.73c.37-1.69.69-3.14,1-4.31l.66-2.72a4.1,4.1,0,0,0,.17-1,3.79,3.79,0,0,0-.34.92l-.81,2.68c-.36,1.17-.73,2.61-1.15,4.28s-.91,3.59-1.36,5.72a314.7,314.7,0,0,0-5.4,33.56c-1.45,13.2-2.1,25.22-2.16,33.92-.05,4.35,0,7.87.15,10.3.07,1.14.13,2.07.17,2.8A4,4,0,0,0,46.53,362.4Z"/><path class="cls-2" d="M46.59,339.22a18.64,18.64,0,0,0,0-2.92c-.11-1.88-.37-4.59-.89-7.92a106.81,106.81,0,0,0-2.58-11.54,94,94,0,0,0-4.83-13.66A72.81,72.81,0,0,0,24.1,281.11,36.2,36.2,0,0,0,20.77,278c-.52-.44-1-.87-1.43-1.21l-1.29-.89a18.88,18.88,0,0,0-2.46-1.58c-.14.19,3.49,2.33,8.07,7.2a76.6,76.6,0,0,1,13.81,22,107.93,107.93,0,0,1,4.86,13.53c1.26,4.24,2.1,8.14,2.74,11.43s1,6,1.16,7.84A19.41,19.41,0,0,0,46.59,339.22Z"/><polygon class="cls-1" points="22.64 376.59 24.96 408.41 65.84 408.41 68.16 376.59 22.64 376.59"/><rect class="cls-1" x="18.69" y="364.05" width="54.35" height="12.54"/><polygon class="cls-2" points="18.69 407.2 18.69 410.67 21.24 410.67 72.14 410.67 72.14 407.2 18.69 407.2"/><polygon class="cls-2" points="23.74 416.41 21.24 410.29 70.19 410.29 67.27 416.41 23.74 416.41"/><path class="cls-4" d="M67.4,387s-.05.11-.19.29-.36.49-.61.81l-2.38,3.05-.11.14-.1-.14L58.16,383h.34l-5.76,8.16-.18.26-.21-.24-6.83-8.13h.4l-.38.47-6.11,7.66-.2.26L39,391.2l-5.76-8.15h.33l-7.1,8.09-.12.14-.1-.16-2.22-3.73-.57-1c-.13-.22-.19-.34-.17-.35a1.36,1.36,0,0,1,.23.32c.17.25.38.56.63.95.57.89,1.36,2.12,2.34,3.67l-.22,0,7-8.19.18-.2.15.22,5.82,8.12h-.39l6.09-7.67.38-.47.19-.25.2.24,6.81,8.14-.38,0,5.82-8.12.17-.23.17.23c2.3,3.3,4.26,6.09,5.72,8.18H64l2.48-3,.67-.77C67.31,387.07,67.39,387,67.4,387Z"/><path class="cls-4" d="M68.73,376.38c0,.14-10.24.26-22.88.26S23,376.52,23,376.38s10.24-.25,22.87-.25S68.73,376.24,68.73,376.38Z"/><rect class="cls-2" x="347.22" y="15.57" width="8.38" height="41.7" transform="translate(-0.19 1.88) rotate(-0.31)"/><rect class="cls-1" x="274.57" y="15.72" width="21.7" height="23.02" transform="translate(-0.14 1.53) rotate(-0.31)"/><rect class="cls-4" x="296.17" y="15.6" width="21.7" height="23.02" transform="translate(-0.14 1.64) rotate(-0.31)"/><path class="cls-2" d="M274.55,22.13c14.42.12,28.88,0,43.3-.2a.23.23,0,0,0,0-.46c-14.42-.08-28.88,0-43.3.27a.2.2,0,0,0,0,.39Z"/><rect class="cls-1" x="261.03" y="38.4" width="39.43" height="18.76" transform="translate(-0.25 1.51) rotate(-0.31)"/><rect class="cls-4" x="300.27" y="38.19" width="39.43" height="18.76" transform="translate(-0.25 1.71) rotate(-0.31)"/><path class="cls-2" d="M261,43.72c26.19.3,52.48,0,78.67-.38a.24.24,0,0,0,0-.47c-26.2-.13-52.48-.12-78.67.46a.19.19,0,0,0,0,.39Z"/><rect class="cls-2" x="246.26" y="57.27" width="152.76" height="6.72"/><rect class="cls-2" x="271.27" y="60.5" width="6.2" height="22.93"/><rect class="cls-2" x="363.84" y="60.5" width="6.2" height="22.93"/><rect class="cls-1" x="355.44" y="0.02" width="8.38" height="57.35" transform="translate(-0.15 1.93) rotate(-0.31)"/><rect class="cls-4" x="363.87" y="10.71" width="13.02" height="46.48" transform="translate(-0.18 1.99) rotate(-0.31)"/><path class="cls-2" d="M376.68,19.63a47.64,47.64,0,0,1-6.51.23,47.52,47.52,0,0,1-6.51-.23,92.25,92.25,0,0,1,13,0Z"/><path class="cls-2" d="M376.68,17.68a48.72,48.72,0,0,1-6.51.22,48.59,48.59,0,0,1-6.51-.22,92.25,92.25,0,0,1,13,0Z"/><path class="cls-2" d="M376.68,50.16a47.64,47.64,0,0,1-6.51.23,47.52,47.52,0,0,1-6.51-.23,92.25,92.25,0,0,1,13,0Z"/><path class="cls-2" d="M376.68,48.21a48.72,48.72,0,0,1-6.51.22,48.59,48.59,0,0,1-6.51-.22,92.25,92.25,0,0,1,13,0Z"/><path class="cls-2" d="M370.38,44c-.13,0-.23-4.69-.23-10.47s.1-10.48.23-10.48.22,4.69.22,10.48S370.5,44,370.38,44Z"/><rect class="cls-1" x="376.82" y="22.09" width="14.17" height="35.08"/><circle class="cls-2" cx="359.36" cy="9.79" r="2.41"/><rect class="cls-2" x="358.61" y="16.42" width="1.49" height="34.12"/></g><g id="Character"><path class="cls-5" d="M126.28,51.08a31.92,31.92,0,0,1,7.22,20.46c-.05,4.21-.82,8.87,1.63,12.3,1.86,2.6,5.26,3.9,6.77,6.73,1.82,3.39.27,7.67,1.39,11.36,1.59,5.22,7.7,7.4,11.33,11.48a14.52,14.52,0,0,1,3,13.28,15,15,0,0,1-9.37,9.92,9.75,9.75,0,0,1-7.43-.12c-2.45-1.23-4-3.73-5.19-6.18-2.42-4.82-23.59-30.88-24.79-36.13"/><path class="cls-5" d="M110.88,44.94c-8.66-1.4-17,4.35-20.63,12.32s-3.74,17.05-4,25.81-.89,17.92-5.36,25.46c-2.84,4.79-7.24,9-7.93,14.51C72.34,128,74.89,133,74,137.87c-.73,4.28-4,8-3.86,12.33.15,5.22,5.52,9.15,10.74,9.29S91,156.9,95.1,153.65a54.68,54.68,0,0,0,15.57-19.78"/><path class="cls-6" d="M96.64,65.58a16.39,16.39,0,0,1,14.73-18.36c8.74-.83,16.5,5.68,17.81,14.36,1.15,7.61,2.14,15.29,2.1,18.08-.11,8.41-5,11.68-7,12.67a11.82,11.82,0,0,1-2.22.55h0a0,0,0,0,0,0,.06l1.87,9.66c.84,6.32-2.69,12-9,12.89s-11.29-3.94-12.25-10.27Z"/><path class="cls-5" d="M127.46,65.26c-.14.2-1.25-.4-2.67-.19s-2.36,1.08-2.54.93,0-.4.44-.8a3.58,3.58,0,0,1,2-1,3.5,3.5,0,0,1,2.16.36C127.34,64.88,127.53,65.17,127.46,65.26Z"/><path class="cls-5" d="M114.8,68.34c-.14.2-1.25-.4-2.67-.19s-2.37,1.08-2.55.92,0-.4.45-.79a3.65,3.65,0,0,1,2-1,3.57,3.57,0,0,1,2.16.37C114.67,68,114.87,68.25,114.8,68.34Z"/><path class="cls-5" d="M120,76a9.62,9.62,0,0,1,2.25-.75c.36-.09.69-.22.72-.47a1.8,1.8,0,0,0-.4-1l-1.48-2.62c-2.07-3.72-3.62-6.8-3.47-6.89s2,2.87,4,6.6c.5.92,1,1.79,1.43,2.63a2.11,2.11,0,0,1,.4,1.4.94.94,0,0,1-.52.62,2.48,2.48,0,0,1-.6.18A9.14,9.14,0,0,1,120,76Z"/><path class="cls-7" d="M122,92.88s-5.43,1.26-12.91-1.87c0,0,3.22,6.95,13.41,4.48Z"/><path class="cls-5" d="M114.08,64.61c-.08.41-1.53.43-3.17.87s-2.93,1.1-3.2.79c-.12-.15.06-.55.55-1a5.6,5.6,0,0,1,2.28-1.19,5.39,5.39,0,0,1,2.57-.07C113.76,64.16,114.12,64.42,114.08,64.61Z"/><path class="cls-5" d="M126.29,62.11c-.2.36-1.23.16-2.41.32s-2.15.54-2.43.23c-.12-.15,0-.5.38-.87a3.54,3.54,0,0,1,3.9-.44C126.2,61.62,126.38,61.93,126.29,62.11Z"/><path class="cls-5" d="M111.71,70.18a1.19,1.19,0,0,0,1.35.95,1.13,1.13,0,0,0,1-1.28,1.18,1.18,0,0,0-1.35-.95A1.14,1.14,0,0,0,111.71,70.18Z"/><path class="cls-5" d="M124.32,67.45a1.18,1.18,0,0,0,1.35,1,1.14,1.14,0,0,0,1-1.28,1.19,1.19,0,0,0-1.35-1A1.13,1.13,0,0,0,124.32,67.45Z"/><path class="cls-7" d="M122.23,78.74a1.79,1.79,0,0,0-2.08.87,1.81,1.81,0,0,0,.26,2.11,1.6,1.6,0,0,0,2.07.15,2,2,0,0,0,.66-1.36,1.91,1.91,0,0,0-.33-1.36,1.11,1.11,0,0,0-1.27-.39"/><path class="cls-5" d="M128.07,54.77a12.93,12.93,0,0,0-5.48-7.71,14.38,14.38,0,0,0-7.66-2.68,10.48,10.48,0,0,0-7.53,2.73,7.84,7.84,0,0,0-2.29,5.42l.16-1.4a5.1,5.1,0,0,0,0,3.53h0c.23.61.51,1.22.76,1.84a7.88,7.88,0,0,0,3.73,4.07,5.14,5.14,0,0,0,2.5.61,3.07,3.07,0,0,0,2.27-1.11,5,5,0,0,0,.54-3.58,8.83,8.83,0,0,0,2.73,3,3,3,0,0,0,3.77-.43c.81-1.06.49-2.58,0-3.83a7.48,7.48,0,0,0,3.12,2.7,2.75,2.75,0,0,0,2.23.23,2.13,2.13,0,0,0,1.16-1.49A4.58,4.58,0,0,0,128.07,54.77Z"/><path class="cls-8" d="M120.85,57.38c-.09,0-.08-1.18-.46-3a11.54,11.54,0,0,0-3.46-6.26,8.08,8.08,0,0,0-3.46-1.87,7.37,7.37,0,0,0-3.22-.08,9.29,9.29,0,0,0-2.78,1.15s.17-.25.61-.57a6.14,6.14,0,0,1,2.09-.94,7.34,7.34,0,0,1,3.41,0,8.42,8.42,0,0,1,3.7,2,11.19,11.19,0,0,1,3.47,6.59,13.33,13.33,0,0,1,.18,2.26A2.5,2.5,0,0,1,120.85,57.38Z"/><path class="cls-6" d="M213,174,174.5,158.73s-19.7-25.83-19.29-26.33l-13.83,15.14,20.1,27.21,46.57,10.9,22,.18C228.39,177.34,213,174,213,174Z"/><path class="cls-9" d="M129.14,100.29l-5.24-2-22.62,2.87v4l-.64.08a46.34,46.34,0,0,0-13.86,5.38,23.65,23.65,0,0,0-11,24.07c.92,5.72,2.7,12.67,6.14,16.69,6.57,7.69,12.57-1.81,12.57-1.81s4.12,9.4,3.88,13.85c-.19,3.73-1.84,11.49-2.37,13.91a.73.73,0,0,0,.59.88L144.27,187l.23-11.66-1.52-48-2.1-18.63S140.94,99.83,129.14,100.29Z"/><polygon class="cls-9" points="140.15 105.63 158.34 131.92 143.69 149.76 140.15 105.63"/><path class="cls-5" d="M144.05,161a10.46,10.46,0,0,1-.08-1.7c0-1.18,0-2.73-.05-4.62a145.49,145.49,0,0,0-1.09-15.17c-.76-5.9-1.9-11.17-2.78-15L139,120a9.23,9.23,0,0,1-.33-1.66,11.21,11.21,0,0,1,.53,1.61c.31,1,.73,2.57,1.22,4.46a123,123,0,0,1,2.93,15,117.85,117.85,0,0,1,.95,15.24c0,2,0,3.53-.11,4.63A11.57,11.57,0,0,1,144.05,161Z"/><path class="cls-3" d="M99.28,121c0,.08-1.38.06-3.6.18a57.19,57.19,0,0,0-16.89,3.5c-2.08.77-3.34,1.34-3.38,1.26a3.73,3.73,0,0,1,.84-.49c.55-.3,1.37-.68,2.4-1.11a46.58,46.58,0,0,1,17-3.52c1.11,0,2,0,2.64.06A3.27,3.27,0,0,1,99.28,121Z"/><path class="cls-3" d="M141.42,133a8.85,8.85,0,0,1-2.27.5,51.82,51.82,0,0,1-5.57.5,50.23,50.23,0,0,1-5.6-.12,8.81,8.81,0,0,1-2.29-.34,13,13,0,0,1,2.31,0c1.43,0,3.39,0,5.56,0s4.13-.23,5.55-.35A12.77,12.77,0,0,1,141.42,133Z"/><path class="cls-3" d="M149.77,121.12a13.79,13.79,0,0,1-3.9,3.15,13.63,13.63,0,0,1-4.59,2c-.06-.14,2-1,4.32-2.48S149.67,121,149.77,121.12Z"/><path class="cls-3" d="M142.42,108.93a15.38,15.38,0,0,1-5.3,3.37,15.12,15.12,0,0,1-6.11,1.46c0-.16,2.75-.58,5.91-1.93S142.32,108.8,142.42,108.93Z"/><path class="cls-3" d="M143.41,153.36a3.66,3.66,0,0,1-.94.5c-.62.3-1.54.67-2.69,1.09a49.38,49.38,0,0,1-18.87,2.9c-1.22,0-2.21-.14-2.89-.23a4.57,4.57,0,0,1-1-.19c0-.09,1.51,0,4,0a59.68,59.68,0,0,0,9.49-.67,61.29,61.29,0,0,0,9.25-2.2C142,153.86,143.38,153.29,143.41,153.36Z"/><path class="cls-3" d="M143.78,166.92s-.14.1-.42.24l-1.27.61c-1.1.52-2.73,1.19-4.77,2s-4.51,1.57-7.29,2.33a91.23,91.23,0,0,1-9.17,1.94,92.33,92.33,0,0,1-9.32.93c-2.88.11-5.48.1-7.66,0s-3.93-.26-5.14-.42l-1.38-.19a1.59,1.59,0,0,1-.48-.1,1.53,1.53,0,0,1,.49,0l1.39.09c1.21.1,3,.2,5.14.26s4.75,0,7.61-.1,6-.47,9.27-1,6.35-1.19,9.13-1.9,5.24-1.49,7.29-2.21,3.69-1.34,4.81-1.8l1.3-.51A2.68,2.68,0,0,1,143.78,166.92Z"/><path class="cls-9" d="M56,379.51l-5.4,24.43L40.79,422A2.57,2.57,0,0,0,42,425.59h0a2.57,2.57,0,0,0,2.35-.11C48.9,422.83,65.7,413,66,411.2c.34-2.09,7.41-25.39,7.41-25.39Z"/><g class="cls-10"><path class="cls-11" d="M42,425.59l24.43-16-.25,1a3.82,3.82,0,0,1-1.49,2.21c-2,1.44-7.56,5.28-20.27,12.7a2.59,2.59,0,0,1-2.42.09Z"/></g><g class="cls-10"><path class="cls-11" d="M63.34,400.5a1.55,1.55,0,0,0-.9,1.87,1.49,1.49,0,0,0,1.84.9,1.64,1.64,0,0,0,.94-2,1.55,1.55,0,0,0-2-.73"/></g><path class="cls-5" d="M50.13,416.33a7.69,7.69,0,0,0-1.67-2.41,7.54,7.54,0,0,0-2.66-1.22c0-.07.34-.18.93-.12a4.06,4.06,0,0,1,3.35,2.81C50.25,416,50.2,416.33,50.13,416.33Z"/><path class="cls-5" d="M47.6,419.16c-.14.08-.73-.9-1.9-1.57a19.75,19.75,0,0,0-2.29-.89,2.84,2.84,0,0,1,2.57.41C47.31,417.88,47.74,419.13,47.6,419.16Z"/><path class="cls-5" d="M54.38,413a26.86,26.86,0,0,0-2.77-2.63,24.74,24.74,0,0,0-3.4-1.72,5.68,5.68,0,0,1,3.72,1.28A5.71,5.71,0,0,1,54.38,413Z"/><path class="cls-5" d="M56.64,405.66c-.1.13-1.31-.76-3-1.25s-3.22-.41-3.23-.58a5,5,0,0,1,3.39.05A5,5,0,0,1,56.64,405.66Z"/><path class="cls-5" d="M58.41,398.53a12.44,12.44,0,0,0-3.13-1.39,12.68,12.68,0,0,0-3.42,0c0-.06.31-.3,1-.49a5.59,5.59,0,0,1,4.92,1C58.24,398.13,58.46,398.48,58.41,398.53Z"/><path class="cls-5" d="M55.66,395.79a2.1,2.1,0,0,1,.19-.92,6.57,6.57,0,0,1,1.32-2.23,2.93,2.93,0,0,1,1.55-1.06,1,1,0,0,1,1.07.5,1.71,1.71,0,0,1,.12,1.19,3.63,3.63,0,0,1-3.89,2.5,4.17,4.17,0,0,1-3.48-3.12,1.43,1.43,0,0,1,.22-1.19,1,1,0,0,1,1.15-.27,3.65,3.65,0,0,1,1.4,1.23,7.18,7.18,0,0,1,1.19,2.29,2.28,2.28,0,0,1,.17.93,11.83,11.83,0,0,0-1.66-3,3.49,3.49,0,0,0-1.25-1,.54.54,0,0,0-.63.15,1,1,0,0,0-.1.79,3.77,3.77,0,0,0,3.06,2.67,3.13,3.13,0,0,0,3.32-2.08,1.22,1.22,0,0,0,0-.83.58.58,0,0,0-.59-.29,2.72,2.72,0,0,0-1.33.87A9.65,9.65,0,0,0,55.66,395.79Z"/><g class="cls-12"><polygon points="55.41 382.16 54.24 387.76 71.93 390.69 73.41 385.81 56.04 379.51 55.41 382.16"/></g><path class="cls-9" d="M135.1,388.55l-1.47,19.52s19.36,8,19.44,11.68l-38-1.48,1-30.51Z"/><g class="cls-10"><path class="cls-11" d="M122,406a1.56,1.56,0,0,0-1.14,1.73,1.49,1.49,0,0,0,1.7,1.14,1.62,1.62,0,0,0,1.2-1.83,1.55,1.55,0,0,0-1.9-1"/></g><g class="cls-10"><path class="cls-11" d="M115.11,418.28l.23-3.08,36.31,2.56s1.66.8,1.42,2Z"/></g><path class="cls-5" d="M134.26,407.9c0,.19-.95.24-1.88.8s-1.45,1.32-1.62,1.24.15-1.14,1.29-1.8S134.3,407.73,134.26,407.9Z"/><path class="cls-5" d="M138.18,409.7c0,.18-.78.47-1.44,1.23s-.88,1.58-1.06,1.56-.26-1.06.57-2S138.18,409.53,138.18,409.7Z"/><path class="cls-5" d="M140.25,414.56c-.17,0-.39-.91.12-1.9s1.4-1.37,1.47-1.21-.48.68-.89,1.5S140.44,414.54,140.25,414.56Z"/><path class="cls-5" d="M134.1,403.42c-.09.16-.93-.13-2-.1s-1.88.33-2,.17.72-.79,2-.81S134.19,403.27,134.1,403.42Z"/><g class="cls-12"><polygon points="134.8 392.41 134.55 395.89 115.9 395 116.02 390.98 134.8 392.41"/></g><path class="cls-5" d="M134.32,399.47a3.58,3.58,0,0,1-1.9-.08,8.81,8.81,0,0,1-2-.69,9.18,9.18,0,0,1-1.07-.62,2.26,2.26,0,0,1-.55-.47.81.81,0,0,1-.05-1,1,1,0,0,1,.83-.39,2.44,2.44,0,0,1,.71.12,7.18,7.18,0,0,1,1.16.45,6.6,6.6,0,0,1,1.71,1.22c.85.85,1.13,1.56,1.06,1.59s-.49-.54-1.36-1.25a7.76,7.76,0,0,0-1.66-1,6.86,6.86,0,0,0-1.08-.38c-.4-.12-.74-.13-.85,0s0,.09,0,.22a2.55,2.55,0,0,0,.41.34,10.79,10.79,0,0,0,2.8,1.39A12.68,12.68,0,0,1,134.32,399.47Z"/><path class="cls-5" d="M134.07,399.73a3,3,0,0,1-.43-1.86,6.15,6.15,0,0,1,.34-2.07,5.49,5.49,0,0,1,.53-1.13,1.56,1.56,0,0,1,1.25-.92.9.9,0,0,1,.77.56,3.14,3.14,0,0,1,.17.71,4.52,4.52,0,0,1,0,1.28,4.38,4.38,0,0,1-.89,1.93c-.78,1-1.56,1.15-1.57,1.08s.6-.42,1.2-1.35a4.32,4.32,0,0,0,.67-1.76,4,4,0,0,0,0-1.1c0-.41-.18-.74-.33-.7s-.53.28-.69.59a6.07,6.07,0,0,0-.51,1,6.7,6.7,0,0,0-.45,1.88C134,399,134.17,399.7,134.07,399.73Z"/><path class="cls-5" d="M95.8,178s-6,.27-10,20.79S51.3,385.61,51.3,385.61l22.11.2,41.7-158.08-2.77,163,22.46,1.71s16.86-180.28,17-190.77c.2-13.08-7.31-26.31-7.31-26.31Z"/><path class="cls-8" d="M126.18,176.28c.14,0-2.15,11.75-5.12,26.18s-5.5,26.11-5.64,26.08,2.16-11.75,5.13-26.19S126,176.25,126.18,176.28Z"/><path class="cls-8" d="M129.63,179.2s.6-.24,1.28.38a1.83,1.83,0,0,1,.61,1.41,1.87,1.87,0,0,1-3,1.27,1.84,1.84,0,0,1-.59-1.42c0-.92.62-1.24.63-1.18a2.59,2.59,0,0,0-.27,1.17,1.57,1.57,0,0,0,.54,1.06A1.43,1.43,0,0,0,131,181a1.59,1.59,0,0,0-.39-1.13C130.16,179.27,129.62,179.29,129.63,179.2Z"/><path class="cls-8" d="M128.67,187.33c0-.06.62,0,1,.83a1.77,1.77,0,0,1-.06,1.47,1.76,1.76,0,0,1-3.11-.24,1.77,1.77,0,0,1,.17-1.46c.47-.75,1.11-.73,1.09-.67s-.47.2-.76.84a1.44,1.44,0,0,0,0,1.12,1.32,1.32,0,0,0,2.24.17,1.42,1.42,0,0,0,.13-1.11C129.1,187.6,128.63,187.4,128.67,187.33Z"/><path class="cls-8" d="M107.48,179.41a3.05,3.05,0,0,1-.26,1,16.45,16.45,0,0,1-1.16,2.65,19.47,19.47,0,0,1-15.39,10.13,16.64,16.64,0,0,1-2.89,0,4,4,0,0,1-1-.16c0-.1,1.51.07,3.9-.23a20.38,20.38,0,0,0,15.11-10C107,180.83,107.39,179.38,107.48,179.41Z"/><path class="cls-8" d="M150.5,194s-.26-.11-.66-.39a12,12,0,0,1-1.61-1.38,17.07,17.07,0,0,1-3.76-5.83,16.84,16.84,0,0,1-1.13-6.86,11.92,11.92,0,0,1,.27-2.09,2.6,2.6,0,0,1,.22-.75c.1,0-.12,1.1-.12,2.85A18.54,18.54,0,0,0,148.5,192C149.68,193.26,150.56,193.92,150.5,194Z"/><path class="cls-6" d="M87,138.48l9.83.55a49.67,49.67,0,0,0,2.77,8.05c7.91-13.72,14-32.11,15.56-39.5-.22-.74-.48-1.55-.81-2.47s-.06-3,.12-4.15c.27-1.65.73-3.86.87-4.88.42-3.13.92-3.62,2-3.26,1.48.48-.61,8.76.61,8.94.65.1,1.45-2.74,1.68-5.07s1.28-9.5,2-10c1.13-.7,2.12.4,1.83,2.72s-.65,9.36.58,9.45,2.23-11.79,2.23-11.79-.19-2.58,1.24-2.52c2.57.11.56,12.64.34,13.82-.16.83,1.18,1,1.3.08s.74-11.88,3.36-11.79c2,.07-1.56,10.32-.43,12.7s1.91-8.07,3.83-7.93c.71.05,1.24.19-.07,6.11a134.8,134.8,0,0,1-4.59,13.86c-3,16.4-16.38,68.86-37.3,59.26-11.71-5.37-17.17-32-17.17-32Z"/><path class="cls-7" d="M131.31,111.44a2,2,0,0,1,.1-.36l.35-1c.33-1,.79-2.27,1.37-4s1.3-3.83,2-6.31c.37-1.23.66-2.57.94-4,.13-.72.27-1.46.35-2.22a6.11,6.11,0,0,0,0-1.13c0-.39-.09-.71-.39-.72s-.53.18-.75.51a6.24,6.24,0,0,0-.5,1.11c-.28.79-.5,1.62-.72,2.48s-.42,1.74-.68,2.64a3.82,3.82,0,0,1-.6,1.38.55.55,0,0,1-.27.17.46.46,0,0,1-.38-.09,1.12,1.12,0,0,1-.27-.38,2.7,2.7,0,0,1-.21-.76,24.61,24.61,0,0,1,.59-6c.17-1,.35-2,.48-3a13.33,13.33,0,0,0,.13-1.54c0-.47-.07-1.12-.27-1.21s-.72.2-1,.62A6.35,6.35,0,0,0,131,89a20.75,20.75,0,0,0-.77,3.2c-.19,1.1-.34,2.22-.46,3.36-.06.57-.12,1.14-.17,1.72l-.08.86a1.3,1.3,0,0,1-.39,1,1,1,0,0,1-1.19,0,.85.85,0,0,1-.36-.57,1.13,1.13,0,0,1,0-.32l0-.21c.09-.58.17-1.17.26-1.75.17-1.18.31-2.36.43-3.56s.19-2.41.21-3.62a12.31,12.31,0,0,0-.35-3.56,1.25,1.25,0,0,0-.51-.72.61.61,0,0,0-.67.21,3.32,3.32,0,0,0-.38,2v0c-.21,2.35-.47,4.66-.81,6.93-.17,1.13-.36,2.25-.64,3.37-.07.27-.16.55-.26.83a1.71,1.71,0,0,1-.56.86.61.61,0,0,1-.74-.16,1.54,1.54,0,0,1-.27-.45,4.19,4.19,0,0,1-.22-.86,32,32,0,0,1-.06-6.55,18.22,18.22,0,0,0,.16-3.07,1.7,1.7,0,0,0-.56-1.14.65.65,0,0,0-.51-.08,1,1,0,0,0-.28.12.4.4,0,0,0-.14.17A13.65,13.65,0,0,0,121,89.9c-.2.95-.36,1.91-.52,2.85s-.29,1.86-.4,2.78-.19,1.82-.37,2.72a14.87,14.87,0,0,1-.7,2.58,5.75,5.75,0,0,1-.29.62c-.14.18-.22.43-.6.55a.5.5,0,0,1-.51-.22,1.25,1.25,0,0,1-.15-.37,3.16,3.16,0,0,1-.09-.66c0-1.71.24-3.27.32-4.78a12.09,12.09,0,0,0,0-2.17c-.05-.32-.15-.7-.34-.77a.89.89,0,0,0-.81,0,2.87,2.87,0,0,0-.74,1.64c-.14.61-.21,1.23-.32,1.82-.42,2.36-.86,4.39-1.07,6.06a7.79,7.79,0,0,0,0,2.2c.14.6.34,1.14.46,1.56s.21.72.28,1a1.59,1.59,0,0,1,.08.33,1.29,1.29,0,0,1-.14-.32c-.08-.24-.2-.55-.34-.94s-.35-.92-.52-1.57a8.05,8.05,0,0,1,0-2.26c.18-1.69.58-3.71,1-6.08.1-.59.16-1.21.3-1.85a7.36,7.36,0,0,1,.26-1,1.78,1.78,0,0,1,.63-.92,1.29,1.29,0,0,1,1.18,0c.47.27.48.72.57,1.07a12.18,12.18,0,0,1,0,2.26c-.08,1.52-.31,3.11-.28,4.73a3.55,3.55,0,0,0,.07.57c0,.19.14.27.12.23s.19-.17.28-.32a4.75,4.75,0,0,0,.25-.56,14,14,0,0,0,.66-2.49c.16-.87.22-1.77.34-2.7s.25-1.85.4-2.8.31-1.9.5-2.87a14.12,14.12,0,0,1,.84-3,1,1,0,0,1,.35-.39,1.94,1.94,0,0,1,.42-.17,1.17,1.17,0,0,1,1,.15A2.16,2.16,0,0,1,123.8,88a6,6,0,0,1,0,1.64c-.06.51-.1,1-.14,1.56a31.86,31.86,0,0,0,.07,6.4,3.34,3.34,0,0,0,.19.74.68.68,0,0,0,.15.26s0,0,.05,0h0c0,.23,0,.05,0,.09s0,0,0-.08a2.16,2.16,0,0,0,.29-.55c.08-.25.16-.51.23-.78.27-1.07.46-2.18.63-3.3.33-2.25.58-4.56.79-6.9v0a3.85,3.85,0,0,1,.51-2.37,1.24,1.24,0,0,1,1.39-.41,1.72,1.72,0,0,1,.86,1.1,12.23,12.23,0,0,1,.39,3.77c0,1.24-.11,2.46-.22,3.67s-.26,2.4-.43,3.58l-.27,1.77c-.08.37-.06.38.05.49a.42.42,0,0,0,.47,0c.13-.08.14-.26.17-.58l.08-.87c0-.58.11-1.15.17-1.73.12-1.14.28-2.28.47-3.39a22.9,22.9,0,0,1,.81-3.29,6.8,6.8,0,0,1,.72-1.55,2.29,2.29,0,0,1,.65-.67,1.14,1.14,0,0,1,1-.15,1.16,1.16,0,0,1,.54.89,4.91,4.91,0,0,1,.05.85,11.91,11.91,0,0,1-.13,1.6c-.14,1.05-.33,2.07-.5,3.07a24.3,24.3,0,0,0-.62,5.8,2,2,0,0,0,.16.61.79.79,0,0,0,.12.2s0,0,0,0,0,0,0,0,0,0,0-.07A4.08,4.08,0,0,0,133,98.3c.26-.87.46-1.76.69-2.62a26.18,26.18,0,0,1,.75-2.52A7,7,0,0,1,135,92a2.24,2.24,0,0,1,.46-.53.93.93,0,0,1,.36-.17,1,1,0,0,1,.38,0,.76.76,0,0,1,.63.46,1.8,1.8,0,0,1,.13.66,8,8,0,0,1-.07,1.21c-.09.78-.23,1.52-.38,2.24a39.84,39.84,0,0,1-1,4c-.74,2.48-1.49,4.58-2.11,6.29s-1.13,3-1.48,3.92c-.17.42-.3.75-.41,1A1.42,1.42,0,0,1,131.31,111.44Z"/><path class="cls-9" d="M76.73,139.62c1.9,6.7,5.61,17.06,9.6,28a1.89,1.89,0,0,0,3.49.16l9.78-20.68s-2.35-17-2.15-16.39-20.19,2.2-20.19,2.2Z"/><path class="cls-3" d="M98.76,136.29c0,.08-1.21.44-3.15,1.18a44.15,44.15,0,0,0-13.75,8.34c-1.55,1.37-2.45,2.3-2.51,2.25a3.26,3.26,0,0,1,.55-.73,24.63,24.63,0,0,1,1.71-1.79,36.9,36.9,0,0,1,6.47-5,37.57,37.57,0,0,1,7.4-3.44,23.89,23.89,0,0,1,2.38-.68A2.86,2.86,0,0,1,98.76,136.29Z"/><path class="cls-5" d="M102.64,141.44a10.17,10.17,0,0,1-1.63-2.13,35.68,35.68,0,0,1-3-5.74,35.22,35.22,0,0,1-1.92-6.2,10.63,10.63,0,0,1-.36-2.67,20.36,20.36,0,0,1,.72,2.58,48.9,48.9,0,0,0,2,6.09,49.61,49.61,0,0,0,2.85,5.75A20.56,20.56,0,0,1,102.64,141.44Z"/><path class="cls-5" d="M109.17,49.83a22,22,0,0,0-1.92,18.81c1,2.75,2.6,5.46,2.31,8.38s-2.56,5.8-1.76,8.69c.47,1.71,1.94,3,2.5,4.66.66,2,0,4.1-.34,6.16-.8,5.24.87,10.5,1.29,15.79s-1,11.46-5.73,13.77c-1.43.7-3.3.9-4.49-.17-1.51-1.35-1.09-3.79-.68-5.79,4.14-20-8.65-39.52-5.73-59.76.47-3.24,2.28-8.74,4.62-11s8.79-2,11,.4"/><path class="cls-8" d="M89.47,107.85s.6-.73,1.5-2.14a19.19,19.19,0,0,0,2.61-6.55,19.48,19.48,0,0,0,.31-4.87,51.3,51.3,0,0,1-.21-5.68,11.88,11.88,0,0,1,.58-3.06,16.3,16.3,0,0,1,1.37-2.94c1.12-1.89,2.54-3.65,3.83-5.54a14.94,14.94,0,0,0,2.72-6,18.69,18.69,0,0,0-.34-6.13,22.89,22.89,0,0,1-.45-5.69,19.73,19.73,0,0,1,1-4.88,18.94,18.94,0,0,1,3.54-6.22,13.32,13.32,0,0,1,1.36-1.4,3.21,3.21,0,0,1,.53-.43s-.68.66-1.74,2a19.4,19.4,0,0,0-3.34,6.21,19.17,19.17,0,0,0-.87,4.79,22.34,22.34,0,0,0,.48,5.58,18.91,18.91,0,0,1,.38,6.29,15.57,15.57,0,0,1-2.8,6.18c-1.31,1.91-2.72,3.65-3.82,5.5a15.6,15.6,0,0,0-1.34,2.84,11.6,11.6,0,0,0-.57,2.93,54.42,54.42,0,0,0,.16,5.64,19.11,19.11,0,0,1-.38,5,18.56,18.56,0,0,1-2.8,6.59A16.24,16.24,0,0,1,90,107.36,5,5,0,0,1,89.47,107.85Z"/><path class="cls-8" d="M80,109.34a4.3,4.3,0,0,1,.31-.67c.25-.47.57-1.1,1-1.87.84-1.64,2.1-4,3.33-7A30.72,30.72,0,0,0,87,88.68a19.42,19.42,0,0,0-.25-3.29c-.17-1.11-.43-2.24-.59-3.42a9.72,9.72,0,0,1,.07-3.68,6.58,6.58,0,0,1,2-3.21c1.88-1.72,4.16-2.83,5.33-4.84a16.2,16.2,0,0,0,1.77-6.41,26,26,0,0,1,1.38-6,21.64,21.64,0,0,1,8.1-10.22,15.84,15.84,0,0,1,1.83-1.07,4.3,4.3,0,0,1,.67-.31c0,.05-.89.49-2.39,1.55a21.84,21.84,0,0,0-5.37,5.49,21.23,21.23,0,0,0-2.43,4.71,25,25,0,0,0-1.31,6,16.68,16.68,0,0,1-1.81,6.62c-1.28,2.16-3.63,3.31-5.42,4.95a6.12,6.12,0,0,0-1.89,3,9.47,9.47,0,0,0-.07,3.48c.16,1.15.42,2.28.59,3.42a21.41,21.41,0,0,1,.23,3.36,30.42,30.42,0,0,1-2.58,11.25,67.82,67.82,0,0,1-3.49,7l-1.06,1.83A2.88,2.88,0,0,1,80,109.34Z"/></g><g id="Plant"><path class="cls-5" d="M410.85,391.91a2.3,2.3,0,0,1,.17-.42l.57-1.21a31.07,31.07,0,0,0,1.66-4.84c1.1-4.3,1.49-10.87-.14-18.67a102.53,102.53,0,0,0-3.46-12.55c-1.47-4.45-3.17-9.17-4.56-14.28a55.06,55.06,0,0,1-2.25-16.42c.21-5.81,1.93-11.61,3.82-17.38s3.84-11.43,4.42-17.11a26,26,0,0,0-3.14-15.8c-2.5-4.62-5.65-8.56-8-12.65a43.94,43.94,0,0,1-4.81-12.15,45.38,45.38,0,0,1-.31-18.83,35,35,0,0,1,2-6.65,2.29,2.29,0,0,1-.12.45c-.1.31-.23.73-.39,1.27a47.89,47.89,0,0,0-1.23,5,46,46,0,0,0,.49,18.68,43.75,43.75,0,0,0,4.83,12c2.35,4,5.52,8,8.07,12.63a26.57,26.57,0,0,1,3.23,16.13c-.58,5.78-2.55,11.47-4.43,17.24s-3.59,11.5-3.81,17.21a55.28,55.28,0,0,0,2.2,16.26c1.37,5.08,3.05,9.8,4.5,14.27a100,100,0,0,1,3.41,12.62c1.58,7.86,1.13,14.5,0,18.81a28.3,28.3,0,0,1-1.78,4.83l-.63,1.19C410.93,391.78,410.85,391.91,410.85,391.91Z"/><path class="cls-9" d="M403.13,264.61s-4.78-15.3,3.8-24.26a.53.53,0,0,1,.91.26C408.3,243.14,408.87,250.84,403.13,264.61Z"/><path class="cls-5" d="M406,245.45a13.71,13.71,0,0,1-.32,2.82c-.31,1.95-.68,4.23-1.09,6.75s-.76,4.81-1.07,6.75a16.11,16.11,0,0,1-.51,2.8,11.61,11.61,0,0,1,.09-2.85c.15-1.75.46-4.15.9-6.79s.89-5,1.26-6.73A13.12,13.12,0,0,1,406,245.45Z"/><path class="cls-9" d="M408.76,300.71s2.92-15.77,14.7-19.67a.53.53,0,0,1,.68.66C423.37,284.14,420.27,291.22,408.76,300.71Z"/><path class="cls-5" d="M420.25,285.11a13.72,13.72,0,0,1-1.6,2.34l-4.12,5.46c-1.54,2-2.92,3.89-4.11,5.46a16.61,16.61,0,0,1-1.75,2.24,11.84,11.84,0,0,1,1.4-2.48c1-1.47,2.36-3.45,4-5.58s3.13-4,4.27-5.36A13.16,13.16,0,0,1,420.25,285.11Z"/><path class="cls-9" d="M405.57,340.26s-1.77-15.94,8.36-23.1a.53.53,0,0,1,.84.44C414.74,320.16,413.84,327.83,405.57,340.26Z"/><path class="cls-5" d="M412,322a13.75,13.75,0,0,1-.85,2.71l-2.36,6.42c-.87,2.4-1.67,4.57-2.34,6.42a16.44,16.44,0,0,1-1,2.65,12.1,12.1,0,0,1,.63-2.78c.49-1.69,1.25-4,2.18-6.5s1.83-4.75,2.52-6.36A13.93,13.93,0,0,1,412,322Z"/><path class="cls-9" d="M414.45,380s-1.21-16,9.18-22.78a.53.53,0,0,1,.82.46C424.33,360.29,423.15,367.92,414.45,380Z"/><path class="cls-5" d="M421.57,362a14.77,14.77,0,0,1-.95,2.68c-.75,1.82-1.63,4-2.59,6.32l-2.57,6.34a16.31,16.31,0,0,1-1.12,2.6,11.1,11.1,0,0,1,.72-2.75c.55-1.67,1.39-3.94,2.41-6.41s2-4.69,2.76-6.27A12.07,12.07,0,0,1,421.57,362Z"/><path class="cls-9" d="M396.26,251.17s-14.22-7.42-14.49-19.83a.52.52,0,0,1,.82-.46C384.71,232.34,390.56,237.37,396.26,251.17Z"/><path class="cls-5" d="M384.72,235.6a14.62,14.62,0,0,1,1.77,2.22l4,5.54,4,5.53a16,16,0,0,1,1.61,2.33,12.22,12.22,0,0,1-1.95-2.07c-1.12-1.34-2.61-3.26-4.17-5.43s-2.92-4.18-3.87-5.66A12.28,12.28,0,0,1,384.72,235.6Z"/><path class="cls-9" d="M411.52,284s-14.64-6.54-15.67-18.91a.53.53,0,0,1,.8-.5C398.85,265.94,405,270.61,411.52,284Z"/><path class="cls-5" d="M399.05,269.2a13.27,13.27,0,0,1,1.91,2.11l4.33,5.29,4.35,5.27a15.31,15.31,0,0,1,1.76,2.23,12.18,12.18,0,0,1-2.08-2c-1.2-1.28-2.8-3.1-4.49-5.18s-3.17-4-4.21-5.4A14,14,0,0,1,399.05,269.2Z"/><path class="cls-9" d="M403.1,320.7s-10.05-12.5-5.34-24a.53.53,0,0,1,.94-.09C400.05,298.82,403.4,305.77,403.1,320.7Z"/><path class="cls-5" d="M398.76,301.81a13.86,13.86,0,0,1,.73,2.74l1.45,6.69c.55,2.49,1.05,4.75,1.47,6.67a14.46,14.46,0,0,1,.55,2.79,12.69,12.69,0,0,1-1-2.68c-.49-1.69-1.08-4-1.64-6.66s-1-5-1.29-6.73A13.24,13.24,0,0,1,398.76,301.81Z"/><path class="cls-9" d="M413.05,363.84s-14.52-6.79-15.35-19.18a.53.53,0,0,1,.81-.49C400.69,345.54,406.75,350.31,413.05,363.84Z"/><path class="cls-5" d="M400.84,348.79a14,14,0,0,1,1.87,2.14l4.24,5.36,4.26,5.35a14.78,14.78,0,0,1,1.72,2.26,12.54,12.54,0,0,1-2-2c-1.18-1.29-2.75-3.14-4.41-5.24s-3.1-4.05-4.11-5.48A12,12,0,0,1,400.84,348.79Z"/><path class="cls-5" d="M442,300.79a1.08,1.08,0,0,1,0,.36c0,.28,0,.61,0,1-.05,1-.1,2.27-.17,3.89-.19,3.42-.45,8.18-.77,13.88v0c-1,5.8-4,12.23-8,18.47-2.91,4.6-6,8.79-8.6,12.67A89.41,89.41,0,0,0,418,361.78a45.74,45.74,0,0,0-3,7.82c-.25.95-.44,1.7-.55,2.21a3.47,3.47,0,0,1-.22.77,4.7,4.7,0,0,1,.1-.79c.07-.52.23-1.28.45-2.25a41,41,0,0,1,2.86-8A84.67,84.67,0,0,1,424,350.82c2.61-3.92,5.65-8.11,8.54-12.68,3.95-6.22,6.89-12.55,8-18.26v0c.4-5.69.74-10.45,1-13.87.13-1.62.23-2.92.31-3.88,0-.4.07-.74.1-1A1.68,1.68,0,0,1,442,300.79Z"/><path class="cls-9" d="M433.34,337.26s6.15-14.81-1.59-24.51a.53.53,0,0,0-.93.18C430.13,315.41,428.87,323,433.34,337.26Z"/><path class="cls-5" d="M432.22,317.92a12.69,12.69,0,0,1,.48,2.8c.22,1.74.46,4.15.66,6.82s.28,5.09.28,6.84a11.7,11.7,0,0,1-.18,2.84,17.06,17.06,0,0,1-.25-2.82c-.13-2-.28-4.27-.45-6.82s-.34-4.86-.48-6.82A13,13,0,0,1,432.22,317.92Z"/><g class="cls-12"><path d="M433.34,337.26s6.15-14.81-1.59-24.51a.53.53,0,0,0-.93.18C430.13,315.41,428.87,323,433.34,337.26Z"/></g><path class="cls-9" d="M414.28,372.94s4.93-15.25-3.57-24.29a.53.53,0,0,0-.91.25C409.32,351.42,408.67,359.11,414.28,372.94Z"/><path class="cls-5" d="M411.6,353.75a13.41,13.41,0,0,1,.71,2.76c.36,1.71.8,4.09,1.2,6.74s.7,5.05.84,6.8a12.39,12.39,0,0,1,.06,2.85,14.78,14.78,0,0,1-.48-2.8c-.29-2-.63-4.23-1-6.76s-.73-4.81-1-6.76A13.9,13.9,0,0,1,411.6,353.75Z"/><g class="cls-12"><path d="M414.28,372.94s4.93-15.25-3.57-24.29a.53.53,0,0,0-.91.25C409.32,351.42,408.67,359.11,414.28,372.94Z"/></g><path class="cls-9" d="M441.17,319.17S454.31,310,453,297.63a.53.53,0,0,0-.88-.35C450.19,299,445,304.75,441.17,319.17Z"/><g class="cls-12"><path d="M441.17,319.17S454.31,310,453,297.63a.53.53,0,0,0-.88-.35C450.19,299,445,304.75,441.17,319.17Z"/></g><path class="cls-5" d="M450.6,302.24a12.16,12.16,0,0,1-1.09,2.62c-.75,1.59-1.83,3.75-3.11,6.11s-2.49,4.45-3.43,5.93a11.86,11.86,0,0,1-1.67,2.3,16.3,16.3,0,0,1,1.3-2.52c.95-1.73,2-3.76,3.28-6s2.32-4.28,3.25-6A14.61,14.61,0,0,1,450.6,302.24Z"/><path class="cls-9" d="M419.58,357.82s15.84-2.47,20.09-14.13a.53.53,0,0,0-.64-.7C436.56,343.69,429.4,346.58,419.58,357.82Z"/><g class="cls-12"><path d="M419.58,357.82s15.84-2.47,20.09-14.13a.53.53,0,0,0-.64-.7C436.56,343.69,429.4,346.58,419.58,357.82Z"/></g><path class="cls-5" d="M435.5,346.78a13,13,0,0,1-2.13,1.87c-1.37,1.1-3.3,2.56-5.48,4.11s-4.2,2.9-5.7,3.81a11.48,11.48,0,0,1-2.51,1.34,14.31,14.31,0,0,1,2.28-1.69l5.58-3.94,5.57-4A14,14,0,0,1,435.5,346.78Z"/><polygon class="cls-8" points="404.46 386.98 399.84 418.08 428.64 418.08 424.91 386.98 404.46 386.98"/><path class="cls-5" d="M426.06,396.61c0,.17-5.2.3-11.61.3s-11.62-.13-11.62-.3a114.71,114.71,0,0,1,11.62-.3A114.58,114.58,0,0,1,426.06,396.61Z"/><path class="cls-5" d="M426.63,399.09c0,.16-5.37.3-12,.3s-12-.14-12-.3,5.37-.3,12-.3S426.63,398.92,426.63,399.09Z"/></g><g id="Boxes"><path class="cls-5" d="M314.64,85.27s-.27,0-.78,0a19.41,19.41,0,0,0-2.29,0,25.33,25.33,0,0,0-8.52,2,26.21,26.21,0,0,0-10.83,8.43,23.61,23.61,0,0,0-3.77,7.73,25.89,25.89,0,0,0,2.66,19.67,22.62,22.62,0,0,0,3.4,4.51,18,18,0,0,0,4.6,3.6,11.25,11.25,0,0,0,5.78,1.46,8.31,8.31,0,0,0,5.59-2.26,8.06,8.06,0,0,0,2.22-5.76,10.58,10.58,0,0,0-2-6.13c-2.6-3.65-6.8-6.1-11.26-7.42a27.68,27.68,0,0,0-14.21-.2,29.32,29.32,0,0,0-6.84,2.72,24.81,24.81,0,0,0-5.87,4.6,18.68,18.68,0,0,0-1.24,1.43l-1.13,1.52a25.76,25.76,0,0,0-1.84,3.34,27.12,27.12,0,0,0-2.18,7.37,27.94,27.94,0,0,0,2,15,23.06,23.06,0,0,0,9.66,11,15.8,15.8,0,0,0,6.83,2.08,12.08,12.08,0,0,0,6.75-1.62,10.63,10.63,0,0,0,4.57-5,9.06,9.06,0,0,0,.1-6.54,13,13,0,0,0-3.76-5.32,17.11,17.11,0,0,0-5.53-3.21,21.4,21.4,0,0,0-12.17-.21,23.71,23.71,0,0,0-10,5.57,22.74,22.74,0,0,0-5.72,8.87,25.68,25.68,0,0,0,.26,18,27.19,27.19,0,0,0,8.24,11,28.9,28.9,0,0,0,7.57,4.4c.94.36,1.66.62,2.16.76l.74.24s-.26-.05-.76-.19-1.23-.36-2.18-.71a28.29,28.29,0,0,1-7.66-4.35,27.2,27.2,0,0,1-8.38-11,26,26,0,0,1-.34-18.2,23.3,23.3,0,0,1,5.79-9,24.28,24.28,0,0,1,10.15-5.69,21.89,21.89,0,0,1,12.44.2,17.52,17.52,0,0,1,5.69,3.29,13.51,13.51,0,0,1,3.9,5.51,9.53,9.53,0,0,1-.1,6.89,11.15,11.15,0,0,1-4.77,5.21,12.61,12.61,0,0,1-7,1.7,16.54,16.54,0,0,1-7.06-2.14,23.57,23.57,0,0,1-9.88-11.19,28.33,28.33,0,0,1-2.06-15.29,26.74,26.74,0,0,1,4.1-10.92l1.15-1.55c.37-.53.85-1,1.27-1.46a25.38,25.38,0,0,1,6-4.7,29.81,29.81,0,0,1,7-2.77,28.1,28.1,0,0,1,14.46.22c4.56,1.36,8.83,3.85,11.52,7.63a11,11,0,0,1,2.1,6.4,8.56,8.56,0,0,1-2.37,6.09,8.75,8.75,0,0,1-5.9,2.37,11.67,11.67,0,0,1-6-1.52,18.55,18.55,0,0,1-4.7-3.69,22.67,22.67,0,0,1-3.45-4.6,26.31,26.31,0,0,1-2.63-20A23.69,23.69,0,0,1,292,95.5a26.32,26.32,0,0,1,11-8.45,25,25,0,0,1,8.59-1.88,15.87,15.87,0,0,1,2.3,0C314.38,85.24,314.64,85.27,314.64,85.27Z"/><rect class="cls-9" x="207.83" y="185.33" width="140.21" height="108.14"/><polygon class="cls-9" points="207.83 185.33 233.72 209.49 371.56 209.49 348.04 185.33 207.83 185.33"/><path class="cls-5" d="M207.83,185.33,348,185.08h.1l.08.08,23.28,23.91.24.24.43.45h-.61l-137.84-.11h-.06l0,0-25.79-24.27,26,24-.11,0,137.84-.1-.19.44-.24-.25-23.28-23.91.19.08Z"/><path class="cls-5" d="M249.94,235.2a2.78,2.78,0,1,0,.21,0"/><path class="cls-5" d="M283.05,235.2a2.77,2.77,0,1,0,.21,0"/><path class="cls-5" d="M283.26,261.08a20.4,20.4,0,0,0-2.78-6.21,18.48,18.48,0,0,0-5.29-5.09,16.15,16.15,0,0,0-17.13-.46,18.23,18.23,0,0,0-5.57,4.78,19.92,19.92,0,0,0-3.11,6,1.55,1.55,0,0,1,.08-.47,10.74,10.74,0,0,1,.36-1.33,16.23,16.23,0,0,1,2.37-4.47,18.19,18.19,0,0,1,5.63-5,16.39,16.39,0,0,1,17.62.48,18.31,18.31,0,0,1,5.35,5.28,16.16,16.16,0,0,1,2.12,4.6,11.74,11.74,0,0,1,.29,1.35A1.41,1.41,0,0,1,283.26,261.08Z"/><polygon class="cls-13" points="208.14 186.52 232.94 217.96 348.04 217.96 348.04 209.49 233.72 209.49 208.14 186.52"/><path class="cls-5" d="M320.39,293.23c-.15,0-.26-18.81-.26-42s.11-42,.26-42,.26,18.81.26,42S320.53,293.23,320.39,293.23Z"/><rect class="cls-4" x="330.04" y="268.71" width="12.36" height="13.97"/><polygon class="cls-9" points="207.83 185.33 179.04 209.49 207.83 209.49 207.83 185.33"/><g class="cls-14"><polygon points="207.83 185.33 179.04 209.49 207.83 209.49 207.83 185.33"/></g><rect class="cls-9" x="190.97" y="293.47" width="161.21" height="124.34"/><rect class="cls-15" x="190.97" y="293.47" width="161.21" height="124.34"/><path class="cls-5" d="M311.78,416.93c-.14,0-.26-27.71-.26-61.89s.12-61.9.26-61.9.26,27.71.26,61.9S311.93,416.93,311.78,416.93Z"/><rect class="cls-4" x="326.15" y="389.51" width="12.36" height="13.97"/><rect class="cls-5" x="240.15" y="293.79" width="18.31" height="26.53"/><rect class="cls-5" x="240.15" y="390.91" width="18.31" height="26.53"/><path class="cls-5" d="M350.77,293.47l-.41,0-1.22,0-4.65,0-17.12.09-56.5.07-56.5-.07-17.13-.09-4.65,0-1.21,0a2,2,0,0,1-.41,0,3,3,0,0,1,.41,0l1.21,0,4.65-.05,17.13-.08,56.5-.08,56.5.08,17.12.08,4.65.05,1.22,0A3.24,3.24,0,0,1,350.77,293.47Z"/></g><g id="Speech_Bubble" data-name="Speech Bubble"><path class="cls-5" d="M74.49,78.2,56.94,73.88l.13,0a29.28,29.28,0,0,1-15.16,4.55A32,32,0,0,1,32.52,77,29.49,29.49,0,0,1,12.3,52.62a29,29,0,0,1,7.54-23.44,30.47,30.47,0,0,1,5.09-4.42c.95-.59,1.88-1.2,2.86-1.71l1.49-.72L30,22l.77-.28a29.68,29.68,0,0,1,12.62-1.93A29.21,29.21,0,0,1,69.18,39.43a30.46,30.46,0,0,1,1.62,9.48,29.09,29.09,0,0,1-4.2,15.21V64c4.88,8.8,7.35,13.25,7.89,14.24L66.33,64.11l0-.08,0-.08a28.86,28.86,0,0,0,4-15,30.07,30.07,0,0,0-1.64-9.32A28.72,28.72,0,0,0,54.86,23.53a28.45,28.45,0,0,0-11.48-3.2A29.15,29.15,0,0,0,31,22.22l-.76.28-.73.35-1.46.71c-1,.5-1.87,1.1-2.8,1.68a29.77,29.77,0,0,0-5,4.34,28.82,28.82,0,0,0,3.42,42.2,28.58,28.58,0,0,0,9,4.8A31.55,31.55,0,0,0,41.91,78a28.87,28.87,0,0,0,15-4.39l.06,0,.07,0Z"/><path class="cls-9" d="M39,36,40,50.69a2.4,2.4,0,0,0,2.23,2.23h0A2.39,2.39,0,0,0,44.7,50.8l1.63-14.73A1.88,1.88,0,0,0,44.45,34l-3.58,0A1.88,1.88,0,0,0,39,36Z"/><path class="cls-9" d="M46.08,61.16a3.58,3.58,0,1,1-2.27-4.52A3.57,3.57,0,0,1,46.08,61.16Z"/></g></g></svg>