<svg xmlns="http://www.w3.org/2000/svg" viewBox="0 0 658.69 382.18"><defs><style>.cls-1{fill:#ebebeb;}.cls-2{fill:#e0e0e0;}.cls-3{fill:#fafafa;}.cls-4{fill:#f5f5f5;}.cls-5{fill:#e8505b;}.cls-15,.cls-6{opacity:0.3;}.cls-7{fill:#263238;}.cls-11,.cls-8{fill:#fff;}.cls-8{opacity:0.5;}.cls-9{fill:#455a64;}.cls-10{opacity:0.6;}.cls-12{fill:#ffbe9d;}.cls-13{fill:#eb996e;}.cls-14{opacity:0.4;}.cls-16{opacity:0.2;}</style></defs><g id="Layer_2" data-name="Layer 2"><g id="Background_Complete" data-name="Background Complete"><rect class="cls-1" x="11.22" y="254.01" width="131.33" height="101.29"/><path class="cls-2" d="M109.65,354.59c-.15,0-.26-22.58-.26-50.43s.11-50.42.26-50.42.26,22.57.26,50.42S109.79,354.59,109.65,354.59Z"/><rect class="cls-3" x="121.35" y="332.25" width="10.07" height="11.38"/><rect class="cls-2" x="51.29" y="254.27" width="14.92" height="21.61"/><rect class="cls-2" x="51.29" y="333.39" width="14.92" height="21.61"/><rect class="cls-1" x="31.76" y="152.95" width="131.33" height="101.29"/><path class="cls-2" d="M130.18,253.53c-.14,0-.26-22.58-.26-50.42s.12-50.43.26-50.43.26,22.57.26,50.43S130.33,253.53,130.18,253.53Z"/><rect class="cls-3" x="141.88" y="231.19" width="10.07" height="11.38"/><rect class="cls-2" x="71.82" y="153.22" width="14.92" height="21.61"/><rect class="cls-2" x="71.82" y="232.33" width="14.92" height="21.61"/><rect class="cls-4" x="48.47" y="71.77" width="105.6" height="81.44"/><path class="cls-2" d="M127.6,152.64c-.11,0-.2-18.15-.2-40.54s.09-40.55.2-40.55.21,18.15.21,40.55S127.72,152.64,127.6,152.64Z"/><rect class="cls-3" x="137.01" y="134.68" width="8.1" height="9.15"/><rect class="cls-2" x="80.68" y="71.98" width="11.99" height="17.38"/><rect class="cls-2" x="80.68" y="135.59" width="11.99" height="17.38"/><rect class="cls-4" x="526.25" y="128.32" width="99.19" height="76.5"/><path class="cls-2" d="M600.59,204.28c-.11,0-.2-17.05-.2-38.08s.09-38.09.2-38.09.2,17,.2,38.09S600.7,204.28,600.59,204.28Z"/><rect class="cls-3" x="609.43" y="187.41" width="7.6" height="8.6"/><rect class="cls-2" x="556.51" y="128.52" width="11.27" height="16.32"/><rect class="cls-2" x="556.51" y="188.27" width="11.27" height="16.32"/><rect class="cls-1" x="544.36" y="292.77" width="114.32" height="88.18"/><path class="cls-2" d="M630,380.33c-.12,0-.22-19.66-.22-43.9s.1-43.9.22-43.9.23,19.65.23,43.9S630.17,380.33,630,380.33Z"/><rect class="cls-3" x="640.23" y="360.88" width="8.76" height="9.91"/><rect class="cls-2" x="579.24" y="293" width="12.99" height="18.81"/><rect class="cls-2" x="579.24" y="361.87" width="12.99" height="18.81"/><rect class="cls-1" x="528.57" y="204.82" width="114.32" height="88.18"/><path class="cls-2" d="M614.25,292.38c-.12,0-.23-19.66-.23-43.9s.11-43.9.23-43.9.23,19.65.23,43.9S614.38,292.38,614.25,292.38Z"/><rect class="cls-3" x="624.44" y="272.93" width="8.76" height="9.91"/><rect class="cls-2" x="563.45" y="205.05" width="12.99" height="18.81"/><rect class="cls-2" x="563.45" y="273.92" width="12.99" height="18.81"/><rect class="cls-4" x="332.87" y="129.55" width="99.19" height="76.5"/><path class="cls-2" d="M407.2,205.51c-.1,0-.19-17-.19-38.08s.09-38.09.19-38.09.2,17,.2,38.09S407.31,205.51,407.2,205.51Z"/><rect class="cls-3" x="416.04" y="188.64" width="7.6" height="8.6"/><rect class="cls-2" x="363.13" y="129.75" width="11.27" height="16.32"/><rect class="cls-2" x="363.13" y="189.5" width="11.27" height="16.32"/><rect class="cls-1" x="341.66" y="53.24" width="99.19" height="76.5"/><path class="cls-2" d="M416,129.2c-.11,0-.2-17-.2-38.08S415.89,53,416,53s.2,17,.2,38.09S416.11,129.2,416,129.2Z"/><rect class="cls-3" x="424.84" y="112.33" width="7.6" height="8.6"/><rect class="cls-2" x="371.92" y="53.44" width="11.27" height="16.32"/><rect class="cls-2" x="371.92" y="113.19" width="11.27" height="16.32"/><rect class="cls-1" x="366.17" y="0.15" width="70.97" height="54.74"/><path class="cls-2" d="M419.36,54.5c-.08,0-.14-12.2-.14-27.25S419.28,0,419.36,0s.14,12.2.14,27.25S419.44,54.5,419.36,54.5Z"/><rect class="cls-3" x="425.68" y="42.43" width="5.44" height="6.15"/><rect class="cls-2" x="387.82" y="0.29" width="8.06" height="11.68"/><rect class="cls-2" x="387.82" y="43.05" width="8.06" height="11.68"/><rect class="cls-1" x="350.98" y="294" width="114.32" height="88.18"/><path class="cls-2" d="M436.66,381.56c-.13,0-.23-19.66-.23-43.9s.1-43.9.23-43.9.22,19.65.22,43.9S436.78,381.56,436.66,381.56Z"/><rect class="cls-3" x="446.84" y="362.11" width="8.76" height="9.91"/><rect class="cls-2" x="385.85" y="294.23" width="12.99" height="18.81"/><rect class="cls-2" x="385.85" y="363.1" width="12.99" height="18.81"/><rect class="cls-1" x="335.19" y="206.05" width="114.32" height="88.18"/><path class="cls-2" d="M420.87,293.61c-.13,0-.23-19.66-.23-43.9s.1-43.9.23-43.9.22,19.65.22,43.9S421,293.61,420.87,293.61Z"/><rect class="cls-3" x="431.05" y="274.16" width="8.76" height="9.91"/><rect class="cls-2" x="370.06" y="206.28" width="12.99" height="18.81"/><rect class="cls-2" x="370.06" y="275.15" width="12.99" height="18.81"/><path class="cls-2" d="M200.88,364.72V355.3H8.38a2.57,2.57,0,0,0-2.57,2.58v4.26a2.58,2.58,0,0,0,2.57,2.58h5.36V369a2.53,2.53,0,0,1-2.53,2.53H8.34a2.54,2.54,0,0,0-2.53,2.54v4.34A2.54,2.54,0,0,0,8.34,381H200.88v-9.42H156v-6.81Zm-141,0H71.42v6.81H59.88Zm-7.69,6.81H40.66v-6.81H52.19Zm26.92-6.81H90.64v6.81H79.11Zm19.22,0h11.54v6.81H98.33Zm19.23,0h11.53v6.81H117.56Zm-96.13,0H33v6.81H21.43Zm126.89,6.81H136.78v-6.81h11.54Z"/></g><g id="Fork-Lift"><rect class="cls-5" x="90.21" y="168.54" width="104.18" height="80.36"/><rect class="cls-6" x="90.21" y="168.54" width="104.18" height="80.36"/><path class="cls-7" d="M168.29,248.33c-.09,0-.17-17.91-.17-40s.08-40,.17-40,.17,17.9.17,40S168.39,248.33,168.29,248.33Z"/><rect class="cls-4" x="177.57" y="230.61" width="7.99" height="9.03"/><rect class="cls-7" x="121.99" y="168.75" width="11.83" height="17.15"/><rect class="cls-7" x="121.99" y="231.51" width="11.83" height="17.15"/><path class="cls-7" d="M193.49,168.54a.8.8,0,0,1-.27,0l-.78,0-3,0-11.07,0-36.51.05-36.52-.05-11.06,0-3,0-.78,0a.8.8,0,0,1-.27,0h.27l.78,0,3,0,11.06-.06,36.52,0,36.51,0,11.07.06,3,0,.78,0Z"/><rect class="cls-5" x="176.94" y="168.45" width="104.18" height="80.36"/><path class="cls-7" d="M255,248.23c-.09,0-.17-17.91-.17-40s.08-40,.17-40,.17,17.91.17,40S255.11,248.23,255,248.23Z"/><rect class="cls-4" x="264.3" y="230.51" width="7.99" height="9.03"/><rect class="cls-8" x="208.72" y="168.65" width="11.83" height="17.15"/><rect class="cls-8" x="208.72" y="231.42" width="11.83" height="17.15"/><path class="cls-7" d="M280.21,168.45H280l-.79,0-3,0-11.07.06-36.51,0-36.52,0L181,168.51l-3,0-.79,0h-.26l.26,0,.79,0,3,0,11.06,0,36.52-.05,36.51.05,11.07,0,3,0,.79,0A.76.76,0,0,1,280.21,168.45Z"/><rect class="cls-5" x="182.79" y="88.09" width="104.18" height="80.36"/><path class="cls-7" d="M260.87,167.88c-.09,0-.17-17.92-.17-40s.08-40,.17-40,.17,17.91.17,40S261,167.88,260.87,167.88Z"/><rect class="cls-4" x="270.15" y="150.15" width="7.99" height="9.03"/><rect class="cls-7" x="214.57" y="88.29" width="11.83" height="17.15"/><rect class="cls-7" x="214.57" y="151.06" width="11.83" height="17.15"/><path class="cls-7" d="M286.06,88.09l-.26,0H285l-3,0-11.06.06-36.51.05-36.52-.05-11.07-.06-3,0h-.79l-.26,0a1.33,1.33,0,0,1,.26,0l.79,0,3,0,11.07,0,36.52,0,36.51,0L282,88l3,0,.79,0A1.33,1.33,0,0,1,286.06,88.09Z"/><path class="cls-9" d="M275.83,338.37V329H83.34a2.58,2.58,0,0,0-2.58,2.58v4.26a2.58,2.58,0,0,0,2.58,2.57H88.7v4.29a2.54,2.54,0,0,1-2.54,2.53H83.3a2.54,2.54,0,0,0-2.54,2.54v4.34a2.54,2.54,0,0,0,2.54,2.54H275.83v-9.42H231v-6.82Zm-141,0h11.53v6.82H134.84Zm-7.69,6.82H115.61v-6.82h11.54Zm26.91-6.82H165.6v6.82H154.06Zm19.23,0h11.53v6.82H173.29Zm19.22,0h11.54v6.82H192.51Zm-96.12,0h11.53v6.82H96.39Zm126.88,6.82H211.73v-6.82h11.54Z"/><path class="cls-7" d="M431,176.25a3.39,3.39,0,0,0-.1-4.84l-32.47-30.68a3.5,3.5,0,0,0-4.79,0h0a3.49,3.49,0,0,0-.13,4.94l12.95,13.63-6.74,6.48L396.2,163l-24.49,28.05L358.62,178.5l-15.78,46.41,3.13,63h36.3l-2.53-74.86,24.31-34.72.19-8.25,7-7.16,15.09,13.47a3.39,3.39,0,0,0,4.7-.17Z"/><path class="cls-7" d="M333,299.58c-.14,0-.26-57.48-.26-128.37s.12-128.38.26-128.38.26,57.47.26,128.38S333.19,299.58,333,299.58Z"/><path class="cls-9" d="M414.33,283.4l22.08-61.31-8.29-3.36V206.84l60.37-.94a5.87,5.87,0,0,0,5.71-5.21l8.86-78.81a7.22,7.22,0,0,1,7.17-6.42h0a7.23,7.23,0,0,1,7.22,7.52l-3.34,81.21,31.52.17,1.07,14.82-93.22,3.64-24.31,59.69Z"/><path class="cls-7" d="M428.22,281.89l-78.48.62v5.23l32.51-.42,51.78-.39L559.57,269.2,545.34,215h-85a9.05,9.05,0,0,0-7.52,3.82Z"/><path class="cls-9" d="M390.61,55.41,333.56,237.34l.4,50.6h18.15V237.66L398.85,55.89l126.64-.71,24.22,189.33H564l-29.47-188A10.73,10.73,0,0,0,524,47.75H400.89A10.73,10.73,0,0,0,390.61,55.41Z"/><path class="cls-5" d="M323.32,346.4V297.79L334,287.94l100-1.28L452,272a20.57,20.57,0,0,1,11.8-4.57L483,266.37s8.64-6,17-11.86A62.68,62.68,0,0,1,536.21,243h55.43a7.59,7.59,0,0,1,7.59,7.59V346.4Z"/><rect class="cls-7" x="322.34" y="330.73" width="276.89" height="15.98"/><path class="cls-7" d="M336.67,346.22a34.24,34.24,0,1,0,34.73-33.74A34.23,34.23,0,0,0,336.67,346.22Z"/><path class="cls-7" d="M336.68,346.13s0,.06,0,.09a34.24,34.24,0,0,0,68.47,1s0-.06,0-.09Z"/><path class="cls-3" d="M346.87,346.37a24,24,0,1,0,24.38-23.69A24,24,0,0,0,346.87,346.37Z"/><path class="cls-2" d="M371.25,322.68a24,24,0,0,0-24.38,23.69l48.07.69A24,24,0,0,0,371.25,322.68Z"/><path class="cls-7" d="M356.26,346.5a14.65,14.65,0,1,0,14.86-14.43A14.64,14.64,0,0,0,356.26,346.5Z"/><path class="cls-7" d="M504.21,346.22a34.24,34.24,0,1,0,34.73-33.74A34.24,34.24,0,0,0,504.21,346.22Z"/><path class="cls-7" d="M504.22,346.13s0,.06,0,.09a34.24,34.24,0,0,0,68.47,1,.27.27,0,0,1,0-.09Z"/><path class="cls-3" d="M514.41,346.37a24,24,0,1,0,24.38-23.69A24,24,0,0,0,514.41,346.37Z"/><path class="cls-2" d="M538.79,322.68a24,24,0,0,0-24.38,23.69l48.07.69A24,24,0,0,0,538.79,322.68Z"/><path class="cls-7" d="M523.81,346.5a14.64,14.64,0,1,0,14.85-14.43A14.63,14.63,0,0,0,523.81,346.5Z"/><path class="cls-7" d="M583,322.34s-.06-.07-.17-.24l-.44-.71-.7-1.18a14.21,14.21,0,0,0-1-1.58,48.59,48.59,0,0,0-7.72-9c-.88-.89-2-1.67-3-2.55s-2.25-1.65-3.45-2.5-2.52-1.64-3.93-2.33c-.7-.36-1.4-.75-2.12-1.1l-2.25-1a48.65,48.65,0,0,0-9.92-3,47.39,47.39,0,0,0-31.65,5l-2.14,1.21c-.69.41-1.34.87-2,1.29-1.35.82-2.51,1.82-3.7,2.69s-2.22,1.86-3.2,2.82-1.94,1.85-2.74,2.82a49,49,0,0,0-6.83,9.7,17.41,17.41,0,0,0-.84,1.67l-.59,1.23c-.15.32-.27.57-.37.76s-.13.26-.14.25a1,1,0,0,1,.09-.27l.32-.78.55-1.26a15.44,15.44,0,0,1,.8-1.69,47,47,0,0,1,6.74-9.85c.79-1,1.78-1.88,2.73-2.87s2.09-1.89,3.21-2.87,2.36-1.89,3.71-2.73c.66-.43,1.32-.89,2-1.32l2.15-1.22a48.93,48.93,0,0,1,20.76-6,48.84,48.84,0,0,1,21.23,3.95l2.26,1c.73.36,1.43.75,2.13,1.12,1.43.7,2.68,1.6,4,2.37s2.39,1.67,3.46,2.54,2.12,1.69,3,2.6a46.5,46.5,0,0,1,7.64,9.16,17.18,17.18,0,0,1,1,1.61q.38.71.66,1.2l.39.75A1,1,0,0,1,583,322.34Z"/><path class="cls-7" d="M415.61,328.64s-.06-.08-.13-.27l-.34-.82-.54-1.33-.81-1.78a54.41,54.41,0,0,0-6.47-10.64,42.63,42.63,0,0,0-13.94-11.87,41.3,41.3,0,0,0-10.3-3.43,53.46,53.46,0,0,0-23.21.43,43,43,0,0,0-10.12,4,50.6,50.6,0,0,0-14.39,11.42,57.2,57.2,0,0,0-7.05,10.27c-.7,1.3-1.22,2.31-1.56,3-.16.33-.3.59-.4.79s-.14.27-.15.26a1.89,1.89,0,0,1,.1-.28l.36-.81c.3-.72.8-1.75,1.47-3.07a54.88,54.88,0,0,1,6.95-10.41,50.33,50.33,0,0,1,14.44-11.6,43,43,0,0,1,10.22-4,51.91,51.91,0,0,1,11.7-1.52A52.61,52.61,0,0,1,383.19,298a41.68,41.68,0,0,1,10.41,3.5,42.52,42.52,0,0,1,14,12.08A52.75,52.75,0,0,1,414,324.35c.28.68.54,1.28.76,1.81s.36,1,.5,1.36.21.62.29.83A1.33,1.33,0,0,1,415.61,328.64Z"/><rect class="cls-7" x="171.47" y="328.96" width="151.78" height="17.75"/><path class="cls-9" d="M319.14,336.49a4.42,4.42,0,1,1-4.42-4.42A4.42,4.42,0,0,1,319.14,336.49Z"/><rect class="cls-9" x="308.59" y="46.36" width="12.67" height="251.68"/><path class="cls-7" d="M501.44,312.38c0,.15-21.36.26-47.7.26s-47.7-.11-47.7-.26,21.35-.26,47.7-.26S501.44,312.24,501.44,312.38Z"/><path class="cls-7" d="M482,308.61c-.15,0-.26-9.29-.26-20.74s.11-20.75.26-20.75.26,9.29.26,20.75S482.14,308.61,482,308.61Z"/><rect class="cls-7" x="307.23" y="40.59" width="25.86" height="11.54"/><rect class="cls-7" x="306.6" y="295.97" width="16.65" height="33.22"/><rect class="cls-5" x="180.41" y="248.83" width="104.18" height="80.36"/><rect class="cls-6" x="180.41" y="248.83" width="104.18" height="80.36"/><path class="cls-7" d="M258.49,328.62c-.09,0-.17-17.91-.17-40s.08-40,.17-40,.17,17.9.17,40S258.58,328.62,258.49,328.62Z"/><rect class="cls-4" x="267.77" y="310.9" width="7.99" height="9.03"/><rect class="cls-7" x="212.19" y="249.04" width="11.83" height="17.15"/><rect class="cls-7" x="212.19" y="311.8" width="11.83" height="17.15"/><path class="cls-7" d="M283.68,248.83a.76.76,0,0,1-.26,0l-.78,0-3,0-11.07,0-36.51.05L195.53,249l-11.06,0-3,0-.78,0a.8.8,0,0,1-.27,0h.27l.78,0,3,0,11.06-.06,36.52-.05,36.51.05,11.07.06,3,0,.78,0Z"/><rect class="cls-5" x="71.14" y="248.83" width="104.18" height="80.36"/><path class="cls-7" d="M149.22,328.62c-.1,0-.17-17.91-.17-40s.07-40,.17-40,.16,17.9.16,40S149.31,328.62,149.22,328.62Z"/><rect class="cls-4" x="158.5" y="310.9" width="7.99" height="9.03"/><rect class="cls-8" x="102.92" y="249.04" width="11.83" height="17.15"/><rect class="cls-8" x="102.92" y="311.8" width="11.83" height="17.15"/><path class="cls-7" d="M174.41,248.83a.8.8,0,0,1-.27,0l-.78,0-3,0-11.06,0-36.51.05L86.26,249l-11.07,0-3,0-.78,0a.76.76,0,0,1-.26,0h.26l.78,0,3,0,11.07-.06,36.52-.05,36.51.05,11.06.06,3,0,.78,0Z"/><path class="cls-5" d="M603.6,270.68c5.37,1.29,9.88,6.75,9.79,12.27a12.66,12.66,0,0,1-9.79,11.82"/><g class="cls-10"><path class="cls-11" d="M603.6,270.68c5.37,1.29,9.88,6.75,9.79,12.27a12.66,12.66,0,0,1-9.79,11.82"/></g><rect class="cls-5" x="599.23" y="267.57" width="4.59" height="30.41"/><rect class="cls-6" x="599.23" y="267.57" width="4.59" height="30.41"/></g><g id="Character"><path class="cls-12" d="M385.43,145.72a2.91,2.91,0,0,1-.75-3.73c.77-1.35,1.67-2.93,2.08-3.58a22.84,22.84,0,0,0,1.37-2.43,2.74,2.74,0,0,1,2.1-2,11.67,11.67,0,0,1,3.67.11l12.51,2.7,5.83,2.89-5.67,5-3.15-1c-.94.83-4.66,1.26-5.91,1.1-1.62-.2-4.84-1.24-6.67-.89l-1.76.24.83.71a8.31,8.31,0,0,1,4.45.91,1.27,1.27,0,0,1-.62,2.32l-4.11.27a23.81,23.81,0,0,1-3.2-1.83A12,12,0,0,0,385.43,145.72Z"/><path class="cls-13" d="M389.08,144.16a1.56,1.56,0,0,1-.68.28,3.57,3.57,0,0,1-2,0,2.5,2.5,0,0,1-1.19-.82,2.13,2.13,0,0,1-.38-1.67,1.66,1.66,0,0,1,.52-.84,2.85,2.85,0,0,1,.86-.42,15.34,15.34,0,0,1,1.83-.48,31.22,31.22,0,0,1,3.57-.46c.55,0,1.07-.06,1.57-.05a2.41,2.41,0,0,1,.38,0,1.53,1.53,0,0,0,.3,0,6.18,6.18,0,0,0,.62-.12c1.59-.4,2.56-.76,2.59-.69a9,9,0,0,1-2.5,1c-.2.06-.42.11-.65.16a2.38,2.38,0,0,1-.39,0h-.34c-.48,0-1,.05-1.54.1-1.09.11-2.28.25-3.51.49a17.38,17.38,0,0,0-1.76.45c-.58.17-1,.43-1.08.89a1.73,1.73,0,0,0,.26,1.3,2.22,2.22,0,0,0,1,.74,3.72,3.72,0,0,0,1.86.17A2.69,2.69,0,0,1,389.08,144.16Z"/><path class="cls-13" d="M390.63,137.64c.14,0,.38.63.13,1.42s-.81,1.2-.9,1.1.21-.6.41-1.26S390.48,137.67,390.63,137.64Z"/><path class="cls-13" d="M392.59,138.44c.14,0,.18.5-.17.94s-.82.54-.87.41.21-.39.46-.72S392.44,138.41,392.59,138.44Z"/><path class="cls-12" d="M441.84,135.64c1.72-.71-9.88,11.21-9.88,11.21l-21.44-8L403,143.51,426,159.74a12.15,12.15,0,0,0,15.73-1.49l13.61-15.73Z"/><path class="cls-5" d="M454.41,87.84c-3-.57-4.86-1.5-4.94-2.65-.16-2.37,7.39-4.82,16.87-5.46s17.29.76,17.45,3.14c.07,1.14-1.64,2.31-4.5,3.27"/><g class="cls-14"><path d="M456,87.65c-2.65-.51-4.37-1.33-4.38-2.35,0-2.85,6.55-4.28,14.95-4.84s15.33.67,15.47,2.78c.07,1-1.45,2-4,2.9"/></g><path class="cls-5" d="M451.75,83.92s1.77-10.26,1.95-10.76,2.75-5.12,9.54-6.85l5.68-.38s8.24,2,9.84,3.91,2.88,11.36,2.88,11.36l-16.16-2.39-10.65,3.38Z"/><path class="cls-5" d="M465,65l-2.44.17a3.93,3.93,0,0,0-.79,2.63c0,1.77.42,13.91.42,13.91l7.1-.81L468.07,66l2.45.37-.13-.84-.69-.72Z"/><path class="cls-12" d="M479.86,120.92l-17.4.37c-.22-1.83,0-13.28,0-13.28s-6.63-.58-7.16-7.13-.41-19.7-.41-19.7l.07-.58c7.37-3.78,16.14-4.66,23-.07l1,.68Z"/><path class="cls-13" d="M462.41,108a15.91,15.91,0,0,0,8.36-3.1s-1.8,5-8.39,4.8Z"/><path class="cls-12" d="M478.61,88.06c.11-.06,4.41-1.64,4.57,2.85s-4.38,3.73-4.39,3.6S478.61,88.06,478.61,88.06Z"/><path class="cls-13" d="M480.1,92.76s.08,0,.21.11a.85.85,0,0,0,.59,0,1.93,1.93,0,0,0,.83-1.77,2.46,2.46,0,0,0-.26-1.11.85.85,0,0,0-.61-.58.39.39,0,0,0-.45.23c-.05.13,0,.21-.05.22s-.1-.07-.07-.26a.54.54,0,0,1,.6-.41,1.09,1.09,0,0,1,.84.66,2.79,2.79,0,0,1,.32,1.25,2,2,0,0,1-1.07,2,.85.85,0,0,1-.72-.1C480.11,92.87,480.09,92.77,480.1,92.76Z"/><path class="cls-7" d="M457,89.27a.94.94,0,0,0,1,.88.9.9,0,0,0,.91-.91.94.94,0,0,0-1-.88A.9.9,0,0,0,457,89.27Z"/><path class="cls-7" d="M456.71,88.34c.13.12.8-.46,1.81-.52s1.78.39,1.88.25-.09-.27-.42-.48a2.65,2.65,0,0,0-1.52-.36,2.56,2.56,0,0,0-1.43.57C456.74,88.06,456.65,88.29,456.71,88.34Z"/><path class="cls-7" d="M466.94,88.9a.94.94,0,0,0,1,.88.89.89,0,0,0,.9-.91.93.93,0,0,0-1-.88A.89.89,0,0,0,466.94,88.9Z"/><path class="cls-7" d="M466.63,87.86c.12.11.8-.46,1.8-.53s1.78.39,1.88.26-.08-.27-.42-.48a2.62,2.62,0,0,0-1.51-.36,2.49,2.49,0,0,0-1.43.57C466.66,87.58,466.57,87.81,466.63,87.86Z"/><path class="cls-7" d="M463.48,95.58a6.4,6.4,0,0,0-1.66-.19c-.26,0-.51,0-.56-.21a1.31,1.31,0,0,1,.12-.78l.63-2a35.26,35.26,0,0,0,1.36-5.24,33.87,33.87,0,0,0-1.78,5.12l-.6,2a1.53,1.53,0,0,0-.06,1,.66.66,0,0,0,.45.35,1.71,1.71,0,0,0,.44,0A6.82,6.82,0,0,0,463.48,95.58Z"/><path class="cls-7" d="M466.49,96.07c-.17,0-.09,1.1-1,1.94s-2.05.8-2.05.95.27.2.77.18a2.72,2.72,0,0,0,1.71-.74,2.32,2.32,0,0,0,.75-1.61C466.7,96.33,466.56,96.06,466.49,96.07Z"/><path class="cls-7" d="M466.1,83.93c.12.27,1.11.07,2.31.13s2.16.32,2.31.06-.13-.37-.53-.6a3.83,3.83,0,0,0-1.74-.48,3.77,3.77,0,0,0-1.78.33C466.25,83.57,466.05,83.8,466.1,83.93Z"/><path class="cls-7" d="M456.88,85.4c.2.22.87-.07,1.71-.13s1.55,0,1.7-.21-.07-.34-.39-.53a2.3,2.3,0,0,0-1.41-.28,2.27,2.27,0,0,0-1.33.55C456.88,85.05,456.8,85.29,456.88,85.4Z"/><path class="cls-7" d="M479.06,83.79c-.05,1.83.13,3.67.08,5.5a6.1,6.1,0,0,1-.52,2,2,2,0,0,1-1.43,1.33,2,2,0,0,1-2-1.08,5.39,5.39,0,0,1-.56-2.32,7.49,7.49,0,0,0-.4-2.36,12.74,12.74,0,0,0-1.52-2.23,2.92,2.92,0,0,1-.59-2.53,13.38,13.38,0,0,1,6.93,1.69"/><path class="cls-9" d="M454.84,84.61l-.11-3.68L465.23,77l13.65,3,.26,3.94A33,33,0,0,0,454.84,84.61Z"/><path class="cls-5" d="M455.35,80.11l-.44.49-3.69,2.68a61.32,61.32,0,0,1,14.94-3,71.48,71.48,0,0,1,16.61,1.55l-5.28-2.71h0a8.81,8.81,0,0,0-6.41-2.35l-9.64.47A8.74,8.74,0,0,0,455.35,80.11Z"/><path class="cls-7" d="M462.05,76.92a33.68,33.68,0,0,0,.14-5.14,32.78,32.78,0,0,0-.26-5.13,30.86,30.86,0,0,0-.14,5.14A32.78,32.78,0,0,0,462.05,76.92Z"/><path class="cls-7" d="M470.52,66.36a6.81,6.81,0,0,0-1.84-.4.78.78,0,0,0-.72.77c0,.35,0,.71.07,1.08.06.77.12,1.59.19,2.45.14,1.73.3,3.3.43,4.43a9.27,9.27,0,0,0,.3,1.83,7.84,7.84,0,0,0,0-1.84c-.06-1.14-.17-2.72-.32-4.45-.08-.86-.15-1.67-.22-2.44,0-.37-.07-.72-.11-1.06a.5.5,0,0,1,.42-.49A9.91,9.91,0,0,0,470.52,66.36Z"/><path class="cls-7" d="M451,83.25s.44-.21,1.25-.56c.4-.18.9-.39,1.45-.7a4.24,4.24,0,0,0,1.61-1.44c.47-.69.5-1.63,1-2.33s1.54-.8,2.56-.91c2.06-.22,4.33-.4,6.72-.5s4.68-.11,6.76-.09a4.12,4.12,0,0,1,2.68.69,7.94,7.94,0,0,1,.87,1l.41.49.21.23a.9.9,0,0,0,.29.19c1.48.6,2.69,1,3.52,1.27s1.27.47,1.29.45-.1-.08-.31-.18-.52-.25-.93-.42c-.8-.35-2-.76-3.44-1.38a.54.54,0,0,1-.21-.13l-.19-.22-.39-.49a8.39,8.39,0,0,0-.9-1,4.48,4.48,0,0,0-2.9-.82c-2.08,0-4.37,0-6.77.07s-4.69.28-6.76.53a11.2,11.2,0,0,0-1.52.25A2.13,2.13,0,0,0,456,78c-.58.82-.58,1.75-1,2.37a4.09,4.09,0,0,1-1.48,1.4c-.53.31-1,.54-1.41.75s-.69.37-.89.49A2.34,2.34,0,0,0,451,83.25Z"/><path class="cls-7" d="M452.45,83.72s.1,0,.27-.16a7.36,7.36,0,0,1,.77-.46,15.31,15.31,0,0,1,3.09-1.17,38.42,38.42,0,0,1,10.84-1.26c2.15,0,4.19,0,6,.08a48.78,48.78,0,0,1,4.89.6c.69.12,1.31.26,1.84.4a3,3,0,0,1,1.27.55,1.24,1.24,0,0,1,.47,1s.07-.1.06-.32a1.36,1.36,0,0,0-.42-.83,3.28,3.28,0,0,0-1.31-.65c-.54-.16-1.16-.32-1.86-.46a43.78,43.78,0,0,0-4.91-.7c-1.87-.13-3.93-.1-6.07-.11a36,36,0,0,0-10.92,1.39A14.41,14.41,0,0,0,453.41,83a4.76,4.76,0,0,0-.74.54C452.52,83.64,452.44,83.71,452.45,83.72Z"/><path class="cls-3" d="M463.63,65.44a7.23,7.23,0,0,0,1,0l2.42-.1c.94,0,1.81-.15,2.41-.09a1.2,1.2,0,0,1,.84.43s0-.1-.14-.23a1.27,1.27,0,0,0-.68-.31,17.14,17.14,0,0,0-2.44,0l-2.41.14A7,7,0,0,0,463.63,65.44Z"/><path class="cls-3" d="M463.21,77.32a4,4,0,0,0,.51,0l1.38,0c1.17,0,2.78,0,4.56,0l2.51.06a10.85,10.85,0,0,1,2,.16,2,2,0,0,1,1.14.68,1.54,1.54,0,0,1,.24.44,1,1,0,0,0-.19-.48,2,2,0,0,0-1.16-.75,10.24,10.24,0,0,0-2.05-.2c-.77,0-1.62-.06-2.51-.08-1.79,0-3.4,0-4.57,0l-1.38.07A2.37,2.37,0,0,0,463.21,77.32Z"/><path class="cls-3" d="M468.48,75.53a1.61,1.61,0,0,0,0-.36c-.05-.32-.09-.65-.13-1-.12-.83-.26-2-.39-3.24s-.2-2.42-.25-3.26c0-.34,0-.66-.06-1a1.34,1.34,0,0,0,0-.36,1.48,1.48,0,0,0,0,.36c0,.24,0,.58,0,1,0,.83.08,2,.2,3.26s.29,2.42.43,3.25c.07.41.14.74.19,1A1.08,1.08,0,0,0,468.48,75.53Z"/><path class="cls-3" d="M476.8,79.51a1.58,1.58,0,0,0,.32.14L478,80l2.92,1a12.45,12.45,0,0,1,1.58.6,2,2,0,0,1,.93.93,1.46,1.46,0,0,1,.09.89c-.07.21-.15.3-.13.31a.78.78,0,0,0,.19-.29,1.37,1.37,0,0,0,0-.95,2,2,0,0,0-1-1,11.86,11.86,0,0,0-1.6-.63l-2.94-1-.89-.29A1.45,1.45,0,0,0,476.8,79.51Z"/><path class="cls-5" d="M402.89,258.23l.91,16.23s-16.2,6.37-16.32,9.39l31.54-.63-.38-25.35Z"/><g class="cls-14"><path d="M402.89,258.23l.91,16.23s-16.2,6.37-16.32,9.39l31.54-.63-.38-25.35Z"/></g><path class="cls-2" d="M413.52,272.9a1.28,1.28,0,0,1,.92,1.45,1.24,1.24,0,0,1-1.43.93,1.36,1.36,0,0,1-1-1.55,1.28,1.28,0,0,1,1.59-.79"/><path class="cls-2" d="M419,283.22l-.14-2.55-30.19,1.55s-1.39.64-1.21,1.63Z"/><path class="cls-7" d="M403.29,274.31c0,.15.78.21,1.54.69s1.19,1.12,1.33,1.05-.11-.94-1.05-1.51S403.25,274.17,403.29,274.31Z"/><path class="cls-7" d="M400,275.74c0,.15.64.4,1.18,1s.7,1.33.85,1.32.24-.88-.44-1.67S400,275.6,400,275.74Z"/><path class="cls-7" d="M398.2,279.74c.15,0,.34-.74-.07-1.58s-1.14-1.16-1.2-1,.39.58.72,1.27S398.05,279.73,398.2,279.74Z"/><path class="cls-7" d="M403.49,270.59c.07.14.77-.09,1.64,0s1.56.31,1.63.17-.58-.67-1.61-.7S403.41,270.47,403.49,270.59Z"/><g class="cls-15"><polygon points="403.08 261.44 403.24 264.34 418.73 263.89 418.7 261.28 403.08 261.44"/></g><path class="cls-7" d="M403.37,267.31a3,3,0,0,0,1.58,0,7.3,7.3,0,0,0,2.54-1,2.11,2.11,0,0,0,.47-.38A.68.68,0,0,0,408,265a.84.84,0,0,0-.68-.34,2.44,2.44,0,0,0-.59.09,6.64,6.64,0,0,0-1,.36,5.43,5.43,0,0,0-1.43,1c-.72.69-1,1.27-.91,1.3s.42-.44,1.15-1a6.72,6.72,0,0,1,1.4-.82,5.94,5.94,0,0,1,.9-.3c.33-.09.61-.1.7,0s0,.08,0,.18a1.44,1.44,0,0,1-.34.27c-.28.19-.56.35-.83.5a8.68,8.68,0,0,1-1.51.61A10.91,10.91,0,0,0,403.37,267.31Z"/><path class="cls-7" d="M403.57,267.53A2.52,2.52,0,0,0,404,266a5.11,5.11,0,0,0-.25-1.72,4.67,4.67,0,0,0-.42-.95,1.32,1.32,0,0,0-1-.78.74.74,0,0,0-.65.45,2.44,2.44,0,0,0-.15.59,3.62,3.62,0,0,0,.73,2.68c.63.8,1.28,1,1.29.92s-.49-.36-1-1.14a3.6,3.6,0,0,1-.53-1.47,3.16,3.16,0,0,1,0-.92c0-.33.17-.61.29-.57s.43.24.56.5a4.72,4.72,0,0,1,.41.85,5.64,5.64,0,0,1,.34,1.57C403.64,266.92,403.49,267.5,403.57,267.53Z"/><path class="cls-7" d="M488,189.26s-3.45,17.67-9.17,17.92c-7,.31-57.85,1-57.85,1l3.09,56.62-22.18-.54-8.87-55.78a21.4,21.4,0,0,1,2.36-14.65l.18-.31a21.31,21.31,0,0,1,18.15-10.23l42.23-.63Z"/><path class="cls-5" d="M411.52,258.23l.9,16.23s-16.19,6.37-16.32,9.39l31.54-.63-.37-25.35Z"/><path class="cls-2" d="M422.15,272.9a1.3,1.3,0,0,1,.92,1.45,1.25,1.25,0,0,1-1.44.93,1.36,1.36,0,0,1-1-1.55,1.28,1.28,0,0,1,1.59-.79"/><path class="cls-2" d="M427.64,283.22l-.14-2.55-30.19,1.55s-1.39.64-1.21,1.63Z"/><path class="cls-7" d="M411.91,274.31c0,.15.78.21,1.54.69s1.19,1.12,1.33,1.05-.11-.94-1-1.51S411.87,274.17,411.91,274.31Z"/><path class="cls-7" d="M408.63,275.74c0,.15.64.4,1.17,1s.7,1.33.86,1.32.23-.88-.45-1.67S408.63,275.6,408.63,275.74Z"/><path class="cls-7" d="M406.83,279.74c.14,0,.34-.74-.08-1.58s-1.14-1.16-1.2-1,.39.58.72,1.27S406.67,279.73,406.83,279.74Z"/><path class="cls-7" d="M412.11,270.59c.07.14.77-.09,1.64,0s1.56.31,1.64.17-.59-.67-1.62-.7S412,270.47,412.11,270.59Z"/><g class="cls-15"><polygon points="411.7 261.44 411.86 264.34 427.35 263.89 427.32 261.28 411.7 261.44"/></g><path class="cls-7" d="M412,267.31a3,3,0,0,0,1.58,0,7.3,7.3,0,0,0,2.54-1,2.11,2.11,0,0,0,.47-.38.68.68,0,0,0,.05-.82.83.83,0,0,0-.68-.34,2.44,2.44,0,0,0-.59.09,6.64,6.64,0,0,0-1,.36,5.43,5.43,0,0,0-1.43,1c-.72.69-1,1.27-.91,1.3s.42-.44,1.15-1a6.72,6.72,0,0,1,1.4-.82,5.94,5.94,0,0,1,.9-.3c.33-.09.61-.1.7,0s0,.08,0,.18a1.44,1.44,0,0,1-.34.27c-.28.19-.56.35-.83.5a8.68,8.68,0,0,1-1.51.61A10.91,10.91,0,0,0,412,267.31Z"/><path class="cls-7" d="M412.19,267.53a2.52,2.52,0,0,0,.39-1.54,5.11,5.11,0,0,0-.25-1.72,4.67,4.67,0,0,0-.42-.95,1.32,1.32,0,0,0-1-.78.74.74,0,0,0-.66.45,2.44,2.44,0,0,0-.15.59,3.62,3.62,0,0,0,.73,2.68c.63.8,1.28,1,1.29.92s-.49-.36-1-1.14a3.6,3.6,0,0,1-.53-1.47,3.55,3.55,0,0,1,0-.92c0-.33.17-.61.29-.57s.43.24.57.5a5.43,5.43,0,0,1,.4.85,5.64,5.64,0,0,1,.34,1.57C412.26,266.92,412.11,267.5,412.19,267.53Z"/><path class="cls-7" d="M493.64,189.26s-3.44,17.67-9.17,17.92c-7,.31-57.85,1-57.85,1l3.09,56.62-22.18-.54-8.87-55.78A21.4,21.4,0,0,1,401,193.83l.18-.31a21.31,21.31,0,0,1,18.16-10.23l42.22-.63Z"/><path class="cls-5" d="M450.38,118.27,457,162.75l-4.53,20,41.14,12.11c3.72-5.31,3.86-22.21,3.73-34.16-.23-21.05.7-22.08-.21-29.46s-2.46-12.14-6.36-14.46L479.64,111s-6.33,4-10.17,3.81c0,0-4.58.18-7.11-2.24C462.36,112.59,453.12,115.39,450.38,118.27Z"/><polygon class="cls-5" points="450.38 118.27 436.67 137.17 455.34 148.13 453.91 141.26 450.38 118.27"/><path class="cls-9" d="M417.71,183.57a.75.75,0,0,1-.24,0l-.69.06a9.43,9.43,0,0,0-1.12.13c-.45.05-1,.16-1.52.28a19.94,19.94,0,0,0-8.56,4.54,22.87,22.87,0,0,0-4.27,5.19,17.62,17.62,0,0,0-2.41,7.27,34.88,34.88,0,0,0,.33,8.54c.4,3,1,6,1.3,9.19.71,6.31,1.66,12.28,2.55,17.71s1.75,10.3,2.44,14.42,1.23,7.44,1.56,9.74c.15,1.12.27,2,.36,2.66,0,.28.06.51.08.69a1.08,1.08,0,0,1,0,.24.67.67,0,0,1-.06-.23c0-.18-.08-.41-.13-.68-.12-.65-.27-1.53-.46-2.64-.42-2.34-1-5.65-1.72-9.71s-1.59-9-2.55-14.41-1.89-11.41-2.6-17.73c-.32-3.16-.89-6.2-1.29-9.18a34.82,34.82,0,0,1-.29-8.67,17.9,17.9,0,0,1,2.51-7.43,22.66,22.66,0,0,1,4.4-5.24,19.4,19.4,0,0,1,8.76-4.46A12.92,12.92,0,0,1,417.71,183.57Z"/><path class="cls-12" d="M433.47,169.83s15.87,5.13,28.21,9.6a13.52,13.52,0,0,0,12.64-1.84h0a13.52,13.52,0,0,0,4.85-6.78l8.45-26.63-14.11-4.93-9.43,23.93L429,158.56"/><path class="cls-12" d="M412.48,164.34l-.13-1.26a4.27,4.27,0,0,1,1.11-2.5h0a4.46,4.46,0,0,1,1.19-.92l4.15-2.16a3.24,3.24,0,0,1,2.05-.32l8.51,1.44,9.77,1.29-2,11.11-4.52-1.5s-3.27,1.81-5.29,1.38c0,0-1.87,1.25-2.64.34,0,0-1.67,1.44-2.3,1.34s-1.87-.81-1.82-1.25l0-.57a2,2,0,0,1-2.06-.1,2.91,2.91,0,0,1-1-1.29,3.85,3.85,0,0,1-2.11-.91,4.8,4.8,0,0,1-.77-1.92S412.79,165.64,412.48,164.34Z"/><path class="cls-13" d="M418.76,160.32c.06,0,.16.45-.05,1.16a6.05,6.05,0,0,1-1.5,2.33c-.75.77-1.45,1.4-1.88,1.92s-.66.88-.73.85,0-.46.44-1.07a14.87,14.87,0,0,1,1.79-2.06,7.87,7.87,0,0,0,1.54-2.1C418.64,160.74,418.67,160.31,418.76,160.32Z"/><path class="cls-13" d="M420.38,164.76a5.53,5.53,0,0,1-1.11,2.51c-.83,1.28-1.74,2.13-1.84,2a11.43,11.43,0,0,1,1.4-2.32A10.57,10.57,0,0,1,420.38,164.76Z"/><path class="cls-13" d="M422.55,167.7c.12.08-.23.81-.79,1.63s-1.1,1.41-1.22,1.33.24-.81.79-1.63S422.43,167.62,422.55,167.7Z"/><path class="cls-13" d="M422.15,166.53c0,.07-.22.07-.48-.09a1.43,1.43,0,0,1-.63-1,1.41,1.41,0,0,1,.3-1.13c.2-.23.38-.28.43-.23s-.33.61-.22,1.28S422.21,166.41,422.15,166.53Z"/><path class="cls-13" d="M424.53,169.52c0,.06-.19.08-.41,0a1.28,1.28,0,0,1-.56-.77.92.92,0,0,1,.27-1c.26-.17.46-.05.44,0a.79.79,0,0,0-.2.84C424.18,169.1,424.58,169.39,424.53,169.52Z"/><path class="cls-13" d="M420.77,163.35c0,.07-.22.12-.52,0a1.32,1.32,0,0,1-.72-1,1.3,1.3,0,0,1,.52-1.15c.27-.19.49-.18.5-.12s-.56.51-.5,1.22S420.81,163.23,420.77,163.35Z"/><path class="cls-5" d="M487.69,120.39c-3.22-1.4-7.19,0-9.52,2.43s-3.39,5.63-4.4,8.74-3.38,9.06-4.35,12.06l18.29,7.83q2.34-6.34,4.36-12.77c1.14-3.6,2.2-7.49.88-11.07"/><path class="cls-7" d="M493,127.61a2.56,2.56,0,0,1,.19.44,7.4,7.4,0,0,1,.35,1.33,13.4,13.4,0,0,1-.13,5.12,56.06,56.06,0,0,1-2.21,7.54c-1,2.86-2,6.05-3.19,9.49l-.09.25-.26-.12-12.88-5.49-5.42-2.33-.22-.09.07-.21c1.48-4.35,3.13-8.35,4.37-12a39.48,39.48,0,0,1,2-5.17,13.8,13.8,0,0,1,2.86-4,9.62,9.62,0,0,1,6.7-2.63,7.38,7.38,0,0,1,2,.35,2.53,2.53,0,0,1,.63.29,8.32,8.32,0,0,0-2.61-.46,9.53,9.53,0,0,0-6.44,2.68,13.38,13.38,0,0,0-2.73,3.9,38.7,38.7,0,0,0-1.92,5.13c-1.21,3.71-2.85,7.72-4.31,12.05l-.15-.3,5.43,2.32,12.86,5.53-.35.13c1.18-3.42,2.28-6.6,3.27-9.45a60.53,60.53,0,0,0,2.31-7.47,14.3,14.3,0,0,0,.28-5C493.15,128.23,492.91,127.62,493,127.61Z"/><path class="cls-13" d="M469.51,172.3c-.06,0-.2-1-.82-2.83a14.31,14.31,0,0,0-1.51-3.06,9,9,0,0,0-3.18-3h.05l-19.81-2.57-11.95-1.62-5.21-.72-4.53-.72-2-.32a2.51,2.51,0,0,0-1.63.29L416.38,159l-1.63.77a3.8,3.8,0,0,1-.59.24,3,3,0,0,1,.54-.33l1.59-.86,2.53-1.32a2.81,2.81,0,0,1,1.81-.36l2,.28,4.53.66,5.22.68,11.95,1.57L464.1,163h.06a9.22,9.22,0,0,1,3.29,3.25,14,14,0,0,1,1.45,3.16,16.21,16.21,0,0,1,.52,2.14A3.64,3.64,0,0,1,469.51,172.3Z"/><path class="cls-7" d="M457.05,162.09a8.74,8.74,0,0,1-.27-1.44c-.17-1-.38-2.35-.63-3.94-.57-3.41-1.32-8-2.15-13s-1.58-9.57-2.15-13c-.25-1.59-.45-2.92-.61-3.94a8.12,8.12,0,0,1-.16-1.45,7.5,7.5,0,0,1,.36,1.42l.77,3.91c.63,3.31,1.46,7.89,2.31,13s1.55,9.66,2,13c.23,1.67.38,3,.47,4A7.4,7.4,0,0,1,457.05,162.09Z"/></g><g id="Floor"><path class="cls-7" d="M646.58,381c0,.14-144.74.26-323.24.26S.06,381.09.06,381s144.71-.26,323.28-.26S646.58,380.8,646.58,381Z"/></g><g id="Plant"><path class="cls-5" d="M19.46,347.6c-1.61,2.17-4.59,1.36-6,0s-1.9-3.35-2.38-5.23c-1.12-4.3-2.23-8.8-1.2-13.11a7.19,7.19,0,0,1,1.76-3.51,3.82,3.82,0,0,1,3.63-1.1c1.5.44,2.4,1.95,3.05,3.39a31.23,31.23,0,0,1,2.72,13.44,10.8,10.8,0,0,1-1.63,6.15"/><g class="cls-16"><path d="M19.46,347.6c-1.61,2.17-4.59,1.36-6,0s-1.9-3.35-2.38-5.23c-1.12-4.3-2.23-8.8-1.2-13.11a7.19,7.19,0,0,1,1.76-3.51,3.82,3.82,0,0,1,3.63-1.1c1.5.44,2.4,1.95,3.05,3.39a31.23,31.23,0,0,1,2.72,13.44,10.8,10.8,0,0,1-1.63,6.15"/></g><path class="cls-5" d="M13.36,358.64a13.35,13.35,0,0,0-8.29-1.24,6.9,6.9,0,0,0-4.16,1.73c-1.06,1.1-1.3,3.09-.15,4.1a4,4,0,0,0,2.57.73c2.2,0,4.65-.29,6.37,1.08,1,.78,1.62,2,2.81,2.46a2.84,2.84,0,0,0,3.15-1.31,4.82,4.82,0,0,0,.45-3.56A5.43,5.43,0,0,0,13.36,358.64Z"/><path class="cls-5" d="M23.62,350.89a8.09,8.09,0,0,1-1.05-7.44,14.33,14.33,0,0,1,4.55-6.24,23.74,23.74,0,0,1,8-4.42,8.49,8.49,0,0,1,3.55-.5,3.71,3.71,0,0,1,2.91,1.87c.79,1.6-.06,3.49-.95,5a59.66,59.66,0,0,1-5.37,7.71c-1.6,2-3.42,3.87-5.8,4.71s-4.82.66-6-1"/><path class="cls-7" d="M18.67,380.94a4.41,4.41,0,0,1-.11-1c0-.73-.12-1.65-.2-2.75a35.47,35.47,0,0,0-.51-4,30,30,0,0,0-1.33-4.79A17.39,17.39,0,0,0,14.21,364a8.9,8.9,0,0,0-3-2.63,8.74,8.74,0,0,0-2.56-.87,6.6,6.6,0,0,1-1-.17,4.12,4.12,0,0,1,1,0,7.75,7.75,0,0,1,2.67.77,9,9,0,0,1,3.17,2.65,17.12,17.12,0,0,1,2.39,4.45,28.35,28.35,0,0,1,1.32,4.86,34.82,34.82,0,0,1,.43,4.09c.05,1.16.06,2.1.06,2.76A4.24,4.24,0,0,1,18.67,380.94Z"/><path class="cls-7" d="M18.54,378.83a1.81,1.81,0,0,1,0-.47c0-.35,0-.79,0-1.33,0-1.16.08-2.83.07-4.9,0-4.14-.19-9.85-.71-16.14s-1.29-12-2-16c-.17-1-.34-1.93-.51-2.74s-.29-1.5-.42-2.06-.21-1-.28-1.31a2.18,2.18,0,0,1-.07-.46,1.53,1.53,0,0,1,.15.44c.1.34.21.77.36,1.29s.31,1.25.49,2.05.38,1.72.57,2.74a150.91,150.91,0,0,1,2.14,16c.52,6.3.68,12,.6,16.17,0,2.07-.12,3.75-.21,4.91,0,.54-.08,1-.11,1.32A2.22,2.22,0,0,1,18.54,378.83Z"/><path class="cls-7" d="M18.81,367.79a9.13,9.13,0,0,1,0-1.39c.08-.89.24-2.18.53-3.76a50,50,0,0,1,1.37-5.46,49,49,0,0,1,2.48-6.44,34.62,34.62,0,0,1,7-10.33A19.15,19.15,0,0,1,31.88,339c.25-.2.47-.4.69-.55l.63-.41a10.22,10.22,0,0,1,1.19-.72,41.64,41.64,0,0,0-3.93,3.32,36.65,36.65,0,0,0-6.86,10.29,57.19,57.19,0,0,0-3.93,11.79c-.33,1.56-.53,2.83-.66,3.72A10.29,10.29,0,0,1,18.81,367.79Z"/></g></g></svg>