<svg xmlns="http://www.w3.org/2000/svg" xmlns:xlink="http://www.w3.org/1999/xlink" viewBox="0 0 2785.53 2800"><defs><style>.cls-1{isolation:isolate;}.cls-2{fill:url(#linear-gradient);}.cls-3{fill:#91b3fa;}.cls-11,.cls-4,.cls-46,.cls-7,.cls-9{fill:#fff;}.cls-4{mix-blend-mode:soft-light;}.cls-5{fill:#bdd0fb;}.cls-6{fill:#7d97f4;}.cls-7{opacity:0.2;}.cls-8{opacity:0.68;}.cls-10{fill:url(#linear-gradient-2);}.cls-11{opacity:0.5;}.cls-12{fill:url(#linear-gradient-3);}.cls-13{fill:url(#linear-gradient-4);}.cls-14{fill:url(#linear-gradient-5);}.cls-15{opacity:0.78;}.cls-16{fill:url(#linear-gradient-6);}.cls-17{fill:url(#linear-gradient-7);}.cls-18{fill:url(#linear-gradient-8);}.cls-19{fill:url(#linear-gradient-9);}.cls-20{fill:url(#linear-gradient-10);}.cls-21{fill:url(#linear-gradient-11);}.cls-22{fill:url(#linear-gradient-12);}.cls-23{fill:url(#linear-gradient-13);}.cls-24{fill:url(#linear-gradient-14);}.cls-25{fill:url(#linear-gradient-15);}.cls-26{fill:url(#linear-gradient-16);}.cls-27{fill:url(#linear-gradient-17);}.cls-28{fill:url(#linear-gradient-18);}.cls-29{fill:url(#linear-gradient-19);}.cls-30{fill:url(#linear-gradient-20);}.cls-31{fill:url(#linear-gradient-21);}.cls-32{fill:url(#linear-gradient-22);}.cls-33{fill:url(#linear-gradient-23);}.cls-34{fill:url(#linear-gradient-24);}.cls-35{fill:url(#linear-gradient-25);}.cls-36{fill:url(#linear-gradient-26);}.cls-37{fill:url(#linear-gradient-27);}.cls-38{fill:url(#linear-gradient-28);}.cls-39{fill:url(#linear-gradient-29);}.cls-40{fill:url(#linear-gradient-30);}.cls-41{fill:url(#linear-gradient-31);}.cls-42{fill:url(#linear-gradient-32);}.cls-43{fill:url(#linear-gradient-33);}.cls-44{fill:url(#linear-gradient-34);}.cls-45{fill:url(#linear-gradient-35);}.cls-46{opacity:0.7;}.cls-47{fill:url(#linear-gradient-36);}.cls-48{fill:url(#linear-gradient-37);}.cls-49{fill:url(#linear-gradient-38);}</style><linearGradient id="linear-gradient" x1="2945.96" y1="3162.24" x2="898.55" y2="952.33" gradientUnits="userSpaceOnUse"><stop offset="0" stop-color="#dae3fe"/><stop offset="1" stop-color="#e9effd"/></linearGradient><linearGradient id="linear-gradient-2" x1="1942.49" y1="2401.92" x2="430.13" y2="732.02" gradientUnits="userSpaceOnUse"><stop offset="0" stop-color="#ff928e"/><stop offset="1" stop-color="#fe7062"/></linearGradient><linearGradient id="linear-gradient-3" x1="1112.86" y1="649.03" x2="935.48" y2="809.68" xlink:href="#linear-gradient-2"/><linearGradient id="linear-gradient-4" x1="426.75" y1="1115.37" x2="652.01" y2="573.66" gradientUnits="userSpaceOnUse"><stop offset="0" stop-color="#4f52ff"/><stop offset="1" stop-color="#4042e2"/></linearGradient><linearGradient id="linear-gradient-5" x1="273.32" y1="1239.92" x2="664.19" y2="1239.92" xlink:href="#linear-gradient"/><linearGradient id="linear-gradient-6" x1="1198.83" y1="2214.83" x2="1636.53" y2="2214.83" gradientUnits="userSpaceOnUse"><stop offset="0" stop-color="#a22b25"/><stop offset="1" stop-color="#c0423c"/></linearGradient><linearGradient id="linear-gradient-7" x1="2454.14" y1="3031.32" x2="1657.59" y2="1987.1" xlink:href="#linear-gradient-2"/><linearGradient id="linear-gradient-8" x1="768.79" y1="1822.96" x2="539.51" y2="2056.92" xlink:href="#linear-gradient-4"/><linearGradient id="linear-gradient-9" x1="1349.96" y1="1795.48" x2="663.29" y2="2137.06" gradientUnits="userSpaceOnUse"><stop offset="0" stop-color="#febbba"/><stop offset="1" stop-color="#ff928e"/></linearGradient><linearGradient id="linear-gradient-10" x1="1339.91" y1="1709.81" x2="1238.63" y2="1815.59" xlink:href="#linear-gradient-9"/><linearGradient id="linear-gradient-11" x1="1353.22" y1="1791.44" x2="666.56" y2="2133.01" xlink:href="#linear-gradient-9"/><linearGradient id="linear-gradient-12" x1="814.2" y1="1655.67" x2="-406.99" y2="3266.37" xlink:href="#linear-gradient-4"/><linearGradient id="linear-gradient-13" x1="463.17" y1="1902.14" x2="554.42" y2="1652.98" xlink:href="#linear-gradient-9"/><linearGradient id="linear-gradient-14" x1="903.84" y1="2224.62" x2="585.66" y2="2458.57" xlink:href="#linear-gradient-9"/><linearGradient id="linear-gradient-15" x1="953.33" y1="1169.63" x2="785.99" y2="1457.46" xlink:href="#linear-gradient-4"/><linearGradient id="linear-gradient-16" x1="951.71" y1="1168.68" x2="784.36" y2="1456.51" xlink:href="#linear-gradient-4"/><linearGradient id="linear-gradient-17" x1="665.9" y1="1548.04" x2="398.36" y2="1752.75" xlink:href="#linear-gradient-9"/><linearGradient id="linear-gradient-18" x1="477.57" y1="1385.95" x2="726.74" y2="1706.76" gradientUnits="userSpaceOnUse"><stop offset="0" stop-color="#09005d"/><stop offset="1" stop-color="#1a0f91"/></linearGradient><linearGradient id="linear-gradient-19" x1="632.72" y1="1504.67" x2="365.18" y2="1709.38" xlink:href="#linear-gradient-9"/><linearGradient id="linear-gradient-20" x1="1070.41" y1="2325.49" x2="1178.27" y2="2325.49" xlink:href="#linear-gradient-6"/><linearGradient id="linear-gradient-21" x1="2660" y1="2874.29" x2="1863.45" y2="1830.07" xlink:href="#linear-gradient-2"/><linearGradient id="linear-gradient-22" x1="2057.67" y1="1777.04" x2="1987.49" y2="1566.48" xlink:href="#linear-gradient-6"/><linearGradient id="linear-gradient-23" x1="2440.32" y1="2315.63" x2="2590.05" y2="2987.08" xlink:href="#linear-gradient-4"/><linearGradient id="linear-gradient-24" x1="2871.21" y1="2713.18" x2="2074.66" y2="1668.95" xlink:href="#linear-gradient-2"/><linearGradient id="linear-gradient-25" x1="2668.79" y1="1616.23" x2="2242.09" y2="2283.9" gradientUnits="userSpaceOnUse"><stop offset="0" stop-color="#e1473d"/><stop offset="1" stop-color="#e9605a"/></linearGradient><linearGradient id="linear-gradient-26" x1="2444.69" y1="2230.14" x2="2535.07" y2="1376.6" xlink:href="#linear-gradient-6"/><linearGradient id="linear-gradient-27" x1="3228.15" y1="4356.44" x2="2975.87" y2="4690.18" gradientTransform="matrix(-0.69, -0.73, -0.73, 0.69, 7386.93, 839.09)" xlink:href="#linear-gradient-6"/><linearGradient id="linear-gradient-28" x1="3035.48" y1="4436.59" x2="3336.83" y2="4436.59" gradientTransform="matrix(-0.69, -0.73, -0.73, 0.69, 7386.93, 839.09)" xlink:href="#linear-gradient-18"/><linearGradient id="linear-gradient-29" x1="2858.66" y1="4620.74" x2="3061.01" y2="4413.14" gradientTransform="matrix(-0.69, -0.73, -0.73, 0.69, 7386.93, 839.09)" xlink:href="#linear-gradient-6"/><linearGradient id="linear-gradient-30" x1="1303.32" y1="1841.64" x2="1303.32" y2="1617.4" xlink:href="#linear-gradient-4"/><linearGradient id="linear-gradient-31" x1="1146.64" y1="1342.83" x2="1142.08" y2="1232.06" xlink:href="#linear-gradient-4"/><linearGradient id="linear-gradient-32" x1="1140.86" y1="1176.52" x2="1163.7" y2="1493.99" xlink:href="#linear-gradient-4"/><linearGradient id="linear-gradient-33" x1="1455.26" y1="1330.1" x2="1450.69" y2="1219.33" xlink:href="#linear-gradient-4"/><linearGradient id="linear-gradient-34" x1="1448.65" y1="1154.37" x2="1471.49" y2="1471.85" xlink:href="#linear-gradient-4"/><linearGradient id="linear-gradient-35" x1="1321.87" y1="999.77" x2="1291.04" y2="1225.89" xlink:href="#linear-gradient-4"/><linearGradient id="linear-gradient-36" x1="1331.17" y1="1175.87" x2="1218.12" y2="2231.08" xlink:href="#linear-gradient-4"/><linearGradient id="linear-gradient-37" x1="1400.23" y1="1409.64" x2="2016.06" y2="295.13" xlink:href="#linear-gradient-18"/><linearGradient id="linear-gradient-38" x1="1310.98" y1="1347.14" x2="1310.98" y2="1427.47" xlink:href="#linear-gradient-4"/></defs><g class="cls-1"><g id="Layer_2" data-name="Layer 2"><g id="Illustration"><path class="cls-2" d="M2660.64,1902.9c-281.33,657.57-1023.94,940-1605.8,891.86-158.87-13.15-478.51-39.61-728.1-275.63C-152.57,2065.86-78.75,1118.4,380.09,560.59,439.18,488.76,848.18,7.47,1485.53,13.92c466.64,4.71,794.17,268.31,834,301.15,50.32,41.48,161.28,140.06,261.29,296.46C2815.79,979,2836.45,1492,2660.64,1902.9Z"/><path class="cls-3" d="M408.61,13.18c-1.22-11.58,13.29-17.81,21-9.07,78.09,88.71,261.18,349.55,169.65,766.15C484.4,1293,576.17,1496.42,702.07,1627.2c0,0-183-73.3-282.86-280.4C174.14,838.32,430.32,219,408.61,13.18Z"/><path class="cls-4" d="M458.14,184.57c5.11,59.9,9.05,119.86,10.79,179.89q3.07,90,.64,180C467.7,604.4,464.7,664.3,459.17,724,453.9,783.7,446.08,843.11,438,902.74c-7.72,59.64-15.85,119.67-17.85,180.72s3.13,123.06,19.52,182.42c4.1,14.79,8.49,29.57,13.7,43.94,4.95,14.47,10.54,28.73,16.38,42.88A654.86,654.86,0,0,0,511,1434.84c31.55,52.68,71.1,100.51,115.73,142.05a11.62,11.62,0,0,0,16.08-16.77l0,0c-10.57-10.41-21-20.93-30.94-31.87-5-5.4-9.86-11-14.77-16.53-4.69-5.69-9.6-11.2-14.12-17a612.64,612.64,0,0,1-50.15-72.73c-30.06-50.62-52.71-106-68.46-162.67a584.58,584.58,0,0,1-16.21-86.64,661.7,661.7,0,0,1-3.38-88.45c1.49-59.3,9-118.79,16.34-178.48s14.07-119.76,18.43-180q3.4-45.17,5.17-90.42c.68-15.08,1.06-30.17,1.48-45.25q.39-22.63.51-45.27.19-90.53-5.18-180.86c-3.9-60.17-9.4-120.22-17.2-180a3.11,3.11,0,0,0-6.19.67Z"/><path class="cls-5" d="M331.13,1803.92c-8,19.9-33.73,25.15-49.09,10.19-84.77-82.56-303.33-337.68-266.7-744.53C46.27,726,30.4,536.77,17.24,451.36c-2.79-18.06,19.1-29.17,32.07-16.29C192.35,577.14,621.21,1083,331.13,1803.92Z"/><path class="cls-4" d="M302.1,1803.07a7.8,7.8,0,0,1-1.45.71,8.37,8.37,0,0,1-10.78-4.91c-1.83-4.91-183.39-496.48-162-976.13a8.37,8.37,0,0,1,16.73.75C123.37,1299.65,303.73,1788.13,305.56,1793A8.36,8.36,0,0,1,302.1,1803.07Z"/><ellipse class="cls-6" cx="1485.9" cy="1339.43" rx="1204.17" ry="1299.79" transform="matrix(0.04, -1, 1, 0.04, 82.58, 2765.16)"/><ellipse class="cls-7" cx="1415.55" cy="1252.56" rx="1019.93" ry="963.51"/><g class="cls-8"><path class="cls-4" d="M1818,1345.25c-.31,212.38-14.88,425.2-52.3,634.58-9.48,52.3-20.46,104.35-33.55,155.9s-28.29,102.63-46.85,152.58c-18.71,49.82-40.43,98.92-69.88,143.8-14.84,22.27-31.68,43.62-52.45,61.17a149.51,149.51,0,0,1-34.33,22.13,102.73,102.73,0,0,1-40.09,9.44,101.07,101.07,0,0,1-40.52-7.45c-12.81-5.09-24.49-12.48-35.13-20.91-21.27-17-38.47-38.12-53.58-60.22-30-44.56-52-93.56-70.9-143.3s-34.1-100.92-47.34-152.42-24.32-103.55-33.87-155.83c-19.07-104.59-32.07-210.19-40.85-316.08s-13.08-212.14-13.61-318.4c-.26-53.12,1.19-106.23,3.07-159.31s4.92-106.13,8.82-159.1c7.86-105.94,19.6-211.63,37-316.46,8.76-52.41,19-104.59,31.24-156.31s26.62-103,44.36-153.17c8.92-25.07,18.67-49.86,29.79-74.08s23.53-47.89,38.13-70.28,31.46-43.57,52.42-60.61c10.47-8.44,22-15.78,34.65-20.76a97.92,97.92,0,0,1,39.85-7.08,105.7,105.7,0,0,1,39.38,9.23,153.83,153.83,0,0,1,34.22,21.36c20.9,17,38.19,37.75,53.54,59.55,30.51,43.92,53.51,92.35,73.44,141.63,19.77,49.41,36.1,100.1,50.33,151.32s26.17,103.05,36.56,155.17C1800.64,920,1817.34,1132.83,1818,1345.25Zm-15.72,0q.3-158.73-12.62-317.13c-8.67-105.46-21.81-210.61-41.38-314.59-9.77-52-21.15-103.68-34.69-154.8s-29.28-101.67-48.37-150.93c-19.24-49.12-41.54-97.39-71.14-141-14.88-21.65-31.67-42.21-51.8-58.94a148.82,148.82,0,0,0-32.83-21c-11.81-5.31-24.53-8.8-37.48-9.14a92.13,92.13,0,0,0-37.81,7.12c-12,4.87-23,12.05-33.07,20.33-20.1,16.7-36.39,37.7-50.55,59.8s-26.16,45.72-36.89,69.81-20.14,48.79-28.72,73.76c-17.07,50-30.74,101.16-42.43,152.73s-21.24,103.65-29.39,155.93c-16.23,104.58-26.77,210-33.45,315.65s-9.07,211.52-8.88,317.36q-.42,158.73,11.12,317.2c7.93,105.52,20.07,210.77,38.25,315,9.1,52.09,19.74,103.92,32.48,155.22s27.58,102.08,45.81,151.6,39.76,98,68.73,141.75c14.58,21.7,31.17,42.28,51.27,58.6,10,8.09,21,15.1,32.8,19.89a90.41,90.41,0,0,0,37.09,7.06,94.51,94.51,0,0,0,36.72-9,140.59,140.59,0,0,0,32.12-21.1c19.67-16.88,35.91-37.72,50.23-59.61,28.46-44.11,49.58-92.81,67.71-142.29s32.63-100.45,45.26-151.76,23.11-103.19,32.13-155.3c18-104.23,30-209.5,38-315S1802.27,1451.1,1802.23,1345.25Z"/><path class="cls-4" d="M2353.73,1345.25c-.74,136.77-18.31,273.6-54.93,405.49-37.25,131.59-93.41,258.18-169.64,371.84-38.13,56.76-81.32,110.2-129.58,158.68s-101.59,91.95-159.5,128.4S1719.51,2475,1654,2494.75a696,696,0,0,1-404.68.18c-65.57-19.66-128.22-48.68-186.25-84.95s-111.4-79.87-159.72-128.31A1071.62,1071.62,0,0,1,773.49,2123c-76.39-113.67-132.66-240.31-170.09-372a1473.21,1473.21,0,0,1-41.18-201,1512.11,1512.11,0,0,1,.13-409.48,1471.1,1471.1,0,0,1,41.32-201C641.19,807.92,697.55,681.36,774,567.81c38.23-56.72,81.51-110.08,129.84-158.47s101.71-91.78,159.68-128.08a772.2,772.2,0,0,1,186.1-84.64,691.27,691.27,0,0,1,404.05.16,771.89,771.89,0,0,1,185.95,84.79c57.9,36.34,111.22,79.79,159.46,128.18a1071.11,1071.11,0,0,1,129.59,158.5c76.29,113.54,132.53,240,169.88,371.58C2335.23,1071.68,2352.9,1208.48,2353.73,1345.25Zm-18,0c-.2-135.22-17-270.58-52.72-401.1C2247.11,813.82,2193.1,688,2118.73,574.86a1059.15,1059.15,0,0,0-126.64-158.21c-47.3-48.35-99.53-92.09-156.66-128.45-57.2-36.15-119-65.25-183.74-84.93a674,674,0,0,0-400,.16c-64.73,19.74-126.44,48.89-183.58,85.08-57.07,36.4-109.23,80.18-156.44,128.55S822.33,518.78,785.25,575.3C711,688.43,657.14,814.2,621.44,944.46a1482.64,1482.64,0,0,0-39.38,198.67,1544.68,1544.68,0,0,0,.12,404.23A1481.9,1481.9,0,0,0,621.71,1746c35.79,130.21,89.78,255.88,164,368.9,37.09,56.46,79.22,109.69,126.41,158.07s99.33,92,156.39,128.31c57.12,36.1,118.82,65,183.44,84.77a669.41,669.41,0,0,0,399.39.18c64.65-19.68,126.4-48.57,183.59-84.63,57.11-36.25,109.31-80,156.61-128.22a1058.59,1058.59,0,0,0,126.65-158c74.42-113,128.53-238.76,164.49-369C2318.48,1615.8,2335.42,1480.47,2335.71,1345.25Z"/><path class="cls-4" d="M399,878.46l270.9-2.19L940.82,875l541.81-1,541.8,1.1,270.91,1.36,270.9,2.36a.8.8,0,0,1,0,1.59l-270.9,2.36-270.91,1.36-541.8,1.1-541.81-1L669.92,883,399,880.83a1.19,1.19,0,0,1,0-2.37Z"/><path class="cls-4" d="M713.3,424.72c64.11-1,128.22-1.45,192.33-2.19L1098,421.29c64.11-.53,128.22-.47,192.34-.63l192.33-.37,384.66,1.1,192.34,1.36c64.11.8,128.22,1.27,192.33,2.36a.8.8,0,0,1,0,1.59c-64.11,1.09-128.22,1.56-192.33,2.36l-192.34,1.36-384.66,1.1-192.33-.37c-64.12-.16-128.23-.1-192.34-.63l-192.33-1.24c-64.11-.74-128.22-1.17-192.33-2.19a1.19,1.19,0,0,1,0-2.37Z"/><path class="cls-4" d="M304.87,1332.2,599.31,1330l294.44-1.25,588.88-1,588.87,1.1,294.44,1.36,294.44,2.36a.8.8,0,0,1,0,1.59l-294.44,2.36-294.44,1.36-588.87,1.1-588.88-1-294.44-1.25-294.44-2.18a1.19,1.19,0,0,1,0-2.37Z"/><path class="cls-4" d="M399,1785.94l270.9-2.19,270.9-1.24,541.81-1,541.8,1.1,270.91,1.35,270.9,2.37a.79.79,0,0,1,.79.8.81.81,0,0,1-.79.79l-270.9,2.36-270.91,1.36-541.8,1.1-541.81-1-270.9-1.24L399,1788.31a1.19,1.19,0,0,1,0-2.37Z"/><path class="cls-4" d="M2290.72,2245H752.06a4.16,4.16,0,0,1,0-8.31H2290.72a4.16,4.16,0,1,1,0,8.31Z"/></g><path class="cls-9" d="M1164.3,765.78a5,5,0,0,1-2.84-9.16q6.91-4.74,13.69-9.52a5,5,0,0,1,5.79,8.19q-6.82,4.85-13.81,9.62A5,5,0,0,1,1164.3,765.78Z"/><path class="cls-9" d="M1203.62,737.5a5,5,0,0,1-3-9c8.41-6.38,16.75-12.93,24.78-19.47a5,5,0,1,1,6.34,7.79c-8.12,6.61-16.55,13.23-25,19.68A5.07,5.07,0,0,1,1203.62,737.5Zm49.11-40a5,5,0,0,1-3.32-8.79c8-7,15.77-14.13,23.24-21.24a5,5,0,1,1,6.92,7.27c-7.56,7.2-15.48,14.44-23.53,21.51A5,5,0,0,1,1252.73,697.46Zm45.85-43.71a5,5,0,0,1-3.61-8.51c7.32-7.6,14.49-15.38,21.3-23.13a5,5,0,1,1,7.54,6.62c-6.91,7.87-14.18,15.77-21.61,23.48A5,5,0,0,1,1298.58,653.75Zm41.8-47.6a5,5,0,0,1-3.92-8.15c6.54-8.22,12.92-16.65,18.94-25.07a5,5,0,1,1,8.16,5.84c-6.12,8.56-12.6,17.13-19.25,25.49A5,5,0,0,1,1340.38,606.15Zm36.85-51.54a4.9,4.9,0,0,1-2.69-.79,5,5,0,0,1-1.54-6.93c5.63-8.83,11-17.9,16.13-26.95a5,5,0,1,1,8.76,4.91c-5.17,9.22-10.69,18.45-16.42,27.44A5,5,0,0,1,1377.23,554.61Zm31-55.27a5,5,0,0,1-4.51-7.22c4.57-9.39,8.91-19,12.89-28.62a5,5,0,1,1,9.27,3.85c-4.06,9.78-8.47,19.59-13.13,29.16A5,5,0,0,1,1408.2,499.34Zm24.27-58.5a5,5,0,0,1-1.64-.28,5,5,0,0,1-3.11-6.39c3.4-9.81,6.55-19.88,9.36-29.94a5,5,0,1,1,9.67,2.71c-2.87,10.25-6.08,20.52-9.53,30.52A5,5,0,0,1,1432.47,440.84Z"/><path class="cls-9" d="M1449.54,379.8a5.63,5.63,0,0,1-1.07-.11,5,5,0,0,1-3.84-6c1.16-5.4,2.25-10.87,3.24-16.25a5,5,0,1,1,9.87,1.8c-1,5.5-2.11,11.07-3.3,16.57A5,5,0,0,1,1449.54,379.8Z"/><path class="cls-9" d="M1491.81,396.35a5,5,0,0,1-3.52-1.45q-6-5.86-11.9-11.9a5,5,0,0,1,7.16-7q5.88,6,11.78,11.79a5,5,0,0,1-3.52,8.6Z"/><path class="cls-9" d="M1878.6,595l-.48,0c-10.57-1-21.25-2.35-31.72-4a5,5,0,0,1,1.55-9.92c10.28,1.61,20.75,2.93,31.12,3.92a5,5,0,0,1-.47,10Zm-62.56-9.8a5,5,0,0,1-1.08-.12c-10.33-2.26-20.76-4.88-31-7.78a5,5,0,1,1,2.73-9.66c10.07,2.84,20.31,5.41,30.44,7.63a5,5,0,0,1-1.07,9.93Zm-61-17.21a5,5,0,0,1-1.65-.28c-10-3.44-20-7.25-29.91-11.32a5,5,0,0,1,3.82-9.29c9.72,4,19.6,7.74,29.38,11.12a5,5,0,0,1-1.64,9.77ZM1696.43,544a5,5,0,0,1-2.15-.49c-9.49-4.51-19.07-9.37-28.48-14.45a5,5,0,1,1,4.77-8.83c9.25,5,18.68,9.77,28,14.22a5,5,0,0,1-2.16,9.55Zm-55.75-30.06a5,5,0,0,1-2.59-.73c-9-5.42-18-11.19-26.92-17.13a5,5,0,1,1,5.58-8.34c8.76,5.85,17.69,11.53,26.54,16.88a5,5,0,0,1-2.61,9.32ZM1588,478.71a5,5,0,0,1-3-1c-8.46-6.19-17-12.71-25.34-19.36a5,5,0,1,1,6.26-7.85c8.24,6.56,16.66,13,25,19.11a5,5,0,0,1-3,9.07Zm-49.58-39.43a5,5,0,0,1-3.27-1.22c-7.91-6.79-15.92-13.92-23.8-21.18a5,5,0,0,1,6.81-7.38c7.79,7.18,15.71,14.23,23.53,20.95a5,5,0,0,1-3.27,8.83Z"/><path class="cls-9" d="M1927,597.41h0c-5.6,0-11.28-.13-16.89-.33a5,5,0,0,1-4.84-5.19,5,5,0,0,1,5.2-4.84c5.5.19,11.07.3,16.56.32a5,5,0,0,1,0,10Z"/><path class="cls-9" d="M1926.75,596.46a5,5,0,0,1-4.54-2.88q-3.57-7.56-7.08-15.24a5,5,0,0,1,9.13-4.18q3.49,7.62,7,15.14a5,5,0,0,1-2.4,6.68A4.94,4.94,0,0,1,1926.75,596.46Z"/><path class="cls-9" d="M2376.74,1079.68a5,5,0,0,1-1.91-.38c-10.45-4.29-20.93-8.92-31.14-13.76a5,5,0,0,1,4.3-9.08c10.05,4.77,20.37,9.33,30.66,13.56a5,5,0,0,1-1.91,9.66Zm-61.06-28.91a5.12,5.12,0,0,1-2.38-.6c-9.89-5.33-19.84-11-29.56-16.91a5,5,0,0,1,5.2-8.59c9.58,5.81,19.38,11.41,29.12,16.66a5,5,0,0,1-2.38,9.44Zm-57.81-35a4.93,4.93,0,0,1-2.8-.86c-9.31-6.29-18.64-12.93-27.73-19.73a5,5,0,0,1,6-8c9,6.71,18.16,13.25,27.34,19.45a5,5,0,0,1-2.82,9.18Zm-54.11-40.45a5,5,0,0,1-3.18-1.15c-8.66-7.11-17.33-14.58-25.78-22.18a5,5,0,1,1,6.72-7.47c8.33,7.51,16.89,14.88,25.44,21.9a5,5,0,0,1-3.2,8.9Zm-50.23-45.17a5,5,0,0,1-3.51-1.44c-8-7.81-16-16-23.81-24.27a5,5,0,0,1,7.31-6.88c7.72,8.19,15.64,16.26,23.52,24a5,5,0,0,1-3.51,8.61ZM2107.16,881a5,5,0,0,1-3.78-1.72c-7.36-8.42-14.72-17.16-21.88-26a5,5,0,1,1,7.79-6.33c7.09,8.73,14.37,17.38,21.65,25.71a5,5,0,0,1-.48,7.08A5,5,0,0,1,2107.16,881Zm-42.62-52.44a5,5,0,0,1-4-2c-6.75-8.91-13.5-18.12-20.07-27.39a5,5,0,1,1,8.19-5.8c6.51,9.17,13.2,18.31,19.88,27.13a5,5,0,0,1-4,8Zm-39.09-55.13a5,5,0,0,1-4.18-2.24c-6.16-9.27-12.35-18.87-18.38-28.53a5,5,0,1,1,8.52-5.32c6,9.58,12.11,19.1,18.22,28.29a5,5,0,0,1-4.18,7.8Zm-35.81-57.31a5,5,0,0,1-4.33-2.48c-5.65-9.6-11.31-19.51-16.83-29.45a5,5,0,0,1,8.78-4.88c5.48,9.87,11.1,19.71,16.7,29.24a5,5,0,0,1-4.32,7.57ZM1956.83,657a5,5,0,0,1-4.45-2.69c-5.21-9.92-10.39-20.08-15.42-30.21a5,5,0,0,1,9-4.46c5,10.06,10.14,20.15,15.31,30a5,5,0,0,1-4.44,7.36Z"/><path class="cls-9" d="M2424.33,1097.11a4.87,4.87,0,0,1-1.54-.25q-8-2.58-16-5.38a5,5,0,1,1,3.32-9.47q7.83,2.74,15.74,5.3a5,5,0,0,1-1.54,9.8Z"/><path class="cls-9" d="M1426.21,102.94a93.49,93.49,0,0,0-93.49,93.49c0,33.46,39.26,111.29,66.9,161.94,11.49,21.05,41.7,21.05,53.19,0,27.63-50.65,66.89-128.48,66.89-161.94A93.49,93.49,0,0,0,1426.21,102.94Zm0,143.68a50.2,50.2,0,1,1,50.2-50.19A50.19,50.19,0,0,1,1426.21,246.62Z"/><path class="cls-9" d="M1942.84,278.74a117.72,117.72,0,0,0-117.71,117.72c0,42.13,49.43,140.13,84.23,203.9,14.46,26.51,52.5,26.51,67,0,34.8-63.77,84.24-161.77,84.24-203.9A117.73,117.73,0,0,0,1942.84,278.74Zm0,180.92a63.2,63.2,0,1,1,63.2-63.2A63.21,63.21,0,0,1,1942.84,459.66Z"/><path class="cls-9" d="M1167.37,504.78a97,97,0,0,0-96.95,97c0,34.7,40.71,115.42,69.37,167.94,11.92,21.83,43.24,21.83,55.15,0,28.66-52.52,69.38-133.24,69.38-167.94A97,97,0,0,0,1167.37,504.78Zm0,149a52.06,52.06,0,1,1,52.05-52.06A52.06,52.06,0,0,1,1167.37,653.79Z"/><path class="cls-9" d="M2464.49,892.88a97,97,0,0,0-96.95,97c0,34.7,40.71,115.41,69.37,167.94,11.92,21.83,43.24,21.83,55.15,0,28.66-52.53,69.38-133.24,69.38-167.94A97,97,0,0,0,2464.49,892.88Zm0,149a52.05,52.05,0,1,1,52.05-52.05A52.05,52.05,0,0,1,2464.49,1041.88Z"/><rect class="cls-10" x="197.92" y="856.18" width="1210.08" height="575.02" rx="27.56"/><rect class="cls-11" x="225.21" y="875.1" width="1151.07" height="531.28" rx="27.56"/><path class="cls-12" d="M664.19,1253.5a224.68,224.68,0,0,0-79.91-323.87l-106.12,198Z"/><path class="cls-13" d="M584.28,929.63a225.45,225.45,0,0,0-151.42-22l45.3,220Z"/><path class="cls-6" d="M432.86,907.59a224.38,224.38,0,0,0-127.23,76.25l172.53,143.78Z"/><path class="cls-14" d="M478.16,1127.62l-204.84,92.24a224.66,224.66,0,0,0,390.87,33.64Z"/><path class="cls-3" d="M305.63,983.84a224.48,224.48,0,0,0-34.86,57.43c79.52,31.13,207.39,86.35,207.39,86.35Z"/><path class="cls-5" d="M270.77,1041.27a225.2,225.2,0,0,0,2.55,178.59l204.84-92.24S350.29,1072.4,270.77,1041.27Z"/><g class="cls-15"><path class="cls-9" d="M979.28,986h-205c-8.57,0-15.53,5.36-15.53,12s7,12,15.53,12h205c8.58,0,15.53-5.36,15.53-12S987.86,986,979.28,986Z"/><path class="cls-9" d="M979.28,1039.07h-205c-8.57,0-15.53,5.37-15.53,12s7,12,15.53,12h205c8.58,0,15.53-5.37,15.53-12S987.86,1039.07,979.28,1039.07Z"/><path class="cls-9" d="M979.28,1251.26h-205c-8.57,0-15.53,5.36-15.53,12s7,12,15.53,12h205c8.58,0,15.53-5.36,15.53-12S987.86,1251.26,979.28,1251.26Z"/><path class="cls-9" d="M979.28,1198.21h-205c-8.57,0-15.53,5.37-15.53,12s7,12,15.53,12h205c8.58,0,15.53-5.36,15.53-12S987.86,1198.21,979.28,1198.21Z"/><path class="cls-9" d="M979.28,1145.17h-205c-8.57,0-15.53,5.36-15.53,12s7,12,15.53,12h205c8.58,0,15.53-5.37,15.53-12S987.86,1145.17,979.28,1145.17Z"/></g><g class="cls-15"><path class="cls-9" d="M1314.75,987.15h-205c-8.57,0-15.52,5.37-15.52,12s7,12,15.52,12h205c8.57,0,15.52-5.36,15.52-12S1323.32,987.15,1314.75,987.15Z"/><path class="cls-9" d="M1314.75,1040.2h-205c-8.57,0-15.52,5.36-15.52,12s7,12,15.52,12h205c8.57,0,15.52-5.36,15.52-12S1323.32,1040.2,1314.75,1040.2Z"/><path class="cls-9" d="M1314.75,1252.38h-205c-8.57,0-15.52,5.37-15.52,12s7,12,15.52,12h205c8.57,0,15.52-5.36,15.52-12S1323.32,1252.38,1314.75,1252.38Z"/><path class="cls-9" d="M1314.75,1199.34h-205c-8.57,0-15.52,5.36-15.52,12s7,12,15.52,12h205c8.57,0,15.52-5.37,15.52-12S1323.32,1199.34,1314.75,1199.34Z"/><path class="cls-9" d="M1314.75,1146.29h-205c-8.57,0-15.52,5.37-15.52,12s7,12,15.52,12h205c8.57,0,15.52-5.36,15.52-12S1323.32,1146.29,1314.75,1146.29Z"/></g><path class="cls-16" d="M1225.56,2229s-22.68-59.72-49.18-54.25-55.48,25.83-55.48,25.83l-42.57,57.56s119.49,47.08,161.52,20.1c0,0,122.05,21.09,276.18-4.2-22.31-47.11-35.61-94.27-43.42-130.87C1394.55,2187.31,1310.47,2220.31,1225.56,2229Z"/><path class="cls-17" d="M1872.08,1795.82s-174.75,220.09-399.47,347.3c7.81,36.6,21.11,83.76,43.42,130.87,116.58-19.13,251.5-64.78,365.88-166.22Z"/><path class="cls-18" d="M562.37,1824.92l10.85,291.37a799.87,799.87,0,0,0,88.09,25c17.47-56.26,56-125.31,87.46-176.65C633,1923.74,562.37,1824.92,562.37,1824.92Z"/><path class="cls-19" d="M1140.32,1820C981.52,1991.41,853,2001.51,748.77,1964.66c-31.51,51.34-70,120.39-87.46,176.65C1085.36,2234.8,1185.22,1845,1185.22,1845Z"/><path class="cls-20" d="M1172.52,1801.76s18.29-19.65,52.15-13.47,64,17.93,85.08,0,28.51,6.13,28.51,6.13l-63.17,48Z"/><path class="cls-21" d="M1134.74,1835.34s12.54-52.41,50.31-45.23,123.51,53.82,145.61,45.23,50.36-29.16,64.86-21.89L1370,1845.2s65.65-37.87,77-14.6l-109.23,61.47S1177.88,1876.07,1134.74,1835.34Z"/><path class="cls-22" d="M12.66,2785.22s-54.18-773.53,340.81-1014.06c0,0,110.43-72.91,248,68.28s93.29,287.86-22.19,425.32-233.09,383-205.1,520.46Z"/><path class="cls-23" d="M552.54,1560.46c-.11,9.22-131.64,196-131.64,196s23.61,46.5,136.32,84.25l97.29-200Z"/><path class="cls-24" d="M500.81,2201.88s249.55,209,519,117.8a64.18,64.18,0,0,1,50.59,3.81l77.47,40.92a69.15,69.15,0,0,0,91.65-25.66c10.77-18,20-38.57,21.78-58.27l-151.59-61.37,11.18-18.58s-74-6.27-93.38,46.77c0,0-141,58.63-378.71-202.86C648.81,2044.44,540.93,2136.17,500.81,2201.88Z"/><path class="cls-25" d="M487.38,2201a5.53,5.53,0,0,1-3.09-.95c-105.38-71.2-155-186.13-155.44-187.28a5.52,5.52,0,0,1,10.17-4.31c.48,1.12,48.86,113.12,151.46,182.44a5.52,5.52,0,0,1-3.1,10.1Z"/><path class="cls-26" d="M643.89,2042.15a5.53,5.53,0,0,1-4.65-2.53c-.31-.49-32.44-50.5-93.6-160-18.62-33.35-43.07-54.47-72.66-62.75-49.07-13.74-96.4,12.6-96.88,12.86a5.52,5.52,0,0,1-5.45-9.6c2.08-1.18,51.65-28.86,105.21-13.93,32.57,9.09,59.29,32,79.42,68,61,109.16,92.93,158.93,93.24,159.42a5.51,5.51,0,0,1-1.65,7.63A5.44,5.44,0,0,1,643.89,2042.15Z"/><path class="cls-27" d="M656.09,1453.41s46.8,107.51,49.95,163.93,15.3,93.05-49.95,104.41-120.21-21.14-150-77.35c0,0-46.66-86.61-36.19-122.08S656.09,1453.41,656.09,1453.41Z"/><path class="cls-28" d="M528.4,1604l3.72-1.64a9,9,0,0,0,4.37-12.3c-9.2-17.78-27.13-58.51-4-68,29.86-12.24,148.14-36.37,173.66-78.34,24.53-40.33,2.8-92.4-29.86-107.21a4.51,4.51,0,0,0-5.89,1.91l-2.72,5.15a4.43,4.43,0,0,1-8.18-.84h0a4.41,4.41,0,0,0-8-1.14c-7.84,12.56-29,32.91-85.66,43.37-80.49,14.85-133.71,47.43-135,103a4.45,4.45,0,0,1-6.86,3.66c-5.95-3.63-15.46-5.33-28.17,5.36-22.1,18.59-13.06,66.81,35.4,106.47a4.41,4.41,0,0,1-.21,7.1c-8.78,5.72-21.88,19.32,12.05,37.46,35.1,18.77,61.31,17.23,71.41,15.56a4.41,4.41,0,0,0,3.58-5.33l-10.77-48.88a4.43,4.43,0,0,1,4.32-5.39Z"/><path class="cls-29" d="M530.43,1614.3s-17.85-68.67-48.64-49.42,16,76.95,40.73,79.52Z"/><path class="cls-30" d="M1070.41,2323.49s63.42,62,75.65,53c4.36-3.21,15.35-14.88,26-27.87a27.22,27.22,0,0,0,1.85-32.08l-15-23.08c-14.25-22-44.77-26.6-64.54-9.4C1084.45,2292.74,1075.4,2305.3,1070.41,2323.49Z"/><path class="cls-31" d="M2077.05,2785.22s-7.78-290.08-169.81-577.86c-50.69-90-68.71-194.79-52.91-296.88l17.75-114.66s222.38-75.25,468.88-3.17c0,0,341.78,271,113.36,992.57Z"/><path class="cls-32" d="M1909.94,1649.48,1967.6,1788a27.59,27.59,0,0,0,20.85,16.59c33.25,5.7,113.66,14.61,166.46-20.12a13.42,13.42,0,0,0,3.59-18.87L2052,1612.67Z"/><path class="cls-6" d="M2052.15,2300.51a12.8,12.8,0,0,0-8.08,18.3l166.81,319.87a12.81,12.81,0,0,0,14.91,6.38l545.67-157.55a12.8,12.8,0,0,0,8.75-15.85l-94-325.4a12.81,12.81,0,0,0-15.57-8.83Z"/><path class="cls-5" d="M2087.35,2262.92a13.41,13.41,0,0,0-9.47,17.67l133.54,362.73a13.4,13.4,0,0,0,16.29,8.25l544-157.07a13.4,13.4,0,0,0,9.38-15.71l-75.39-349.11a13.4,13.4,0,0,0-16.21-10.21Z"/><path class="cls-33" d="M2134.73,2226.31a16.56,16.56,0,0,0-13.64,20.11L2211.78,2638a16.57,16.57,0,0,0,20.74,12.17l535.78-154.69a16.57,16.57,0,0,0,11.45-20l-82.4-319.64a16.56,16.56,0,0,0-18.53-12.24Z"/><path class="cls-34" d="M2568.45,2375.64C2610,2061.51,2368,1820,2368,1820l-144,167.91c109.35,136.3,161.33,261.19,185.07,359.29C2440.49,2338,2516.31,2323.51,2568.45,2375.64Z"/><path class="cls-35" d="M2409,2350.85a3.67,3.67,0,0,1-3.57-2.82c-29.46-121.67-91.49-242.07-184.38-357.85a3.68,3.68,0,1,1,5.75-4.61c93.56,116.63,156.07,238,185.78,360.73a3.67,3.67,0,0,1-3.58,4.55Z"/><path class="cls-36" d="M2409,2347.17c22.07,91.17,19.75,159.2,16.39,191.68a25.28,25.28,0,0,1-23.38,22.66c-14,1-32.94,2.26-49.9,3.24-18.65,1.07-39.35-10.72-53.19-20.57-7.07-5-16.21,2.81-12.26,10.53,10.33,20.21,36.55,38.2,54.62,48.78a8.63,8.63,0,0,1-2,15.76l-77.28,21.9c127,119.63,210.82-14.22,210.82-14.22,56.05-86.61,85-171.31,95.62-251.29C2516.31,2323.51,2440.49,2338,2409,2347.17Z"/><path class="cls-37" d="M1969.57,1437.53c-2.42,2.28-102.21,198.23-102.21,198.23l113.1,54.6,122.17-171.67S2010.11,1399.37,1969.57,1437.53Z"/><path class="cls-38" d="M2051.23,1539.29l-56.41,94a17.6,17.6,0,0,1-3.09,3.85c-6.71,6.25-29.69,24.42-47.45-.33-15.14-21.09-29.34-40.27-44.56-48.18a18,18,0,0,0-24.33,8c-9.3,18.42-27.3,56-38.61,91.58a18,18,0,0,0,10.45,22c22.9,9.27,68.16,26,108.33,31.6a18,18,0,0,0,17-7.26c17.28-23.67,66-89.82,82.61-106.38,15.44-15.38,43.94-9.58,56.78-5.89a18.16,18.16,0,0,0,14.41-1.89c13-7.85,35.77-27.4,15-60.49a18.06,18.06,0,0,1,5.58-24.52c14.55-9.57,30.34-27.53,15.3-56.62-15.23-29.45-42.42-32.09-60.93-29.83-8.2,1-16.51-3.3-19.66-10.93-1.4-3.39-4.16-6.29-9.31-7.33-9.7-2-16.07-10.85-14.17-20.56,3.27-16.67.81-38.32-25.8-52.94-48.79-26.83-91.54,16.88-102.41,53.79s43.69,63,78,67.33c25.21,3.2,39,30.71,44.6,45.09A18.11,18.11,0,0,1,2051.23,1539.29Z"/><path class="cls-39" d="M2034,1662.76s21.7-63.49,49.47-61.16,49.64,30,15.22,61.11C2055.9,1701.4,2034,1662.76,2034,1662.76Z"/><path class="cls-40" d="M908.52,1479.43l8.35,259.71c1.46,45.28,38.62,81.32,84.14,81.59l621.91,3.66a61,61,0,0,0,60.79-51.88c9.72-65.59,22.11-182.94,8.16-293.08Z"/><path class="cls-9" d="M1610.05,1809.54a1.86,1.86,0,0,1-.06-3.72,56.12,56.12,0,0,0,10.66-1.42,1.86,1.86,0,0,1,.85,3.62,61.19,61.19,0,0,1-11.38,1.52Zm-26-.1h0l-11.13-.07a1.86,1.86,0,0,1,0-3.71h0l11.14.07a1.86,1.86,0,0,1,0,3.71Zm-37.11-.22h0l-11.14-.06a1.86,1.86,0,0,1,0-3.72h0l11.13.07a1.86,1.86,0,0,1,0,3.71Zm-37.12-.22h0l-11.13-.07a1.86,1.86,0,0,1,0-3.71h0l11.13.07a1.86,1.86,0,1,1,0,3.71Zm-37.11-.22h0l-11.14-.06a1.86,1.86,0,0,1-1.85-1.87,2,2,0,0,1,1.87-1.84l11.14.06a1.86,1.86,0,0,1,0,3.71Zm-37.12-.22h0l-11.13-.06a1.86,1.86,0,1,1,0-3.71h0l11.13.06a1.86,1.86,0,0,1,0,3.71Zm-37.12-.22h0l-11.13-.06a1.86,1.86,0,1,1,0-3.71h0l11.13.06a1.86,1.86,0,1,1,0,3.71Zm-37.11-.21h0l-11.14-.07a1.86,1.86,0,0,1,0-3.71h0l11.14.06a1.86,1.86,0,0,1,0,3.72Zm-37.12-.22h0l-11.13-.07a1.86,1.86,0,0,1,0-3.71h0l11.13.07a1.86,1.86,0,1,1,0,3.71Zm-37.11-.22h0l-11.14-.07a1.86,1.86,0,0,1,0-3.71h0l11.14.07a1.86,1.86,0,0,1,0,3.71Zm-37.12-.22h0l-11.14-.06a1.86,1.86,0,0,1,0-3.72h0l11.14.07a1.86,1.86,0,0,1,0,3.71Zm-37.12-.22h0l-11.13-.06a1.86,1.86,0,1,1,0-3.71h0l11.14.06a1.86,1.86,0,0,1,0,3.71Zm-37.11-.22h0l-11.14-.06a1.86,1.86,0,0,1,0-3.71h0l11.14.06a1.86,1.86,0,0,1,0,3.71Zm-37.12-.22h0l-11.13-.06a1.86,1.86,0,1,1,0-3.71h0l11.13.06a1.86,1.86,0,1,1,0,3.71Zm-37.11-.21h0l-11.14-.07a1.85,1.85,0,0,1-1.84-1.87,2,2,0,0,1,1.86-1.84l11.14.07a1.86,1.86,0,0,1,0,3.71Zm-37.12-.22h0l-11.14-.07a1.86,1.86,0,0,1,0-3.71h0l11.14.06a1.86,1.86,0,0,1,0,3.72Zm-37.12-.22h0l-11.13-.07a1.86,1.86,0,0,1,0-3.71h0l11.13.07a1.86,1.86,0,1,1,0,3.71ZM990.66,1802a2,2,0,0,1-.58-.09,80.74,80.74,0,0,1-10.54-4.32,1.85,1.85,0,1,1,1.65-3.32,78.79,78.79,0,0,0,10,4.11,1.86,1.86,0,0,1-.58,3.62Zm653.59-5.19a1.88,1.88,0,0,1-1.45-.69,1.86,1.86,0,0,1,.29-2.61,56.52,56.52,0,0,0,7.73-7.5,1.85,1.85,0,1,1,2.82,2.41,60.39,60.39,0,0,1-8.23,8A1.86,1.86,0,0,1,1644.25,1796.82Zm-684.94-14a1.86,1.86,0,0,1-1.31-.54,82.19,82.19,0,0,1-7.52-8.54,1.85,1.85,0,1,1,2.94-2.26,79.33,79.33,0,0,0,7.19,8.16,1.86,1.86,0,0,1,0,2.63A1.91,1.91,0,0,1,959.31,1782.8Zm704.8-16.57a1.84,1.84,0,0,1-.47-.06,1.86,1.86,0,0,1-1.33-2.26,58.05,58.05,0,0,0,1.18-5.84l.72-4.92a1.85,1.85,0,1,1,3.67.53l-.72,4.94a59.91,59.91,0,0,1-1.26,6.21A1.86,1.86,0,0,1,1664.11,1766.23Zm-724.36-14.6a1.84,1.84,0,0,1-1.75-1.26,80.92,80.92,0,0,1-2.91-11,1.86,1.86,0,0,1,3.65-.7,76.62,76.62,0,0,0,2.77,10.51,1.85,1.85,0,0,1-1.16,2.35A1.8,1.8,0,0,1,939.75,1751.63Zm729.75-22.12h-.23a1.86,1.86,0,0,1-1.61-2.07c.45-3.6.89-7.27,1.32-11a1.86,1.86,0,1,1,3.69.42q-.66,5.67-1.33,11.07A1.85,1.85,0,0,1,1669.5,1729.51ZM935.11,1715a1.85,1.85,0,0,1-1.85-1.8l-.36-11.13a1.85,1.85,0,0,1,1.79-1.91,1.9,1.9,0,0,1,1.92,1.8l.36,11.13a1.85,1.85,0,0,1-1.8,1.91Zm738.45-22.39h-.18a1.85,1.85,0,0,1-1.67-2q.52-5.46,1-11.08a1.88,1.88,0,0,1,2-1.68,1.85,1.85,0,0,1,1.69,2q-.5,5.64-1,11.11A1.86,1.86,0,0,1,1673.56,1692.61ZM933.92,1677.9a1.85,1.85,0,0,1-1.85-1.8l-.36-11.12a1.86,1.86,0,0,1,1.79-1.92,1.9,1.9,0,0,1,1.92,1.8l.35,11.13a1.85,1.85,0,0,1-1.79,1.91Zm742.64-22.29h-.13a1.87,1.87,0,0,1-1.73-2q.38-5.49.69-11.1a1.82,1.82,0,0,1,1.95-1.74,1.84,1.84,0,0,1,1.75,2q-.31,5.63-.68,11.14A1.86,1.86,0,0,1,1676.56,1655.61ZM932.72,1640.8a1.85,1.85,0,0,1-1.85-1.79l-.35-11.13a1.85,1.85,0,1,1,3.7-.12l.36,11.13a1.85,1.85,0,0,1-1.79,1.91Zm745.7-22.26h-.06a1.86,1.86,0,0,1-1.79-1.92c.12-3.68.23-7.39.32-11.11a2,2,0,0,1,1.9-1.82,1.87,1.87,0,0,1,1.81,1.9q-.13,5.61-.32,11.15A1.86,1.86,0,0,1,1678.42,1618.54Zm-746.89-14.83a1.86,1.86,0,0,1-1.85-1.8l-.36-11.13a1.85,1.85,0,0,1,1.8-1.91,1.94,1.94,0,0,1,1.91,1.79l.36,11.14a1.85,1.85,0,0,1-1.8,1.91ZM1679,1581.42a1.85,1.85,0,0,1-1.85-1.85c0-3.69,0-7.4-.08-11.12a1.87,1.87,0,0,1,1.83-1.88,2,2,0,0,1,1.88,1.84c0,3.73.07,7.45.08,11.15a1.85,1.85,0,0,1-1.85,1.86Zm-748.7-14.81a1.85,1.85,0,0,1-1.85-1.8l-.36-11.13a1.85,1.85,0,0,1,1.79-1.91,2,2,0,0,1,1.92,1.8l.36,11.13a1.85,1.85,0,0,1-1.8,1.91Zm747.92-22.29a1.85,1.85,0,0,1-1.85-1.78c-.15-3.69-.33-7.4-.54-11.1a1.86,1.86,0,0,1,3.71-.2c.21,3.72.38,7.43.54,11.15a1.86,1.86,0,0,1-1.78,1.93Zm-749.11-14.81a1.86,1.86,0,0,1-1.86-1.8l-.35-11.12a1.85,1.85,0,0,1,1.79-1.92,1.89,1.89,0,0,1,1.91,1.8l.36,11.12a1.85,1.85,0,0,1-1.79,1.92Zm746.73-22.23a1.86,1.86,0,0,1-1.85-1.69q-.49-5.53-1.06-11.06a1.85,1.85,0,1,1,3.69-.38q.57,5.55,1.07,11.11a1.86,1.86,0,0,1-1.69,2ZM928,1492.41a1.85,1.85,0,0,1-1.85-1.79l-.36-11.13a1.87,1.87,0,0,1,1.8-1.92,2,2,0,0,1,1.91,1.8l.36,11.13a1.85,1.85,0,0,1-1.8,1.91Zm734.17-11.12H1651a1.86,1.86,0,0,1,0-3.72h11.14a1.86,1.86,0,0,1,0,3.72Zm-37.12,0h-11.13a1.86,1.86,0,1,1,0-3.72H1625a1.86,1.86,0,0,1,0,3.72Zm-37.11,0h-11.14a1.86,1.86,0,0,1,0-3.72h11.14a1.86,1.86,0,0,1,0,3.72Zm-37.12,0h-11.14a1.86,1.86,0,0,1,0-3.72h11.14a1.86,1.86,0,0,1,0,3.72Zm-37.12,0h-11.13a1.86,1.86,0,1,1,0-3.72h11.13a1.86,1.86,0,0,1,0,3.72Zm-37.11,0H1465.4a1.86,1.86,0,0,1,0-3.72h11.14a1.86,1.86,0,0,1,0,3.72Zm-37.12,0h-11.14a1.86,1.86,0,0,1,0-3.72h11.14a1.86,1.86,0,0,1,0,3.72Zm-37.12,0h-11.13a1.86,1.86,0,0,1,0-3.72h11.13a1.86,1.86,0,0,1,0,3.72Zm-37.11,0h-11.14a1.86,1.86,0,0,1,0-3.72h11.14a1.86,1.86,0,0,1,0,3.72Zm-37.12,0h-11.14a1.86,1.86,0,0,1,0-3.72h11.14a1.86,1.86,0,0,1,0,3.72Zm-37.12,0h-11.13a1.86,1.86,0,1,1,0-3.72H1291a1.86,1.86,0,0,1,0,3.72Zm-37.11,0H1242.7a1.86,1.86,0,0,1,0-3.72h11.14a1.86,1.86,0,0,1,0,3.72Zm-37.12,0h-11.14a1.86,1.86,0,0,1,0-3.72h11.14a1.86,1.86,0,0,1,0,3.72Zm-37.12,0h-11.13a1.86,1.86,0,0,1,0-3.72h11.13a1.86,1.86,0,1,1,0,3.72Zm-37.12,0h-11.13a1.86,1.86,0,1,1,0-3.72h11.13a1.86,1.86,0,0,1,0,3.72Zm-37.11,0h-11.14a1.86,1.86,0,0,1,0-3.72h11.14a1.86,1.86,0,0,1,0,3.72Zm-37.12,0h-11.13a1.86,1.86,0,1,1,0-3.72h11.13a1.86,1.86,0,0,1,0,3.72Zm-37.12,0H1020a1.86,1.86,0,0,1,0-3.72h11.13a1.86,1.86,0,0,1,0,3.72Zm-37.11,0H982.88a1.86,1.86,0,0,1,0-3.72H994a1.86,1.86,0,0,1,0,3.72Zm-37.12,0H945.77a1.86,1.86,0,0,1,0-3.72H956.9a1.86,1.86,0,0,1,0,3.72Z"/><path class="cls-41" d="M1090.78,1290.89l1.87-20a15.41,15.41,0,0,1,11.68-9c19.38-3.08,67.43-8.5,90.56,8.79l3.46,23.27Z"/><path class="cls-42" d="M1151.3,1271.62a27.74,27.74,0,0,1-13.4,0,12.11,12.11,0,0,1-9.24-11.73v-62.72h31.92v62.67A12.15,12.15,0,0,1,1151.3,1271.62Z"/><path class="cls-43" d="M1399.92,1290.89l1.87-20a15.43,15.43,0,0,1,11.68-9c19.38-3.08,67.43-8.5,90.57,8.79l3.45,23.27Z"/><path class="cls-44" d="M1460.45,1271.62a27.78,27.78,0,0,1-13.41,0,12.11,12.11,0,0,1-9.24-11.73v-69.33h31.92v69.28A12.16,12.16,0,0,1,1460.45,1271.62Z"/><path class="cls-45" d="M1125.42,1212.53l343.25-11.36a16.56,16.56,0,0,0,15.81-13.58c1.88-10.75,3.53-26.84,1.06-43.51a39.59,39.59,0,0,0-38.37-33.51c-64-1.53-227.05-1.48-316.89,34.06a31.38,31.38,0,0,0-19,21.77c-2.3,9.44-3.82,22-.82,34.86A14.77,14.77,0,0,0,1125.42,1212.53Z"/><path class="cls-46" d="M1119.47,1196.89a3.72,3.72,0,0,1-3.69-3.34c0-.56-1.34-13.85,2.12-26.66a30.84,30.84,0,0,1,21-21.34c19.22-5.64,56-15.23,86.08-16.08a3.71,3.71,0,0,1,.2,7.42c-29.27.82-65.31,10.24-84.19,15.78a23.34,23.34,0,0,0-15.92,16.16c-3.11,11.5-1.91,23.85-1.9,24a3.72,3.72,0,0,1-3.32,4.07Z"/><path class="cls-47" d="M931.52,1283.09c110.9-1.42,590.61-6.46,730,10.36a28.36,28.36,0,0,1,24.39,22c8.23,37.22,24.8,123.7,22.83,209.41a24.83,24.83,0,0,1-20.33,23.69l-318.09,60.18h-113l-338.92-67.37A26.52,26.52,0,0,1,897,1516.72c-2.2-43.12-5.65-144.31,6-209.44A29.32,29.32,0,0,1,931.52,1283.09Z"/><path class="cls-9" d="M1260,1583.14a2.19,2.19,0,0,1-.36,0l-10.92-2.17a1.86,1.86,0,0,1-1.46-2.19,1.83,1.83,0,0,1,2.18-1.45l10.83,2.15.24,0h11.14a1.86,1.86,0,1,1,0,3.71H1260.5a1.06,1.06,0,0,1-.25,0A1.1,1.1,0,0,1,1260,1583.14Zm85.88,0h-11.13a1.86,1.86,0,1,1,0-3.71h11.13a1.86,1.86,0,1,1,0,3.71Zm-37.11,0h-11.14a1.86,1.86,0,0,1,0-3.71h11.14a1.86,1.86,0,0,1,0,3.71Zm63-.77a1.85,1.85,0,0,1-.34-3.67l10.94-2.07a1.85,1.85,0,1,1,.69,3.64l-10.94,2.07Zm-148.19-6.46a1.61,1.61,0,0,1-.37,0l-10.92-2.17a1.86,1.86,0,0,1,.73-3.64l10.92,2.17a1.86,1.86,0,0,1-.36,3.68Zm184.66-.44a1.86,1.86,0,0,1-.34-3.68l10.94-2.07a1.86,1.86,0,0,1,.69,3.65l-10.94,2.07Zm-221.07-6.8a1.47,1.47,0,0,1-.36,0l-10.92-2.17a1.86,1.86,0,0,1,.72-3.64l10.92,2.17a1.86,1.86,0,0,1-.36,3.68Zm257.54-.1a1.85,1.85,0,0,1-.34-3.67l10.94-2.07a1.85,1.85,0,1,1,.69,3.64l-10.94,2.07Zm36.47-6.9a1.86,1.86,0,0,1-.34-3.68l10.94-2.07a1.86,1.86,0,0,1,.69,3.65l-10.94,2.07Zm-330.41-.24-.36,0-10.93-2.17A1.86,1.86,0,0,1,1138,1557a1.83,1.83,0,0,1,2.18-1.45l10.92,2.17a1.85,1.85,0,0,1-.36,3.67Zm366.88-6.65a1.86,1.86,0,0,1-.34-3.68l10.94-2.07a1.85,1.85,0,1,1,.69,3.64l-10.94,2.07A2.21,2.21,0,0,1,1517.66,1554.78Zm-403.28-.58a1.55,1.55,0,0,1-.37,0l-10.92-2.17a1.86,1.86,0,0,1,.72-3.64l10.92,2.17a1.86,1.86,0,0,1-.35,3.68Zm439.75-6.33a1.85,1.85,0,0,1-.34-3.67l10.94-2.07a1.85,1.85,0,0,1,.69,3.64l-11,2.07A2,2,0,0,1,1554.13,1547.87ZM1078,1547a1.47,1.47,0,0,1-.36,0l-10.92-2.17a1.86,1.86,0,0,1,.72-3.64l10.92,2.18a1.85,1.85,0,0,1-.36,3.67Zm512.63-6a1.86,1.86,0,0,1-.34-3.68l10.94-2.07a1.85,1.85,0,0,1,.69,3.64l-11,2.07A1.32,1.32,0,0,1,1590.6,1541Zm-549-1.25a1.61,1.61,0,0,1-.37,0l-10.92-2.17a1.86,1.86,0,1,1,.73-3.64l10.92,2.17a1.86,1.86,0,0,1-.36,3.68Zm585.5-5.65a1.86,1.86,0,0,1-.34-3.68l10.94-2.07a1.85,1.85,0,0,1,.69,3.64l-10.95,2.07A2,2,0,0,1,1627.07,1534.08Zm-621.91-1.59a1.47,1.47,0,0,1-.36,0l-10.92-2.17a1.86,1.86,0,0,1,.72-3.64l10.92,2.17a1.86,1.86,0,0,1-.36,3.68Zm658.38-5.31a1.86,1.86,0,0,1-.34-3.68l10.94-2.07a1.86,1.86,0,0,1,.69,3.65l-10.95,2.06A1.32,1.32,0,0,1,1663.54,1527.18Zm-694.78-1.93-.37,0-10.92-2.17a1.87,1.87,0,0,1-1.46-2.19,1.84,1.84,0,0,1,2.19-1.45l10.92,2.17a1.85,1.85,0,0,1-.36,3.67ZM932.35,1518a1.47,1.47,0,0,1-.36,0l-9.43-1.88-.23-4.41a1.87,1.87,0,0,1,1.77-1.94,1.77,1.77,0,0,1,1.94,1.77l.08,1.51,6.59,1.31a1.86,1.86,0,0,1-.36,3.68Zm749.06-13.21a1.85,1.85,0,0,1-1.86-1.83c0-3.71-.12-7.41-.23-11.1a1.86,1.86,0,0,1,1.8-1.91,1.93,1.93,0,0,1,1.91,1.8c.11,3.71.19,7.44.23,11.17a1.84,1.84,0,0,1-1.83,1.87ZM923.12,1487.5a1.85,1.85,0,0,1-1.85-1.8c-.12-3.57-.24-7.29-.34-11.14a1.86,1.86,0,0,1,1.8-1.91,2,2,0,0,1,1.91,1.81c.1,3.84.22,7.55.33,11.12a1.86,1.86,0,0,1-1.79,1.92ZM1680,1467.74a1.87,1.87,0,0,1-1.86-1.74q-.36-5.58-.79-11.09a1.86,1.86,0,0,1,3.7-.29q.43,5.54.8,11.14a1.86,1.86,0,0,1-1.73,2Zm-757.68-17.36a1.85,1.85,0,0,1-1.85-1.83q-.07-5.49-.09-11.15a1.85,1.85,0,0,1,1.84-1.86h0a1.86,1.86,0,0,1,1.86,1.85c0,3.76.05,7.46.09,11.12a1.85,1.85,0,0,1-1.84,1.87Zm754.46-19.64a1.84,1.84,0,0,1-1.84-1.66q-.62-5.6-1.27-11a1.86,1.86,0,0,1,1.62-2.06,1.83,1.83,0,0,1,2.07,1.62q.66,5.46,1.27,11.08a1.86,1.86,0,0,1-1.65,2Zm-754.41-17.48h0a1.85,1.85,0,0,1-1.83-1.88c.06-3.7.13-7.43.23-11.15a1.89,1.89,0,0,1,1.9-1.81,1.86,1.86,0,0,1,1.81,1.9c-.1,3.71-.17,7.42-.23,11.12A1.85,1.85,0,0,1,922.32,1413.26Zm749.7-19.35a1.84,1.84,0,0,1-1.83-1.58q-.84-5.64-1.68-11a1.85,1.85,0,1,1,3.66-.58q.86,5.38,1.69,11a1.86,1.86,0,0,1-1.57,2.1A1.23,1.23,0,0,1,1672,1393.91Zm-748.49-17.75h-.1a1.87,1.87,0,0,1-1.76-2q.3-5.61.66-11.15a1.84,1.84,0,0,1,2-1.73,1.86,1.86,0,0,1,1.73,2c-.25,3.67-.46,7.37-.66,11.09A1.85,1.85,0,0,1,923.53,1376.16ZM1666,1357.27a1.85,1.85,0,0,1-1.82-1.52q-1.07-5.74-2.07-10.93a1.85,1.85,0,0,1,3.64-.71c.68,3.46,1.37,7.13,2.08,11a1.86,1.86,0,0,1-1.49,2.16Zm-739.53-18.12h-.21a1.86,1.86,0,0,1-1.64-2q.63-5.67,1.36-11.11a1.82,1.82,0,0,1,2.09-1.58,1.84,1.84,0,0,1,1.59,2.08q-.72,5.38-1.35,11A1.85,1.85,0,0,1,926.44,1339.15Zm730.6-16.78h-.22c-3.43-.4-7.12-.8-11-1.19a1.85,1.85,0,0,1-1.66-2,1.88,1.88,0,0,1,2-1.66q5.91.58,11.1,1.19a1.86,1.86,0,0,1-.21,3.7Zm-37-3.34h-.13l-11.1-.75a1.85,1.85,0,1,1,.24-3.7q5.76.36,11.12.75a1.86,1.86,0,0,1-.13,3.71Zm-37-2.22h-.1c-3.62-.19-7.32-.36-11.11-.54a1.85,1.85,0,1,1,.17-3.7q5.7.26,11.13.53a1.86,1.86,0,0,1-.09,3.71Zm-37.08-1.62h-.08l-11.12-.4a1.87,1.87,0,0,1-1.79-1.93,2,2,0,0,1,1.92-1.79l11.14.41a1.86,1.86,0,0,1-.07,3.71Zm-37.1-1.24h-.06l-11.13-.31a1.86,1.86,0,0,1-1.8-1.91,1.79,1.79,0,0,1,1.9-1.8l11.14.31a1.86,1.86,0,0,1-.05,3.71Zm-37.11-1h0l-11.13-.25a1.86,1.86,0,0,1,0-3.71h0l11.13.25a1.86,1.86,0,0,1,0,3.71Zm-37.11-.75h0l-11.13-.19a1.86,1.86,0,0,1,0-3.71h0l11.14.19a1.86,1.86,0,0,1,0,3.71Zm-493.74,0a1.86,1.86,0,0,1,0-3.71l11.15-.13h0a1.86,1.86,0,0,1,0,3.71l-11.14.13Zm37.13-.42a1.86,1.86,0,0,1,0-3.71l11.14-.12h0a1.86,1.86,0,0,1,0,3.71l-11.14.12Zm419.49-.16h0l-11.14-.14a1.86,1.86,0,0,1,0-3.72h0l11.14.15a1.86,1.86,0,0,1,0,3.71Zm-382.36-.2a1.86,1.86,0,0,1,0-3.71l11.14-.1h0a1.86,1.86,0,0,1,0,3.71l-11.14.1Zm345.25-.24h0l-11.14-.1a1.86,1.86,0,0,1,0-3.71h0l11.13.1a1.86,1.86,0,0,1,0,3.71Zm-308.12-.06a1.86,1.86,0,0,1,0-3.71l11.14-.08h0a1.86,1.86,0,0,1,0,3.71l-11.14.08Zm271-.25h0l-11.14-.08a1.86,1.86,0,0,1,0-3.71h0l11.13.08a1.86,1.86,0,1,1,0,3.71Zm-233.87,0a1.86,1.86,0,0,1,0-3.71l11.14-.07h0a1.86,1.86,0,0,1,0,3.72l-11.14.06Zm37.13-.19a1.86,1.86,0,0,1,0-3.71l11.13,0h0a1.86,1.86,0,1,1,0,3.71l-11.14,0Zm159.62,0h0l-11.14,0a1.86,1.86,0,1,1,0-3.71h0l11.14,0a1.86,1.86,0,0,1,0,3.71Zm-122.49-.09a1.86,1.86,0,0,1,0-3.72l11.14,0a1.86,1.86,0,1,1,0,3.71l-11.14,0Zm85.37,0h-11.14a1.86,1.86,0,0,1,0-3.72h0l11.13,0a1.86,1.86,0,1,1,0,3.71Zm-48.25,0a1.86,1.86,0,1,1,0-3.71h11.1a1.87,1.87,0,0,1,1.87,1.85,1.84,1.84,0,0,1-1.84,1.86Z"/><path class="cls-48" d="M1359.64,1656.13h-99a25.58,25.58,0,0,1-25.44-22.47l-11.43-95.25a25.53,25.53,0,0,1,25.43-28.52h118.92a25.54,25.54,0,0,1,25.51,27.75l-8.49,95.25A25.57,25.57,0,0,1,1359.64,1656.13Z"/><path class="cls-49" d="M1351.8,1643.58h-79.28a20.49,20.49,0,0,1-20.37-18L1243,1549.3a20.46,20.46,0,0,1,20.37-22.84h95.24a20.46,20.46,0,0,1,20.44,22.22l-6.8,76.29A20.48,20.48,0,0,1,1351.8,1643.58Z"/></g></g></g></svg>