<svg xmlns="http://www.w3.org/2000/svg" viewBox="0 0 428.84 138.31"><defs><style>.cls-1{fill:#39b54a;}.cls-2{fill:#231f20;}.cls-3{font-size:11.77px;fill:#2d8a42;font-family:NirmalaUI-Semilight, Nirmala UI;font-weight:300;letter-spacing:0.07em;}.cls-4{letter-spacing:0.05em;}.cls-5{letter-spacing:0.07em;}.cls-6{letter-spacing:0.02em;}.cls-7{letter-spacing:0.07em;}.cls-8{letter-spacing:0.07em;}.cls-9{letter-spacing:0.1em;}.cls-10{letter-spacing:0.01em;}</style></defs><g id="Layer_2" data-name="Layer 2"><g id="Layer_1-2" data-name="Layer 1"><path class="cls-1" d="M93.44,46,93.11,46a7.5,7.5,0,0,1-4.77-10.84l.16-.28a7.51,7.51,0,0,0-9.88-10.32l-.29.15a7.5,7.5,0,0,1-10.62-5.24l-.07-.33a7.5,7.5,0,0,0-14.19-1.54l-.13.29a7.5,7.5,0,0,1-11.51,2.82l-.26-.21a7.5,7.5,0,0,0-11.87,7.93l.1.33a7.51,7.51,0,0,1-7,9.55h-.32a7.5,7.5,0,0,0-4,13.7l.27.19A7.5,7.5,0,0,1,19.5,64l-.24.22A7.5,7.5,0,0,0,25,77.26l.33,0a7.49,7.49,0,0,1,8.19,8.54l0,.34a7.49,7.49,0,0,0,12.79,6.31l.24-.24a7.5,7.5,0,0,1,11.77,1.29l.17.28a7.5,7.5,0,0,0,13.87-3.39l0-.33a7.5,7.5,0,0,1,9.85-6.58l.31.11A7.51,7.51,0,0,0,90.94,72l-.19-.27A7.5,7.5,0,0,1,94.06,60.4l.3-.12A7.49,7.49,0,0,0,93.44,46ZM71.88,48.35,53.29,64.43a2,2,0,0,1-1,.47l-.27,0-.24,0a1.78,1.78,0,0,1-1.21-.56l-7.87-8.56a1.76,1.76,0,0,1-.49-1.14,2.29,2.29,0,0,0,.23-.21,1.77,1.77,0,0,0-.23.19,1.81,1.81,0,0,1,.59-1.45l0,0a1.87,1.87,0,0,1,2.62.1l6.49,7.06,17.33-15a2,2,0,0,1,2.81.2l0,0A2,2,0,0,1,71.88,48.35Z"/><path class="cls-2" d="M55.72,0a55.73,55.73,0,0,0-4.66,111.26h0c1.53.12,3.08.19,4.64.19s3.19-.07,4.75-.2h0A55.73,55.73,0,0,0,55.72,0Zm0,108.93a53.21,53.21,0,1,1,53.2-53.2A53.27,53.27,0,0,1,55.72,108.93Z"/><ellipse class="cls-1" cx="56.62" cy="130.3" rx="8.05" ry="8.01" transform="translate(-0.14 0.06) rotate(-0.06)"/><path class="cls-1" d="M162.19,35.05a3.29,3.29,0,0,1-3.32,3.32H131V55h23.84a3.38,3.38,0,0,1,3.32,3.32,3.33,3.33,0,0,1-3.32,3.32H131V80.6a3.32,3.32,0,0,1-6.64,0V35.05a3.33,3.33,0,0,1,3.32-3.32h31.21A3.33,3.33,0,0,1,162.19,35.05Z"/><path class="cls-1" d="M232.61,83.33A3.44,3.44,0,0,1,228,82.6L213.82,62.94,199.61,82.6a3.44,3.44,0,0,1-4.65.73,3.25,3.25,0,0,1-.73-4.65L209.7,57.23,195.1,37.05a3.24,3.24,0,0,1,.73-4.65,3.36,3.36,0,0,1,4.64.73l13.35,18.46L227.1,33.13a3.33,3.33,0,0,1,5.38,3.92L217.87,57.23l15.47,21.45A3.36,3.36,0,0,1,232.61,83.33Z"/><path class="cls-2" d="M281.68,35.05a3.29,3.29,0,0,1-3.32,3.32H263.82V80.6a3.32,3.32,0,0,1-3.32,3.32,3.29,3.29,0,0,1-3.32-3.32V38.37H242.57a3.32,3.32,0,0,1,0-6.64h35.79A3.29,3.29,0,0,1,281.68,35.05Z"/><path class="cls-2" d="M322.59,83.66A3.47,3.47,0,0,1,318.14,82l-4.58-10.23a27.94,27.94,0,0,0-12.82-.2,30.24,30.24,0,0,0-10,3.92,57.4,57.4,0,0,0-9.29,7.24,3.44,3.44,0,0,1-4.32.8c-1.46-.93-1.26-2.79-.6-4.32l21-45.55a3.33,3.33,0,0,1,6,0l20.2,44.55.45,1A3.41,3.41,0,0,1,322.59,83.66ZM300.55,43,287.8,70.18a43.35,43.35,0,0,1,11.88-4.52,35.25,35.25,0,0,1,10.89-.59Z"/><path class="cls-2" d="M372.06,83.66a3.66,3.66,0,0,1-3.85-.87L336.14,44.22V80.6a3.32,3.32,0,0,1-6.64,0V35.05a3.3,3.3,0,0,1,5.84-2.12l32.14,38.51V35a3.29,3.29,0,0,1,3.32-3.32A3.33,3.33,0,0,1,374.12,35V80.67A2.9,2.9,0,0,1,372.06,83.66Z"/><path class="cls-2" d="M421.86,35.05a3.29,3.29,0,0,1-3.32,3.32H404V80.6a3.33,3.33,0,0,1-3.32,3.32,3.29,3.29,0,0,1-3.32-3.32V38.37H382.75a3.32,3.32,0,1,1,0-6.64h35.79A3.29,3.29,0,0,1,421.86,35.05Z"/><polygon class="cls-1" points="178.89 12.82 177 12.74 176.18 17.59 176.87 20.28 177.25 51.44 179.18 51.37 178.86 20.29 179.59 17.72 178.89 12.82"/><path class="cls-1" d="M174.82,52.72,176.7,50s-3.58-4.13,1.54-4c0,0,5.09-.28,1.46,4.13l2,2.63,0,28.14a3.38,3.38,0,0,1-3.38,3.38h-.07a3.38,3.38,0,0,1-3.38-3.39Z"/><text class="cls-3" transform="translate(227.63 102.56)">...<tspan class="cls-4" x="10.14" y="0">r</tspan><tspan class="cls-5" x="14.77" y="0">eliable, qualit</tspan><tspan class="cls-6" x="93.35" y="0">y</tspan><tspan class="cls-7" x="99.07" y="0">, and trust</tspan><tspan class="cls-8" x="158.76" y="0">w</tspan><tspan class="cls-5" x="167.76" y="0">o</tspan><tspan class="cls-9" x="175.31" y="0">r</tspan><tspan class="cls-7" x="180.44" y="0">th</tspan><tspan class="cls-10" x="192.25" y="0">y</tspan><tspan class="cls-5" x="197.83" y="0">.</tspan></text></g></g></svg>