<svg xmlns="http://www.w3.org/2000/svg" viewBox="0 0 111.44 138.31"><defs><style>.cls-1{fill:#39b54a;}.cls-2{fill:#231f20;}</style></defs><g id="Layer_2" data-name="Layer 2"><g id="Layer_1-2" data-name="Layer 1"><path class="cls-1" d="M93.44,46,93.11,46a7.5,7.5,0,0,1-4.77-10.84l.16-.28a7.51,7.51,0,0,0-9.88-10.32l-.29.15a7.5,7.5,0,0,1-10.62-5.24l-.07-.33a7.5,7.5,0,0,0-14.19-1.54l-.13.29a7.5,7.5,0,0,1-11.51,2.82l-.26-.21a7.5,7.5,0,0,0-11.87,7.93l.1.33a7.51,7.51,0,0,1-7,9.55h-.32a7.5,7.5,0,0,0-4,13.7l.27.19A7.5,7.5,0,0,1,19.5,64l-.24.22A7.5,7.5,0,0,0,25,77.26l.33,0a7.49,7.49,0,0,1,8.19,8.54l0,.34a7.49,7.49,0,0,0,12.79,6.31l.24-.24a7.5,7.5,0,0,1,11.77,1.29l.17.28a7.5,7.5,0,0,0,13.87-3.39l0-.33a7.5,7.5,0,0,1,9.85-6.58l.31.11A7.51,7.51,0,0,0,90.94,72l-.19-.27A7.5,7.5,0,0,1,94.06,60.4l.3-.12A7.49,7.49,0,0,0,93.44,46ZM71.88,48.35,53.29,64.43a2,2,0,0,1-1,.47l-.27,0-.24,0a1.78,1.78,0,0,1-1.21-.56l-7.87-8.56a1.76,1.76,0,0,1-.49-1.14,2.29,2.29,0,0,0,.23-.21,1.77,1.77,0,0,0-.23.19,1.81,1.81,0,0,1,.59-1.45l0,0a1.87,1.87,0,0,1,2.62.1l6.49,7.06,17.33-15a2,2,0,0,1,2.81.2l0,0A2,2,0,0,1,71.88,48.35Z"/><path class="cls-2" d="M55.72,0a55.73,55.73,0,0,0-4.66,111.26h0c1.53.12,3.08.19,4.64.19s3.19-.07,4.75-.2h0A55.73,55.73,0,0,0,55.72,0Zm0,108.93a53.21,53.21,0,1,1,53.2-53.2A53.27,53.27,0,0,1,55.72,108.93Z"/><ellipse class="cls-1" cx="56.62" cy="130.3" rx="8.05" ry="8.01" transform="translate(-0.14 0.06) rotate(-0.06)"/></g></g></svg>