<svg xmlns="http://www.w3.org/2000/svg" viewBox="0 0 304.5 93.74"><defs><style>.cls-1{fill:#39b54a;}.cls-2{fill:#231f20;}.cls-3{font-size:11.77px;fill:#2d8a42;font-family:NirmalaUI-Semilight, Nirmala UI;font-weight:300;letter-spacing:0.07em;}.cls-4{letter-spacing:0.05em;}.cls-5{letter-spacing:0.07em;}.cls-6{letter-spacing:0.02em;}.cls-7{letter-spacing:0.07em;}.cls-8{letter-spacing:0.07em;}.cls-9{letter-spacing:0.1em;}.cls-10{letter-spacing:0.01em;}</style></defs><g id="Layer_2" data-name="Layer 2"><g id="Layer_1-2" data-name="Layer 1"><path class="cls-1" d="M37.85,22.31a3.29,3.29,0,0,1-3.32,3.32H6.64V42.3H30.48a3.37,3.37,0,0,1,3.32,3.32,3.33,3.33,0,0,1-3.32,3.32H6.64V67.86a3.32,3.32,0,1,1-6.64,0V22.31A3.33,3.33,0,0,1,3.32,19H34.53A3.33,3.33,0,0,1,37.85,22.31Z"/><path class="cls-1" d="M108.27,70.58a3.43,3.43,0,0,1-4.65-.73L89.48,50.2,75.27,69.85a3.43,3.43,0,0,1-4.65.73,3.24,3.24,0,0,1-.73-4.65L85.36,44.49,70.75,24.3a3.25,3.25,0,0,1,.74-4.65,3.37,3.37,0,0,1,4.64.73L89.48,38.84l13.28-18.46a3.33,3.33,0,1,1,5.38,3.92L93.53,44.49,109,65.93A3.36,3.36,0,0,1,108.27,70.58Z"/><path class="cls-2" d="M157.34,22.31A3.29,3.29,0,0,1,154,25.63H139.48V67.86a3.33,3.33,0,0,1-3.32,3.32,3.29,3.29,0,0,1-3.32-3.32V25.63H118.23a3.32,3.32,0,0,1,0-6.64H154A3.29,3.29,0,0,1,157.34,22.31Z"/><path class="cls-2" d="M198.25,70.91a3.45,3.45,0,0,1-4.45-1.66L189.22,59a27.94,27.94,0,0,0-12.82-.2,30,30,0,0,0-10,3.92A57.92,57.92,0,0,0,157.15,70a3.43,3.43,0,0,1-4.32.8c-1.46-.93-1.26-2.79-.6-4.31l21-45.55a3.33,3.33,0,0,1,6,0l20.2,44.55.45,1A3.4,3.4,0,0,1,198.25,70.91ZM176.2,30.28,163.45,57.44a43.09,43.09,0,0,1,11.89-4.52,35.25,35.25,0,0,1,10.89-.6Z"/><path class="cls-2" d="M247.72,70.91a3.68,3.68,0,0,1-3.85-.86L211.8,31.47V67.86a3.32,3.32,0,0,1-6.64,0V22.31A3.31,3.31,0,0,1,211,20.18L243.14,58.7V22.24a3.29,3.29,0,0,1,3.32-3.32,3.33,3.33,0,0,1,3.32,3.32V67.93A2.88,2.88,0,0,1,247.72,70.91Z"/><path class="cls-2" d="M297.52,22.31a3.29,3.29,0,0,1-3.32,3.32H279.66V67.86a3.33,3.33,0,0,1-3.32,3.32A3.29,3.29,0,0,1,273,67.86V25.63H258.41a3.32,3.32,0,0,1,0-6.64H294.2A3.29,3.29,0,0,1,297.52,22.31Z"/><polygon class="cls-1" points="54.55 0.08 52.66 0 51.84 4.84 52.53 7.54 52.91 38.7 54.83 38.62 54.52 7.54 55.25 4.97 54.55 0.08"/><path class="cls-1" d="M50.48,40l1.87-2.72s-3.57-4.13,1.55-4c0,0,5.09-.27,1.46,4.13l2,2.63,0,28.14a3.39,3.39,0,0,1-3.39,3.39h-.06a3.4,3.4,0,0,1-3.39-3.39Z"/><text class="cls-3" transform="translate(103.29 89.82)">...<tspan class="cls-4" x="10.14" y="0">r</tspan><tspan class="cls-5" x="14.77" y="0">eliable, qualit</tspan><tspan class="cls-6" x="93.35" y="0">y</tspan><tspan class="cls-7" x="99.07" y="0">, and trust</tspan><tspan class="cls-8" x="158.76" y="0">w</tspan><tspan class="cls-5" x="167.76" y="0">o</tspan><tspan class="cls-9" x="175.31" y="0">r</tspan><tspan class="cls-7" x="180.44" y="0">th</tspan><tspan class="cls-10" x="192.25" y="0">y</tspan><tspan class="cls-5" x="197.83" y="0">.</tspan></text></g></g></svg>